<svg xmlns="http://www.w3.org/2000/svg" width="44.968" height="53.798" viewBox="0 0 44.968 53.798">
  <g id="Group_6742" data-name="Group 6742" transform="translate(44.968 53.798) rotate(180)">
    <g id="_1" data-name="1" transform="translate(0 53.798) rotate(-90)">
      <path id="Exclusion_5" data-name="Exclusion 5" d="M22.484,44.968a22.49,22.49,0,0,1-8.752-43.2A22.49,22.49,0,0,1,31.236,43.2,22.343,22.343,0,0,1,22.484,44.968Zm0-38.27a15.737,15.737,0,1,0,6.145,1.241A15.687,15.687,0,0,0,22.484,6.7Z" transform="translate(0 0)" fill="#eee"/>
    </g>
    <path id="_2" data-name="2" d="M19.135,23.441q0-.163.015-.322l-.027,0c.008-.211.012-.424.012-.637a15.69,15.69,0,0,0-1.24-6.145A15.773,15.773,0,0,0,3.349,6.7a3.349,3.349,0,0,1,0-6.7A22.509,22.509,0,0,1,24.066,13.732a22.347,22.347,0,0,1,1.767,8.752q0,.346-.01.69.01.132.01.266a3.349,3.349,0,0,1-6.7,0Z" transform="matrix(0.574, -0.819, 0.819, 0.574, 2.145, 21.161)" fill="#3269cd"/>
  </g>
</svg>
