<svg xmlns="http://www.w3.org/2000/svg" width="132.103" height="158.042" viewBox="0 0 132.103 158.042">
  <g id="Group_6742" data-name="Group 6742" transform="translate(132.103 158.042) rotate(180)">
    <g id="_1" data-name="1" transform="translate(0 158.042) rotate(-90)">
      <path id="Exclusion_5" data-name="Exclusion 5" d="M66.051,132.1A66.069,66.069,0,0,1,40.341,5.191a66.068,66.068,0,0,1,51.42,121.721A65.638,65.638,0,0,1,66.051,132.1Zm0-112.427A46.232,46.232,0,1,0,84.1,23.32,46.084,46.084,0,0,0,66.051,19.675Z" transform="translate(0 0)" fill="#eee"/>
    </g>
    <path id="_2" data-name="2" d="M56.213,68.862q0-.479.045-.946l-.08.007c.024-.621.037-1.246.037-1.871A46.093,46.093,0,0,0,52.57,48,46.335,46.335,0,0,0,9.838,19.675,9.838,9.838,0,0,1,9.838,0,66.124,66.124,0,0,1,70.7,40.341a65.648,65.648,0,0,1,5.191,25.711q0,1.017-.031,2.028.03.388.031.783a9.838,9.838,0,0,1-19.675,0Z" transform="matrix(0.574, -0.819, 0.819, 0.574, 6.303, 62.164)" fill="#3269cd"/>
  </g>
</svg>
