<?xml version="1.0" standalone="no"?>
<!DOCTYPE svg PUBLIC "-//W3C//DTD SVG 1.1//EN" "http://www.w3.org/Graphics/SVG/1.1/DTD/svg11.dtd" >
<svg xmlns="http://www.w3.org/2000/svg" xmlns:xlink="http://www.w3.org/1999/xlink" version="1.1">
<metadata>
Created by FontForge 20170731 at Fri May 28 14:43:38 2021
 By Aleksey,,,
Copyright (c) 2020 by Cadson Demak Co.,Ltd.. All rights reserved. Exclusively for Bangkok Bank Public Company Limited.
</metadata>
<defs>
<font id="BangkokBankSet-Text-Bold" horiz-adv-x="0" >
  <font-face 
    font-family="Bangkok Bank Set Text-Bold"
    font-weight="700"
    font-stretch="semi-expanded"
    units-per-em="2048"
    panose-1="0 0 8 5 0 0 0 0 0 0"
    ascent="1638"
    descent="-410"
    x-height="1075"
    cap-height="1430"
    bbox="-1288 -868 2728 2255"
    underline-thickness="204"
    underline-position="-441"
    unicode-range="U+000D-FB02"
  />
<missing-glyph horiz-adv-x="1024" 
d="M123 0v1638h778v-1638h-778zM225 102h574v1434h-574v-1434z" />
    <glyph glyph-name="fi" unicode="fi" horiz-adv-x="1351" 
d="M1059 1186q-75 0 -125.5 50t-50.5 124t50.5 124t125.5 50t125.5 -50t50.5 -124t-50.5 -124t-125.5 -50zM195 0v840h-152v235h152v119q0 334 321 334q87 0 197 -29v-223q-60 16 -121 16q-94 0 -94 -123v-94h215v-235h-215v-840h-303zM907 0v1075h303v-1075h-303z" />
    <glyph glyph-name="fl" unicode="fl" horiz-adv-x="1359" 
d="M195 0v840h-152v235h152v119q0 334 321 334q87 0 197 -29v-223q-60 16 -121 16q-94 0 -94 -123v-94h215v-235h-215v-840h-303zM1171 -20q-160 0 -224 78t-64 270v1188h280v-1192q0 -46 22.5 -72.5t63.5 -26.5q35 0 70 6v-239q-46 -12 -148 -12z" />
    <glyph glyph-name="uni0E240E45" unicode="&#xe24;&#xe45;" horiz-adv-x="1914" 
d="M1286 1143q229 0 355 -113.5t126 -318.5v-1121h-286v1104q0 100 -55.5 155.5t-153.5 55.5q-96 0 -176 -45q20 -64 20 -149v-1121h-287v1104q0 100 -55 155.5t-153 55.5q-137 0 -248 -94q65 -42 65 -162v-131q0 -42 -6 -80q104 0 168 -61.5t64 -161.5q0 -103 -68 -167
t-178 -64q-126 0 -194 83t-68 238v320q0 151 -103 229q126 141 274.5 215t307.5 74q196 0 321 -86q157 86 330 86zM496 215q0 36 -22 59t-56 23q-36 0 -59 -23t-23 -59q0 -37 22.5 -59.5t59.5 -22.5q35 0 56.5 22.5t21.5 59.5z" />
    <glyph glyph-name="uni0E260E45" unicode="&#xe26;&#xe45;" horiz-adv-x="1941" 
d="M1313 1143q229 0 355 -113.5t126 -318.5v-1121h-287v1104q0 100 -55.5 155.5t-153.5 55.5q-90 0 -172 -43q17 -63 17 -123v-1149h-287v1121q0 95 -52.5 144.5t-152.5 49.5q-69 0 -129 -25.5t-92 -68.5q54 -32 75 -77.5t21 -127.5v-319q0 -143 -69 -223t-193 -80
q-107 0 -174 64t-67 167q0 100 63 161.5t164 61.5q-2 10 -2 31v117q0 89 -36 144.5t-136 123.5q98 134 256.5 211.5t333.5 77.5q199 0 321 -84q159 84 326 84zM264 133q37 0 59.5 22.5t22.5 59.5t-22.5 59.5t-59.5 22.5q-34 0 -56 -23t-22 -59q0 -37 21.5 -59.5t56.5 -22.5z
" />
    <glyph glyph-name=".notdef" horiz-adv-x="1024" 
d="M123 0v1638h778v-1638h-778zM225 102h574v1434h-574v-1434z" />
    <glyph glyph-name=".null" 
 />
    <glyph glyph-name=".null" 
 />
    <glyph glyph-name="nonmarkingreturn" horiz-adv-x="682" 
 />
    <glyph glyph-name="CR" unicode="&#xd;" horiz-adv-x="573" 
 />
    <glyph glyph-name="space" unicode=" " horiz-adv-x="573" 
 />
    <glyph glyph-name="exclam" unicode="!" horiz-adv-x="655" 
d="M240 451l-70 774v205h315v-205l-69 -774h-176zM328 -25q-78 0 -124 47.5t-46 127.5t46 127t124 47t124 -47t46 -127t-46 -127.5t-124 -47.5z" />
    <glyph glyph-name="quotedbl" unicode="&#x22;" horiz-adv-x="1019" 
d="M168 942l-21 408v166h271v-166l-21 -408h-229zM623 942l-21 408v166h270v-166l-20 -408h-229z" />
    <glyph glyph-name="numbersign" unicode="#" horiz-adv-x="1294" 
d="M1272 891h-240l-59 -352h207v-185h-240l-61 -354h-191l62 354h-328l-62 -354h-192l61 354h-206v185h239l60 352h-207v184h239l62 355h190l-61 -355h327l62 355h192l-61 -355h207v-184zM780 539l62 352h-328l-61 -352h327z" />
    <glyph glyph-name="dollar" unicode="$" horiz-adv-x="1200" 
d="M1118 449q0 -170 -100 -277t-289 -141v-199h-233v186q-218 9 -400 99v264q195 -117 426 -127v358l-57 13q-197 44 -286 133.5t-89 242.5q0 167 106.5 272.5t299.5 131.5v192h233v-190q182 -16 307 -84v-244q-160 82 -331 97v-347l49 -12q203 -53 283.5 -134.5
t80.5 -233.5zM383 1022q0 -50 31.5 -81.5t107.5 -59.5v290q-72 -13 -105.5 -49.5t-33.5 -99.5zM705 270q120 37 120 156q0 48 -28 81.5t-92 57.5v-295z" />
    <glyph glyph-name="percent" unicode="%" horiz-adv-x="1994" 
d="M471 643q-169 0 -269 110t-100 296t100 295.5t269 109.5t269 -109.5t100 -295.5t-100 -296t-269 -110zM367 0l991 1430h270l-991 -1430h-270zM471 819q55 0 85 60t30 170t-30 169.5t-85 59.5t-85 -59.5t-30 -169.5t30 -170t85 -60zM1524 -25q-169 0 -269 110t-100 296
t100 295.5t269 109.5t268.5 -109.5t99.5 -295.5t-99.5 -296t-268.5 -110zM1524 152q55 0 84.5 59t29.5 170t-29.5 170t-84.5 59t-85 -59.5t-30 -169.5t30 -169.5t85 -59.5z" />
    <glyph glyph-name="ampersand" unicode="&#x26;" horiz-adv-x="1476" 
d="M1470 0h-366l-92 98q-180 -123 -412 -123q-220 0 -359 110.5t-139 283.5q0 237 287 403q-86 98 -123 177t-37 163q0 158 114 250t310 92q191 0 303.5 -86.5t112.5 -232.5q0 -218 -285 -392l254 -274q74 126 101 319h250q-37 -298 -185 -499zM649 1223q-60 0 -95.5 -32
t-35.5 -87q0 -41 22 -79.5t95 -119.5q78 47 111.5 92.5t33.5 102.5q0 58 -34.5 90.5t-96.5 32.5zM633 227q121 0 215 49l-307 334q-129 -81 -129 -207q0 -176 221 -176z" />
    <glyph glyph-name="quotesingle" unicode="'" horiz-adv-x="565" 
d="M168 942l-21 408v166h271v-166l-21 -408h-229z" />
    <glyph glyph-name="parenleft" unicode="(" horiz-adv-x="696" 
d="M471 -281q-180 133 -284.5 380.5t-104.5 537.5q0 282 104.5 529.5t284.5 389.5h266q-170 -160 -269 -407.5t-99 -511.5q0 -269 99 -516t269 -402h-266z" />
    <glyph glyph-name="parenright" unicode=")" horiz-adv-x="696" 
d="M-41 -281q170 155 269.5 402.5t99.5 515.5q0 264 -99.5 511.5t-269.5 407.5h266q180 -142 284.5 -389.5t104.5 -529.5q0 -290 -104.5 -537.5t-284.5 -380.5h-266z" />
    <glyph glyph-name="asterisk" unicode="*" horiz-adv-x="1228" 
d="M401 494l-211 147l68 94l193 211l-258 64l-111 39l82 231l110 -37l240 -113l-35 287v119h271v-119l-35 -287l239 113l111 37l82 -231l-111 -39l-258 -64l193 -211l67 -94l-211 -147l-65 96l-148 246l-147 -246z" />
    <glyph glyph-name="plus" unicode="+" horiz-adv-x="1228" 
d="M483 129v377h-346v242h346v376h262v-376h347v-242h-347v-377h-262z" />
    <glyph glyph-name="comma" unicode="," horiz-adv-x="634" 
d="M319 324q82 0 125 -48t43 -137q0 -100 -54 -210.5t-154 -213.5h-193q159 125 231 269q-79 -3 -124.5 41.5t-45.5 126.5q0 79 47 125.5t125 46.5z" />
    <glyph glyph-name="hyphen" unicode="-" horiz-adv-x="839" 
d="M113 485v279h614v-279h-614z" />
    <glyph glyph-name="period" unicode="." horiz-adv-x="634" 
d="M317 -25q-78 0 -124 47.5t-46 127.5t46 127t124 47t124 -47t46 -127t-46 -127.5t-124 -47.5z" />
    <glyph glyph-name="slash" unicode="/" horiz-adv-x="942" 
d="M6 -309l610 1825h250l-610 -1825h-250z" />
    <glyph glyph-name="zero" unicode="0" horiz-adv-x="1228" 
d="M614 -25q-252 0 -401.5 200.5t-149.5 539.5t149.5 539t401.5 200t401.5 -200t149.5 -539t-149.5 -539.5t-401.5 -200.5zM614 238q109 0 168.5 123.5t59.5 353.5t-59.5 353.5t-168.5 123.5t-168 -123.5t-59 -353.5t59 -353.5t168 -123.5z" />
    <glyph glyph-name="one" unicode="1" horiz-adv-x="1228" 
d="M193 0v254h385v881h-7l-403 -312v316l377 291h340v-1176h303v-254h-995z" />
    <glyph glyph-name="two" unicode="2" horiz-adv-x="1228" 
d="M117 0v233l456 457q102 102 142.5 171.5t40.5 142.5q0 188 -219 188q-104 0 -205.5 -39.5t-181.5 -110.5v279q97 63 215.5 98t236.5 35q224 0 350.5 -113t126.5 -313q0 -123 -64 -231t-227 -262l-290 -275v-6h630v-254h-1011z" />
    <glyph glyph-name="three" unicode="3" horiz-adv-x="1228" 
d="M567 -25q-254 0 -444 111v279q109 -72 202.5 -104t194.5 -32q121 0 191.5 52t70.5 141q0 190 -299 190h-110v246h98q134 0 210.5 52t76.5 143q0 147 -221 147q-209 0 -392 -115v279q197 90 420 90q237 0 374.5 -97.5t137.5 -266.5q0 -120 -73.5 -212.5t-198.5 -129.5v-9
q141 -23 221 -113t80 -225q0 -192 -148 -309t-391 -117z" />
    <glyph glyph-name="four" unicode="4" horiz-adv-x="1228" 
d="M684 0v274h-623v246l615 910h307v-918h180v-238h-180v-274h-299zM324 512h360v528h-6z" />
    <glyph glyph-name="five" unicode="5" horiz-adv-x="1228" 
d="M700 936q206 0 328.5 -125t122.5 -336q0 -228 -160 -364t-428 -136q-251 0 -436 111v279q198 -136 401 -136q146 0 222.5 60.5t76.5 177.5q0 104 -56 161.5t-159 57.5q-70 0 -126.5 -29t-112.5 -92h-234l51 865h895v-254h-651l-20 -328q122 88 286 88z" />
    <glyph glyph-name="six" unicode="6" horiz-adv-x="1228" 
d="M627 -25q-250 0 -395.5 152.5t-145.5 415.5q0 249 141.5 495t368.5 392h426q-275 -173 -415 -327.5t-199 -348.5l6 -2q60 84 149 128t197 44q184 0 293.5 -122t109.5 -325q0 -226 -146.5 -364t-389.5 -138zM627 217q104 0 160.5 61t56.5 173q0 114 -56 174.5t-161 60.5
t-161 -60.5t-56 -174.5q0 -112 56.5 -173t160.5 -61z" />
    <glyph glyph-name="seven" unicode="7" horiz-adv-x="1228" 
d="M350 0l481 1176h-425v-256h-279v510h1012v-222l-461 -1208h-328z" />
    <glyph glyph-name="eight" unicode="8" horiz-adv-x="1228" 
d="M614 -25q-244 0 -388 111t-144 299q0 134 78 225.5t223 126.5v8q-129 40 -196.5 124t-67.5 204q0 172 135.5 276.5t359.5 104.5t360 -104.5t136 -276.5q0 -120 -67.5 -204t-196.5 -124v-8q145 -35 223 -126.5t78 -225.5q0 -188 -144.5 -299t-388.5 -111zM614 840
q95 0 146 48.5t51 139.5t-51 140t-146 49t-145.5 -49t-50.5 -140t50.5 -139.5t145.5 -48.5zM614 217q101 0 155 52t54 149t-54 148.5t-155 51.5t-154.5 -51.5t-53.5 -148.5t53.5 -149t154.5 -52z" />
    <glyph glyph-name="nine" unicode="9" horiz-adv-x="1228" 
d="M186 0q255 154 417.5 329t209.5 347l-6 2q-123 -172 -338 -172q-184 0 -293.5 121t-109.5 325q0 228 146 365t390 137q250 0 395.5 -148t145.5 -403q0 -258 -129 -488t-377 -415h-451zM602 743q104 0 160.5 61t56.5 175q0 112 -56.5 172.5t-160.5 60.5t-160.5 -60.5
t-56.5 -172.5q0 -114 56.5 -175t160.5 -61z" />
    <glyph glyph-name="colon" unicode=":" horiz-adv-x="655" 
d="M328 752q-78 0 -124 47t-46 127t46 127t124 47t124 -47t46 -127t-46 -127t-124 -47zM328 -25q-78 0 -124 47.5t-46 127.5t46 127t124 47t124 -47t46 -127t-46 -127.5t-124 -47.5z" />
    <glyph glyph-name="semicolon" unicode=";" horiz-adv-x="655" 
d="M328 752q-78 0 -124 47t-46 127t46 127t124 47t124 -47t46 -127t-46 -127t-124 -47zM330 324q82 0 125 -48t43 -137q0 -100 -54.5 -210.5t-154.5 -213.5h-193q160 126 232 269q-79 -3 -124.5 41.5t-45.5 126.5q0 79 47 125.5t125 46.5z" />
    <glyph glyph-name="less" unicode="&#x3c;" horiz-adv-x="1228" 
d="M1018 -4l-807 534v179l807 528v-305l-488 -307v-15l488 -307v-307z" />
    <glyph glyph-name="equal" unicode="=" horiz-adv-x="1228" 
d="M137 741v242h955v-242h-955zM137 266v242h955v-242h-955z" />
    <glyph glyph-name="greater" unicode="&#x3e;" horiz-adv-x="1228" 
d="M211 -4v307l487 307v15l-487 307v305l807 -528v-179z" />
    <glyph glyph-name="question" unicode="?" horiz-adv-x="1003" 
d="M332 438v33q0 122 34.5 211.5t110.5 165.5q81 81 109 125t28 90q0 129 -149 129q-83 0 -177.5 -35.5t-172.5 -95.5v287q76 49 187 77.5t226 28.5q197 0 303.5 -90.5t106.5 -259.5q0 -88 -35 -156.5t-145 -197.5q-69 -79 -98 -143t-29 -136v-33h-299zM481 -25
q-78 0 -124 47.5t-46 127.5t46 127t124 47t124 -47t46 -127t-46 -127.5t-124 -47.5z" />
    <glyph glyph-name="at" unicode="@" horiz-adv-x="1857" 
d="M936 -248q-390 0 -600.5 219t-210.5 625q0 260 100 453.5t286 298t435 104.5q361 0 574 -207t213 -559q0 -237 -104 -377.5t-279 -140.5q-110 0 -182 53t-78 139h-7q-22 -92 -81.5 -140t-151.5 -48q-146 0 -232 114.5t-86 309.5q0 193 84 308.5t224 115.5q83 0 143 -43
t80 -117h6v141h227v-550q0 -47 24.5 -75t65.5 -28q73 0 114.5 89t41.5 247q0 284 -154.5 437t-441.5 153q-304 0 -467.5 -175.5t-163.5 -502.5q0 -320 161 -492t460 -172q225 0 440 82v-180q-219 -82 -440 -82zM928 358q66 0 103.5 65.5t37.5 180.5q0 230 -141 230
q-77 0 -117.5 -60.5t-40.5 -177.5t40.5 -177.5t117.5 -60.5z" />
    <glyph glyph-name="A" unicode="A" horiz-adv-x="1351" 
d="M989 0l-96 322h-442l-95 -322h-315l471 1430h319l480 -1430h-322zM528 584h285l-141 469h-6z" />
    <glyph glyph-name="B" unicode="B" horiz-adv-x="1325" 
d="M158 0v1430h604q196 0 312 -96t116 -257q0 -116 -67.5 -205.5t-182.5 -126.5v-6q138 -28 220.5 -125t82.5 -233q0 -175 -126.5 -278t-340.5 -103h-618zM469 844h225q82 0 128 44.5t46 123.5q0 155 -186 155h-213v-323zM469 262h256q92 0 143.5 44.5t51.5 123.5
q0 78 -53 119t-154 41h-244v-328z" />
    <glyph glyph-name="C" unicode="C" horiz-adv-x="1273" 
d="M793 -25q-317 0 -504 200t-187 540q0 339 187 539t504 200q249 0 399 -119v-299q-74 66 -170.5 103t-196.5 37q-185 0 -294 -124.5t-109 -336.5t109 -336.5t294 -124.5q100 0 197 36.5t170 102.5v-299q-150 -119 -399 -119z" />
    <glyph glyph-name="D" unicode="D" horiz-adv-x="1386" 
d="M158 0v1430h504q285 0 453.5 -194t168.5 -521t-168.5 -521t-453.5 -194h-504zM469 274h149q167 0 257 114.5t90 326.5q0 213 -89.5 326.5t-257.5 113.5h-149v-881z" />
    <glyph glyph-name="E" unicode="E" horiz-adv-x="1196" 
d="M158 0v1430h913v-275h-602v-295h520v-270h-520v-316h614v-274h-925z" />
    <glyph glyph-name="F" unicode="F" horiz-adv-x="1155" 
d="M158 0v1430h905v-275h-594v-315h500v-271h-500v-569h-311z" />
    <glyph glyph-name="G" unicode="G" horiz-adv-x="1435" 
d="M770 -25q-312 0 -490 197t-178 541q0 340 194.5 540.5t524.5 200.5q227 0 391 -96v-295q-180 113 -358 113q-209 0 -320.5 -119.5t-111.5 -343.5q0 -226 92 -346.5t264 -120.5q148 0 219 47v266h-266v258h563v-663q-92 -86 -228 -132.5t-296 -46.5z" />
    <glyph glyph-name="H" unicode="H" horiz-adv-x="1421" 
d="M158 0v1430h311v-570h483v570h312v-1430h-312v586h-483v-586h-311z" />
    <glyph glyph-name="I" unicode="I" horiz-adv-x="884" 
d="M102 0v254h185v922h-185v254h680v-254h-184v-922h184v-254h-680z" />
    <glyph glyph-name="J" unicode="J" horiz-adv-x="1064" 
d="M463 -20q-210 0 -391 108v295q155 -125 311 -125q109 0 165 63.5t56 186.5v663h-303v259h614v-1008q0 -210 -118.5 -326t-333.5 -116z" />
    <glyph glyph-name="K" unicode="K" horiz-adv-x="1384" 
d="M158 0v1430h307v-625h12l504 625h358l-477 -566l498 -864h-356l-355 629l-184 -232v-397h-307z" />
    <glyph glyph-name="L" unicode="L" horiz-adv-x="1085" 
d="M158 0v1430h311v-1156h545v-274h-856z" />
    <glyph glyph-name="M" unicode="M" horiz-adv-x="1652" 
d="M158 0v1430h291l374 -691h6l375 691h291v-1430h-301v891h-6l-268 -535h-187l-268 535h-6v-891h-301z" />
    <glyph glyph-name="N" unicode="N" horiz-adv-x="1441" 
d="M158 0v1430h260l567 -850h6v850h293v-1430h-260l-567 850h-6v-850h-293z" />
    <glyph glyph-name="O" unicode="O" horiz-adv-x="1462" 
d="M731 -25q-289 0 -459 201t-170 541q0 338 170 537.5t459 199.5t459 -199.5t170 -537.5q0 -340 -170 -541t-459 -201zM731 250q149 0 229 121t80 346q0 223 -80 343t-229 120t-229 -120t-80 -343q0 -225 80 -346t229 -121z" />
    <glyph glyph-name="P" unicode="P" horiz-adv-x="1302" 
d="M158 0v1430h557q235 0 373.5 -124t138.5 -333t-138.5 -333t-373.5 -124h-246v-516h-311zM469 786h229q100 0 153.5 49t53.5 138t-53.5 137.5t-153.5 48.5h-229v-373z" />
    <glyph glyph-name="Q" unicode="Q" horiz-adv-x="1462" 
d="M1360 717q0 -254 -98 -434t-273 -256q92 -173 275 -363h-371q-102 120 -211 313q-267 17 -423.5 216.5t-156.5 523.5q0 338 170 537.5t459 199.5t459 -199.5t170 -537.5zM422 717q0 -225 80 -346t229 -121t229 121t80 346q0 223 -80 343t-229 120t-229 -120t-80 -343z
" />
    <glyph glyph-name="R" unicode="R" horiz-adv-x="1359" 
d="M1288 0h-346q-142 205 -276 532h-197v-532h-311v1430h577q235 0 373.5 -124t138.5 -333q0 -144 -72.5 -248t-203.5 -154q106 -249 317 -571zM469 1159v-373h250q100 0 153.5 49t53.5 138t-53.5 137.5t-153.5 48.5h-250z" />
    <glyph glyph-name="S" unicode="S" horiz-adv-x="1226" 
d="M565 -25q-254 0 -454 107v301q103 -63 223.5 -98t234.5 -35q121 0 184.5 41t63.5 119q0 60 -40 92.5t-146 58.5l-154 37q-189 46 -281 149.5t-92 270.5q0 206 140.5 321t390.5 115q246 0 412 -94v-281q-84 49 -192 77t-210 28q-229 0 -229 -144q0 -61 42 -93t167 -64
l141 -37q192 -50 277 -147t85 -267q0 -220 -146.5 -338.5t-416.5 -118.5z" />
    <glyph glyph-name="T" unicode="T" horiz-adv-x="1175" 
d="M432 0v1155h-377v275h1065v-275h-377v-1155h-311z" />
    <glyph glyph-name="U" unicode="U" horiz-adv-x="1409" 
d="M705 -25q-252 0 -405 159.5t-153 422.5v873h312v-893q0 -135 64.5 -209t181.5 -74t181 74t64 209v893h312v-873q0 -263 -152.5 -422.5t-404.5 -159.5z" />
    <glyph glyph-name="V" unicode="V" horiz-adv-x="1310" 
d="M500 0l-471 1430h321l309 -1053h7l301 1053h315l-463 -1430h-319z" />
    <glyph glyph-name="W" unicode="W" horiz-adv-x="1992" 
d="M403 0l-344 1430h308l227 -959h6l252 959h299l252 -959h6l227 959h308l-345 -1430h-323l-270 1010h-9l-270 -1010h-324z" />
    <glyph glyph-name="X" unicode="X" horiz-adv-x="1337" 
d="M33 0l438 739l-416 691h363l258 -484h6l262 484h336l-420 -697l445 -733h-361l-289 526h-6l-280 -526h-336z" />
    <glyph glyph-name="Y" unicode="Y" horiz-adv-x="1288" 
d="M487 0v559l-469 871h349l286 -570h4l275 570h338l-471 -869v-561h-312z" />
    <glyph glyph-name="Z" unicode="Z" horiz-adv-x="1202" 
d="M80 0v225l622 930h-587v275h991v-226l-625 -930h641v-274h-1042z" />
    <glyph glyph-name="bracketleft" unicode="[" horiz-adv-x="702" 
d="M158 -283v1839h442v-221h-164v-1396h164v-222h-442z" />
    <glyph glyph-name="backslash" unicode="\" horiz-adv-x="942" 
d="M686 -309l-610 1825h250l610 -1825h-250z" />
    <glyph glyph-name="bracketright" unicode="]" horiz-adv-x="702" 
d="M102 -283v222h164v1396h-164v221h443v-1839h-443z" />
    <glyph glyph-name="asciicircum" unicode="^" horiz-adv-x="1228" 
d="M86 684l430 746h203l424 -746h-305l-224 395h-12l-223 -395h-293z" />
    <glyph glyph-name="underscore" unicode="_" horiz-adv-x="1138" 
d="M61 -369v234h1016v-234h-1016z" />
    <glyph glyph-name="grave" unicode="`" horiz-adv-x="731" 
d="M362 1204l-301 395h324l203 -395h-226z" />
    <glyph glyph-name="a" unicode="a" horiz-adv-x="1140" 
d="M379 -25q-138 0 -221.5 81t-83.5 214q0 138 96.5 224t316.5 145q116 31 154.5 57.5t38.5 75.5q0 90 -174 90q-156 0 -342 -100v248q78 41 187.5 65.5t215.5 24.5q211 0 311.5 -88t100.5 -273v-420q0 -55 15.5 -78.5t52.5 -23.5q20 0 38 6v-223q-55 -14 -131 -14
q-97 0 -158.5 48.5t-80.5 137.5h-4q-41 -91 -130.5 -144t-201.5 -53zM500 186q85 0 130.5 56.5t45.5 160.5v97q-124 -37 -158 -49q-77 -26 -109 -60.5t-32 -91.5q0 -54 32 -83.5t91 -29.5z" />
    <glyph glyph-name="b" unicode="b" horiz-adv-x="1249" 
d="M772 -25q-216 0 -321 197h-7v-172h-303v1516h303v-611h7q92 195 315 195q183 0 290 -149.5t107 -405.5q0 -264 -105 -417t-286 -153zM651 213q94 0 148.5 87.5t54.5 238.5t-54 237t-149 86q-97 0 -152 -86t-55 -237q0 -152 55 -239t152 -87z" />
    <glyph glyph-name="c" unicode="c" horiz-adv-x="962" 
d="M606 -25q-251 0 -391.5 144.5t-140.5 402.5q0 264 143.5 421t386.5 157q75 0 153 -17t132 -45v-243q-113 65 -242 65q-126 0 -198 -88.5t-72 -243.5q0 -152 70.5 -232.5t203.5 -80.5q68 0 123 15t125 53v-236q-132 -72 -293 -72z" />
    <glyph glyph-name="d" unicode="d" horiz-adv-x="1249" 
d="M477 -25q-181 0 -286 153t-105 417q0 256 107 405.5t290 149.5q108 0 185 -47.5t131 -147.5h6v611h303v-1516h-303v172h-6q-113 -197 -322 -197zM598 213q97 0 152 87t55 239q0 151 -55 237t-152 86q-95 0 -149 -86t-54 -237t54.5 -238.5t148.5 -87.5z" />
    <glyph glyph-name="e" unicode="e" horiz-adv-x="1126" 
d="M1036 553q0 -43 -6 -90h-643q9 -120 78.5 -184t193.5 -64q162 0 306 98v-256q-158 -82 -342 -82q-261 0 -405 148.5t-144 415.5q0 261 131.5 411t361.5 150q217 0 343 -147t126 -400zM389 641h356q0 236 -172 236q-83 0 -130.5 -60.5t-53.5 -175.5z" />
    <glyph glyph-name="f" unicode="f" horiz-adv-x="739" 
d="M195 0v840h-152v235h152v119q0 334 321 334q87 0 197 -29v-223q-60 16 -121 16q-94 0 -94 -123v-94h215v-235h-215v-840h-303z" />
    <glyph glyph-name="g" unicode="g" horiz-adv-x="1130" 
d="M680 229q221 0 340 -77t119 -220q0 -175 -145 -270.5t-412 -95.5q-248 0 -389.5 72t-141.5 198q0 75 53.5 127t143.5 62v6q-72 17 -114 69t-42 123q0 74 58.5 133t146.5 72v8q-199 90 -199 301q0 164 126 263.5t335 99.5q61 0 123 -10q34 94 104 147t162 53q59 0 131 -28
v-236q-63 29 -133 29q-50 0 -98 -23q83 -48 127.5 -123.5t44.5 -171.5q0 -161 -114 -258.5t-302 -97.5q-66 0 -145 18q-45 -29 -45 -77q0 -93 225 -93h41zM559 899q-80 0 -129 -45.5t-49 -118.5q0 -70 49 -112.5t129 -42.5t129 42.5t49 112.5q0 73 -49 118.5t-129 45.5z
M590 -236q128 0 196 31.5t68 89.5q0 47 -51.5 69.5t-161.5 22.5q-130 0 -231 23q-66 -35 -66 -109q0 -57 68.5 -92t177.5 -35z" />
    <glyph glyph-name="h" unicode="h" horiz-adv-x="1220" 
d="M141 0v1516h303v-590h7q97 174 299 174q163 0 252.5 -102.5t89.5 -288.5v-709h-304v629q0 207 -167 207q-81 0 -129 -52.5t-48 -140.5v-643h-303z" />
    <glyph glyph-name="i" unicode="i" horiz-adv-x="585" 
d="M293 1186q-75 0 -125.5 50t-50.5 124t50.5 124t125.5 50t125.5 -50t50.5 -124t-50.5 -124t-125.5 -50zM141 0v1075h303v-1075h-303z" />
    <glyph glyph-name="j" unicode="j" horiz-adv-x="585" 
d="M293 1186q-75 0 -125.5 50t-50.5 124t50.5 124t125.5 50t125.5 -50t50.5 -124t-50.5 -124t-125.5 -50zM125 -416q-89 0 -156 15v258q23 -4 62 -4q57 0 83.5 30.5t26.5 96.5v1095h303v-1151q0 -175 -77.5 -257.5t-241.5 -82.5z" />
    <glyph glyph-name="k" unicode="k" horiz-adv-x="1181" 
d="M1174 0h-347l-247 438l-136 -147v-291h-303v1516h303v-867h9l358 426h356l-387 -420z" />
    <glyph glyph-name="l" unicode="l" horiz-adv-x="620" 
d="M432 -20q-160 0 -224.5 78t-64.5 270v1188h281v-1192q0 -46 22.5 -72.5t63.5 -26.5q36 0 70 6v-239q-46 -12 -148 -12z" />
    <glyph glyph-name="m" unicode="m" horiz-adv-x="1818" 
d="M141 0v1075h303v-149h7q100 174 305 174q213 0 291 -187h6q105 187 313 187q158 0 245 -102t87 -289v-709h-303v637q0 199 -156 199q-75 0 -119.5 -50t-44.5 -135v-651h-303v637q0 199 -160 199q-77 0 -122.5 -50t-45.5 -135v-651h-303z" />
    <glyph glyph-name="n" unicode="n" horiz-adv-x="1220" 
d="M141 0v1075h303v-149h7q97 174 299 174q163 0 252.5 -102.5t89.5 -288.5v-709h-304v629q0 207 -167 207q-81 0 -129 -52.5t-48 -140.5v-643h-303z" />
    <glyph glyph-name="o" unicode="o" horiz-adv-x="1155" 
d="M578 -25q-229 0 -366.5 154.5t-137.5 409.5t137.5 408t366.5 153t366 -153t137 -408t-137.5 -409.5t-365.5 -154.5zM578 215q92 0 140 83t48 241q0 157 -48 239t-140 82t-140.5 -82t-48.5 -239q0 -158 48.5 -241t140.5 -83z" />
    <glyph glyph-name="p" unicode="p" horiz-adv-x="1249" 
d="M141 -410v1485h303v-168h7q84 193 313 193q184 0 291.5 -155t107.5 -419q0 -253 -109.5 -402t-295.5 -149q-206 0 -307 191h-7v-576h-303zM651 213q95 0 149 82.5t54 230.5q0 166 -51.5 251t-151.5 85q-101 0 -154 -85.5t-53 -250.5q0 -148 54.5 -230.5t152.5 -82.5z" />
    <glyph glyph-name="q" unicode="q" horiz-adv-x="1249" 
d="M805 -410v582h-6q-87 -197 -307 -197q-189 0 -297.5 150.5t-108.5 411.5q0 255 111.5 409t296.5 154q212 0 305 -197h6v172h303v-1485h-303zM598 213q100 0 153.5 84.5t53.5 239.5q0 157 -53.5 241t-153.5 84q-98 0 -150.5 -83.5t-52.5 -241.5q0 -157 52.5 -240.5
t150.5 -83.5z" />
    <glyph glyph-name="r" unicode="r" horiz-adv-x="827" 
d="M141 0v1075h303v-233h7q23 112 98 177.5t180 65.5q38 0 53 -10v-303q-12 2 -57 2q-281 0 -281 -309v-465h-303z" />
    <glyph glyph-name="s" unicode="s" horiz-adv-x="894" 
d="M424 -25q-82 0 -186 26.5t-187 66.5v268q203 -121 365 -121q67 0 105 23t38 63q0 34 -22.5 54.5t-79.5 37.5l-103 31q-164 49 -236.5 129.5t-72.5 212.5q0 157 107 245.5t297 88.5q222 0 354 -74v-256q-76 42 -165 66t-169 24q-60 0 -92.5 -19.5t-32.5 -56.5
q0 -32 29 -54.5t100 -45.5l82 -27q169 -56 238 -131t69 -204q0 -161 -117.5 -254t-320.5 -93z" />
    <glyph glyph-name="t" unicode="t" horiz-adv-x="784" 
d="M520 -20q-321 0 -321 333v527h-152v235h182v225l273 66v-291h213v-235h-213v-498q0 -125 94 -125q61 0 121 16v-225q-103 -28 -197 -28z" />
    <glyph glyph-name="u" unicode="u" horiz-adv-x="1220" 
d="M471 -25q-163 0 -252.5 103t-89.5 289v708h303v-629q0 -206 168 -206q81 0 128.5 52t47.5 140v643h303v-1075h-303v150h-6q-97 -175 -299 -175z" />
    <glyph glyph-name="v" unicode="v" horiz-adv-x="1101" 
d="M371 0l-353 1075h299l238 -823h8l234 823h286l-352 -1075h-360z" />
    <glyph glyph-name="w" unicode="w" horiz-adv-x="1705" 
d="M342 0l-303 1075h315l156 -817h8l184 817h310l186 -817h8l154 817h307l-297 -1075h-328l-180 776h-6l-194 -776h-320z" />
    <glyph glyph-name="x" unicode="x" horiz-adv-x="1138" 
d="M33 0l354 561l-350 514h344l201 -346h8l194 346h320l-356 -524l358 -551h-344l-205 354h-8l-201 -354h-315z" />
    <glyph glyph-name="y" unicode="y" horiz-adv-x="1095" 
d="M324 -426q-97 0 -181 23v231q67 -18 113 -18q57 0 93.5 27t56.5 85l16 49l-416 1104h316l239 -747h8l222 747h290l-405 -1220q-51 -154 -131 -217.5t-221 -63.5z" />
    <glyph glyph-name="z" unicode="z" horiz-adv-x="1060" 
d="M80 0v240l534 600h-516v235h869v-237l-537 -602h551v-236h-901z" />
    <glyph glyph-name="braceleft" unicode="{" horiz-adv-x="786" 
d="M690 -283q-247 -23 -343.5 58.5t-96.5 312.5v209q0 219 -201 240v200q201 21 201 240v209q0 231 96.5 312t343.5 58v-213q-88 12 -125 -23.5t-37 -133.5v-242q0 -128 -67 -209t-187 -98q120 -17 187 -98t67 -209v-242q0 -98 37 -134t125 -24v-213z" />
    <glyph glyph-name="bar" unicode="|" horiz-adv-x="823" 
d="M283 -283v1839h258v-1839h-258z" />
    <glyph glyph-name="braceright" unicode="}" horiz-adv-x="786" 
d="M96 -283v213q88 -12 125 24t37 134v242q0 128 67 209t187 98q-120 17 -187 98t-67 209v242q0 98 -37 133.5t-125 23.5v213q247 23 344 -58.5t97 -311.5v-209q0 -219 200 -240v-200q-200 -21 -200 -240v-209q0 -231 -97 -312.5t-344 -58.5z" />
    <glyph glyph-name="asciitilde" unicode="~" horiz-adv-x="1241" 
d="M135 459q3 164 75 250t206 86q104 0 258 -56q100 -37 145 -37q98 0 113 93h174q-3 -166 -74.5 -251t-206.5 -85q-94 0 -254 59q-111 41 -147 41q-52 0 -79 -23.5t-36 -76.5h-174z" />
    <glyph glyph-name="uni00A0" unicode="&#xa0;" horiz-adv-x="573" 
 />
    <glyph glyph-name="exclamdown" unicode="&#xa1;" horiz-adv-x="655" 
d="M328 752q-78 0 -124 47t-46 127t46 127t124 47t124 -47t46 -127t-46 -127t-124 -47zM170 -354v204l70 775h176l69 -775v-204h-315z" />
    <glyph glyph-name="cent" unicode="&#xa2;" horiz-adv-x="989" 
d="M920 262v-215q-76 -44 -179 -63v-217h-225v217q-200 31 -311 172.5t-111 369.5q0 220 113.5 365.5t308.5 179.5v219h225v-221q99 -16 168 -51v-223q-92 51 -186 63v-659q93 8 197 63zM381 528q0 -254 156 -315v625q-156 -64 -156 -310z" />
    <glyph glyph-name="sterling" unicode="&#xa3;" horiz-adv-x="1163" 
d="M485 262h650v-262h-1000v238q78 35 124 109t46 165q0 39 -10 84h-225v246h135q-37 109 -37 192q0 190 140.5 305t377.5 115q243 0 393 -119v-288q-80 71 -177.5 105t-190.5 34q-230 0 -230 -209q0 -64 29 -135h401v-246h-305q2 -16 2 -49q0 -171 -123 -279v-6z" />
    <glyph glyph-name="currency" unicode="&#xa4;" horiz-adv-x="1261" 
d="M1120 741q0 -148 -63 -262l184 -184l-166 -164l-184 186q-112 -59 -260 -59t-260 59l-185 -186l-166 164l185 184q-64 116 -64 262q0 147 64 263l-185 184l166 164l185 -187q114 60 260 60t260 -60l184 187l166 -152l-184 -196q63 -111 63 -263zM631 465q95 0 146.5 71.5
t51.5 204.5t-51.5 205t-146.5 72t-147 -72t-52 -205t52 -204.5t147 -71.5z" />
    <glyph glyph-name="yen" unicode="&#xa5;" horiz-adv-x="1331" 
d="M504 0v252h-344v184h344v160h-344v184h225l-346 650h352l283 -564h4l280 564h334l-356 -650h225v-184h-344v-160h344v-184h-344v-252h-313z" />
    <glyph glyph-name="brokenbar" unicode="&#xa6;" horiz-adv-x="823" 
d="M283 821v735h258v-735h-258zM283 -283v736h258v-736h-258z" />
    <glyph glyph-name="section" unicode="&#xa7;" horiz-adv-x="1165" 
d="M834 319q165 -106 165 -292q0 -163 -121 -260t-323 -97q-106 0 -210 22t-179 60v244q75 -51 181.5 -81t209.5 -30q88 0 138 34.5t50 94.5q0 54 -40 87t-138 59l-157 43q-308 83 -308 313q0 103 58.5 182.5t165.5 124.5q-162 104 -162 285q0 160 119 253t323 93
q198 0 328 -68v-229q-67 37 -157 59.5t-177 22.5q-88 0 -135 -31.5t-47 -89.5q0 -51 39.5 -82t138.5 -57l158 -43q152 -41 230.5 -121t78.5 -194q0 -101 -60.5 -180t-168.5 -122zM516 432l129 -35q166 30 166 150q0 113 -164 160l-143 38q-152 -36 -152 -147
q0 -62 40 -102.5t124 -63.5z" />
    <glyph glyph-name="dieresis" unicode="&#xa8;" horiz-adv-x="962" 
d="M256 1241q-66 0 -110 41t-44 102q0 62 44 103t110 41t110 -41t44 -103q0 -61 -44 -102t-110 -41zM707 1241q-66 0 -110 41t-44 102q0 62 44 103t110 41t109.5 -41t43.5 -103t-43.5 -102.5t-109.5 -40.5z" />
    <glyph glyph-name="copyright" unicode="&#xa9;" horiz-adv-x="1622" 
d="M811 -25q-327 0 -520 200t-193 540t193 539.5t520 199.5t520 -199.5t193 -539.5t-193 -540t-520 -200zM811 106q258 0 409.5 164.5t151.5 444.5t-151.5 444t-409.5 164t-409.5 -164t-151.5 -444t151.5 -444.5t409.5 -164.5zM850 283q-203 0 -322.5 117t-119.5 315
t119.5 315t320.5 117q140 0 239 -47v-213q-91 51 -204 51q-100 0 -153.5 -58t-53.5 -165t55 -165t156 -58q54 0 99.5 11t109.5 40v-205q-107 -55 -246 -55z" />
    <glyph glyph-name="ordfeminine" unicode="&#xaa;" horiz-adv-x="919" 
d="M317 664q-100 0 -161.5 55.5t-61.5 146.5q0 97 71.5 157t229.5 97q84 20 113 39.5t29 54.5q0 72 -127 72q-100 0 -250 -69v163q137 62 293 62q152 0 224.5 -61t72.5 -189v-291q0 -40 11.5 -56t39.5 -16q8 0 28 5v-154q-34 -10 -96 -10q-69 0 -115 34t-59 95h-2
q-31 -63 -94.5 -99t-145.5 -36zM406 803q59 0 95 42.5t36 112.5v72q-89 -27 -111 -33q-125 -30 -125 -108q0 -38 29.5 -62t75.5 -24z" />
    <glyph glyph-name="guillemotleft" unicode="&#xab;" horiz-adv-x="1142" 
d="M547 66l-469 403v176l469 404v-224l-225 -268l225 -268v-223zM1040 66l-469 403v176l469 404v-224l-225 -268l225 -268v-223z" />
    <glyph glyph-name="logicalnot" unicode="&#xac;" horiz-adv-x="1228" 
d="M844 160v346h-738v242h986v-588h-248z" />
    <glyph glyph-name="uni00AD" unicode="&#xad;" horiz-adv-x="839" 
d="M113 485v279h614v-279h-614z" />
    <glyph glyph-name="registered" unicode="&#xae;" horiz-adv-x="950" 
d="M475 1454q190 0 302 -114t112 -308t-112 -308t-302 -114t-302 114t-112 308t112 308t302 114zM475 698q138 0 220.5 90.5t82.5 243.5t-82.5 243.5t-220.5 90.5t-220.5 -90.5t-82.5 -243.5t82.5 -243.5t220.5 -90.5zM670 1104q0 -96 -74 -139l86 -146h-141l-66 125h-47
v-125h-131v428h209q75 0 119.5 -38.5t44.5 -104.5zM428 1149v-109h45q31 0 47.5 15t16.5 41q0 53 -64 53h-45z" />
    <glyph glyph-name="macron" unicode="&#xaf;" horiz-adv-x="831" 
d="M102 1266v204h627v-204h-627z" />
    <glyph glyph-name="degree" unicode="&#xb0;" horiz-adv-x="962" 
d="M481 684q-173 0 -276 104t-103 281t103 281t276 104t276 -104t103 -281t-103 -281t-276 -104zM481 879q78 0 125 51.5t47 138.5t-47 139t-125 52t-125 -52t-47 -139t47 -138.5t125 -51.5z" />
    <glyph glyph-name="plusminus" unicode="&#xb1;" horiz-adv-x="1228" 
d="M483 377v342h-346v244h346v337h262v-337h347v-244h-347v-342h-262zM137 0v244h955v-244h-955z" />
    <glyph glyph-name="uni00B2" unicode="&#xb2;" horiz-adv-x="825" 
d="M117 680v143l274 224q109 87 109 157q0 86 -131 86q-132 0 -232 -78v168q112 70 275 70q141 0 222 -59t81 -162q0 -143 -174 -266l-174 -125v-2h358v-156h-608z" />
    <glyph glyph-name="uni00B3" unicode="&#xb3;" horiz-adv-x="835" 
d="M389 668q-149 0 -266 57v168q126 -72 237 -72q66 0 102 21t36 61q0 43 -41.5 66.5t-116.5 23.5h-68v152h60q70 0 110.5 23t40.5 63q0 65 -112 65q-118 0 -234 -61v168q112 47 246 47q142 0 227.5 -52.5t85.5 -140.5q0 -63 -44.5 -112.5t-119.5 -69.5v-4q85 -12 133 -60
t48 -120q0 -100 -89 -161.5t-235 -61.5z" />
    <glyph glyph-name="acute" unicode="&#xb4;" horiz-adv-x="731" 
d="M207 1204l203 395h323l-301 -395h-225z" />
    <glyph glyph-name="uni00B5" unicode="&#xb5;" horiz-adv-x="1232" 
d="M141 -410v1485h303v-629q0 -206 168 -206q81 0 128.5 52t47.5 140v643h304v-1075h-304v180h-6q-63 -200 -241 -200q-49 0 -90 14h-7v-404h-303z" />
    <glyph glyph-name="paragraph" unicode="&#xb6;" horiz-adv-x="1386" 
d="M496 -305v837q-198 0 -315.5 122t-117.5 327t117.5 327t315.5 122h782v-218h-135v-1517h-223v1517h-201v-1517h-223z" />
    <glyph glyph-name="periodcentered" unicode="&#xb7;" horiz-adv-x="716" 
d="M358 451q-78 0 -124 47t-46 127t46 127t124 47t124 -47t46 -127t-46 -127t-124 -47z" />
    <glyph glyph-name="cedilla" unicode="&#xb8;" horiz-adv-x="729" 
d="M365 -455q-131 0 -230 58v155q98 -67 203 -67q46 0 71 16t25 45q0 51 -53 51q-23 0 -55 -14h-101l45 252h138l-35 -152h6q42 25 94 25q72 0 116 -43t44 -115q0 -92 -75.5 -151.5t-192.5 -59.5z" />
    <glyph glyph-name="uni00B9" unicode="&#xb9;" horiz-adv-x="821" 
d="M182 672v155h232v426h-4l-242 -166v189l227 154h223v-603h162v-155h-598z" />
    <glyph glyph-name="ordmasculine" unicode="&#xba;" horiz-adv-x="888" 
d="M444 664q-167 0 -266.5 105.5t-99.5 283.5t99.5 283.5t266.5 105.5q168 0 267.5 -105.5t99.5 -283.5t-99.5 -283.5t-267.5 -105.5zM444 823q71 0 109.5 60t38.5 170t-38.5 169.5t-109.5 59.5t-109 -59.5t-38 -169.5t38.5 -170t108.5 -60z" />
    <glyph glyph-name="guillemotright" unicode="&#xbb;" horiz-adv-x="1142" 
d="M102 66v223l226 268l-226 268v224l469 -404v-176zM596 66v223l225 268l-225 268v224l469 -404v-176z" />
    <glyph glyph-name="onequarter" unicode="&#xbc;" horiz-adv-x="1677" 
d="M66 672v155h231v426h-4l-242 -166v189l228 154h223v-603h162v-155h-598zM233 0l1084 1430h221l-1083 -1430h-222zM1348 0v145h-340v129l335 482h197v-486h98v-125h-98v-145h-192zM1171 270h177v260h-2z" />
    <glyph glyph-name="onehalf" unicode="&#xbd;" horiz-adv-x="1759" 
d="M66 672v155h231v426h-4l-242 -166v189l228 154h223v-603h162v-155h-598zM233 0l1084 1430h221l-1083 -1430h-222zM1100 0v143l274 224q109 87 109 157q0 86 -131 86q-132 0 -232 -78v168q112 70 275 70q141 0 222 -59t81 -162q0 -143 -174 -266l-174 -125v-2h358v-156
h-608z" />
    <glyph glyph-name="threequarters" unicode="&#xbe;" horiz-adv-x="1611" 
d="M274 668q-149 0 -266 57v168q126 -72 238 -72q66 0 101.5 21t35.5 61q0 43 -41.5 66.5t-116.5 23.5h-67v152h59q70 0 111 23t41 63q0 65 -113 65q-117 0 -233 -61v168q112 47 245 47q143 0 228.5 -52.5t85.5 -140.5q0 -63 -44.5 -112.5t-119.5 -69.5v-4q85 -12 132.5 -60
t47.5 -120q0 -100 -89 -161.5t-235 -61.5zM168 0l1083 1430h222l-1084 -1430h-221zM1282 0v145h-340v129l336 482h197v-486h98v-125h-98v-145h-193zM1106 270h176v260h-2z" />
    <glyph glyph-name="questiondown" unicode="&#xbf;" horiz-adv-x="1003" 
d="M522 752q-78 0 -124 47t-46 127t46 127t124 47t124 -47t46 -127t-46 -127t-124 -47zM475 -379q-197 0 -303 90.5t-106 259.5q0 87 34.5 160t120.5 168t119 161.5t33 143.5v33h299v-33q0 -130 -42.5 -225t-142.5 -191q-56 -54 -77 -92t-21 -84q0 -129 150 -129
q83 0 177.5 35.5t172.5 95.5v-286q-76 -49 -188 -78t-226 -29z" />
    <glyph glyph-name="Agrave" unicode="&#xc0;" horiz-adv-x="1351" 
d="M838 1513h-226l-260 355h324zM989 0l-96 322h-442l-95 -322h-315l471 1430h319l480 -1430h-322zM528 584h285l-141 469h-6z" />
    <glyph glyph-name="Aacute" unicode="&#xc1;" horiz-adv-x="1351" 
d="M1024 1868l-260 -355h-225l161 355h324zM989 0l-96 322h-442l-95 -322h-315l471 1430h319l480 -1430h-322zM528 584h285l-141 469h-6z" />
    <glyph glyph-name="Acircumflex" unicode="&#xc2;" horiz-adv-x="1351" 
d="M676 1700l-248 -187h-227l348 375h254l348 -375h-227zM989 0l-96 322h-442l-95 -322h-315l471 1430h319l480 -1430h-322zM528 584h285l-141 469h-6z" />
    <glyph glyph-name="Atilde" unicode="&#xc3;" horiz-adv-x="1351" 
d="M514 1647q-42 0 -64.5 -22t-29.5 -71h-144q3 141 63 217t169 76q90 0 211 -51q81 -33 121 -33q80 0 92 84h143q-3 -143 -62 -218t-169 -75q-83 0 -209 56q-84 37 -121 37zM989 0l-96 322h-442l-95 -322h-315l471 1430h319l480 -1430h-322zM528 584h285l-141 469h-6z" />
    <glyph glyph-name="Adieresis" unicode="&#xc4;" horiz-adv-x="1351" 
d="M451 1571q-66 0 -110 41t-44 102q0 62 44 103t110 41t109.5 -41t43.5 -103t-43.5 -102.5t-109.5 -40.5zM901 1571q-66 0 -109.5 40.5t-43.5 102.5t43.5 103t109.5 41t110 -41t44 -103q0 -61 -44 -102t-110 -41zM989 0l-96 322h-442l-95 -322h-315l471 1430h319l480 -1430
h-322zM528 584h285l-141 469h-6z" />
    <glyph glyph-name="Aring" unicode="&#xc5;" horiz-adv-x="1351" 
d="M676 1481q-123 0 -205 76.5t-82 191.5t82 191.5t205 76.5t205 -76.5t82 -191.5t-82 -191.5t-205 -76.5zM676 1872q-44 0 -74.5 -35.5t-30.5 -87.5t30.5 -87.5t74.5 -35.5t74 35.5t30 87.5t-30 87.5t-74 35.5zM989 0l-96 322h-442l-95 -322h-315l471 1430h319l480 -1430
h-322zM528 584h285l-141 469h-6z" />
    <glyph glyph-name="AE" unicode="&#xc6;" horiz-adv-x="2099" 
d="M1372 274h615v-274h-926v322h-471l-217 -322h-353l984 1430h970v-275h-602v-295h520v-270h-520v-316zM766 584h295v428h-6z" />
    <glyph glyph-name="Ccedilla" unicode="&#xc7;" horiz-adv-x="1273" 
d="M825 1176q-185 0 -294 -124.5t-109 -336.5t109 -336.5t294 -124.5q100 0 197 36.5t170 102.5v-299q-147 -116 -385 -119l-21 -86h7q42 25 94 25q72 0 116 -43t44 -115q0 -92 -76 -151.5t-193 -59.5q-130 0 -229 58v155q98 -67 203 -67q46 0 71 16t25 45q0 51 -53 51
q-25 0 -56 -14h-100l35 195q-265 37 -418.5 231.5t-153.5 499.5q0 339 187 539t504 200q249 0 399 -119v-299q-74 66 -170.5 103t-196.5 37z" />
    <glyph glyph-name="Egrave" unicode="&#xc8;" horiz-adv-x="1196" 
d="M555 1513l-260 355h323l162 -355h-225zM158 0v1430h913v-275h-602v-295h520v-270h-520v-316h614v-274h-925z" />
    <glyph glyph-name="Eacute" unicode="&#xc9;" horiz-adv-x="1196" 
d="M481 1513l162 355h324l-260 -355h-226zM158 0v1430h913v-275h-602v-295h520v-270h-520v-316h614v-274h-925z" />
    <glyph glyph-name="Ecircumflex" unicode="&#xca;" horiz-adv-x="1196" 
d="M143 1513l349 375h253l349 -375h-228l-248 187l-247 -187h-228zM158 0v1430h913v-275h-602v-295h520v-270h-520v-316h614v-274h-925z" />
    <glyph glyph-name="Edieresis" unicode="&#xcb;" horiz-adv-x="1196" 
d="M393 1571q-66 0 -109.5 40.5t-43.5 102.5t43.5 103t109.5 41t110 -41t44 -103q0 -61 -44 -102t-110 -41zM844 1571q-66 0 -110 41t-44 102q0 62 44 103t110 41t109.5 -41t43.5 -103t-43.5 -102.5t-109.5 -40.5zM158 0v1430h913v-275h-602v-295h520v-270h-520v-316h614
v-274h-925z" />
    <glyph glyph-name="Igrave" unicode="&#xcc;" horiz-adv-x="884" 
d="M379 1513l-260 355h323l162 -355h-225zM102 0v254h185v922h-185v254h680v-254h-184v-922h184v-254h-680z" />
    <glyph glyph-name="Iacute" unicode="&#xcd;" horiz-adv-x="884" 
d="M305 1513l162 355h324l-261 -355h-225zM102 0v254h185v922h-185v254h680v-254h-184v-922h184v-254h-680z" />
    <glyph glyph-name="Icircumflex" unicode="&#xce;" horiz-adv-x="884" 
d="M-33 1513l348 375h254l349 -375h-228l-248 187l-247 -187h-228zM102 0v254h185v922h-185v254h680v-254h-184v-922h184v-254h-680z" />
    <glyph glyph-name="Idieresis" unicode="&#xcf;" horiz-adv-x="884" 
d="M217 1571q-66 0 -110 41t-44 102q0 62 44 103t110 41t110 -41t44 -103q0 -61 -44 -102t-110 -41zM668 1571q-66 0 -110 41t-44 102q0 62 44 103t110 41t109.5 -41t43.5 -103t-43.5 -102.5t-109.5 -40.5zM102 0v254h185v922h-185v254h680v-254h-184v-922h184v-254h-680z
" />
    <glyph glyph-name="Eth" unicode="&#xd0;" horiz-adv-x="1386" 
d="M662 1430q285 0 453.5 -194t168.5 -521t-168.5 -521t-453.5 -194h-504v608h-144v234h144v588h504zM618 274q167 0 257 114.5t90 326.5q0 213 -89.5 326.5t-257.5 113.5h-149v-313h254v-234h-254v-334h149z" />
    <glyph glyph-name="Ntilde" unicode="&#xd1;" horiz-adv-x="1441" 
d="M322 1554q3 141 62.5 217t168.5 76q90 0 211 -51q81 -33 121 -33q80 0 92 84h143q-3 -143 -62 -218t-169 -75q-83 0 -209 56q-84 37 -121 37q-42 0 -64.5 -22t-29.5 -71h-143zM158 0v1430h260l567 -850h6v850h293v-1430h-260l-567 850h-6v-850h-293z" />
    <glyph glyph-name="Ograve" unicode="&#xd2;" horiz-adv-x="1462" 
d="M668 1513l-260 355h323l162 -355h-225zM731 -25q-289 0 -459 201t-170 541q0 338 170 537.5t459 199.5t459 -199.5t170 -537.5q0 -340 -170 -541t-459 -201zM731 250q149 0 229 121t80 346q0 223 -80 343t-229 120t-229 -120t-80 -343q0 -225 80 -346t229 -121z" />
    <glyph glyph-name="Oacute" unicode="&#xd3;" horiz-adv-x="1462" 
d="M594 1513l162 355h323l-260 -355h-225zM731 -25q-289 0 -459 201t-170 541q0 338 170 537.5t459 199.5t459 -199.5t170 -537.5q0 -340 -170 -541t-459 -201zM731 250q149 0 229 121t80 346q0 223 -80 343t-229 120t-229 -120t-80 -343q0 -225 80 -346t229 -121z" />
    <glyph glyph-name="Ocircumflex" unicode="&#xd4;" horiz-adv-x="1462" 
d="M256 1513l348 375h254l348 -375h-227l-248 187l-248 -187h-227zM731 -25q-289 0 -459 201t-170 541q0 338 170 537.5t459 199.5t459 -199.5t170 -537.5q0 -340 -170 -541t-459 -201zM731 250q149 0 229 121t80 346q0 223 -80 343t-229 120t-229 -120t-80 -343
q0 -225 80 -346t229 -121z" />
    <glyph glyph-name="Otilde" unicode="&#xd5;" horiz-adv-x="1462" 
d="M332 1554q3 141 62.5 217t168.5 76q90 0 211 -51q81 -33 121 -33q80 0 92 84h143q-3 -143 -62 -218t-169 -75q-83 0 -209 56q-84 37 -121 37q-42 0 -64.5 -22t-29.5 -71h-143zM731 -25q-289 0 -459 201t-170 541q0 338 170 537.5t459 199.5t459 -199.5t170 -537.5
q0 -340 -170 -541t-459 -201zM731 250q149 0 229 121t80 346q0 223 -80 343t-229 120t-229 -120t-80 -343q0 -225 80 -346t229 -121z" />
    <glyph glyph-name="Odieresis" unicode="&#xd6;" horiz-adv-x="1462" 
d="M506 1571q-66 0 -110 41t-44 102q0 62 44 103t110 41t109.5 -41t43.5 -103t-43.5 -102.5t-109.5 -40.5zM956 1571q-66 0 -109.5 40.5t-43.5 102.5t43.5 103t109.5 41t110 -41t44 -103q0 -61 -44 -102t-110 -41zM731 -25q-289 0 -459 201t-170 541q0 338 170 537.5
t459 199.5t459 -199.5t170 -537.5q0 -340 -170 -541t-459 -201zM731 250q149 0 229 121t80 346q0 223 -80 343t-229 120t-229 -120t-80 -343q0 -225 80 -346t229 -121z" />
    <glyph glyph-name="multiply" unicode="&#xd7;" horiz-adv-x="1228" 
d="M330 145l-168 168l284 299l-284 299l168 168l284 -299l285 299l168 -168l-285 -299l285 -299l-168 -168l-285 299z" />
    <glyph glyph-name="Oslash" unicode="&#xd8;" horiz-adv-x="1462" 
d="M1206 1235q154 -200 154 -518q0 -340 -170 -541t-459 -201q-168 0 -303 74l-113 -164l-188 121l129 191q-154 200 -154 520q0 338 170 537.5t459 199.5q172 0 305 -74l111 164l188 -121zM731 1180q-149 0 -229 -120t-80 -343q0 -154 37 -258l428 676q-65 45 -156 45z
M731 250q149 0 229 121t80 346q0 153 -36 254l-426 -676q62 -45 153 -45z" />
    <glyph glyph-name="Ugrave" unicode="&#xd9;" horiz-adv-x="1409" 
d="M641 1513l-260 355h324l161 -355h-225zM705 -25q-252 0 -405 159.5t-153 422.5v873h312v-893q0 -135 64.5 -209t181.5 -74t181 74t64 209v893h312v-873q0 -263 -152.5 -422.5t-404.5 -159.5z" />
    <glyph glyph-name="Uacute" unicode="&#xda;" horiz-adv-x="1409" 
d="M567 1513l162 355h324l-260 -355h-226zM705 -25q-252 0 -405 159.5t-153 422.5v873h312v-893q0 -135 64.5 -209t181.5 -74t181 74t64 209v893h312v-873q0 -263 -152.5 -422.5t-404.5 -159.5z" />
    <glyph glyph-name="Ucircumflex" unicode="&#xdb;" horiz-adv-x="1409" 
d="M229 1513l349 375h253l349 -375h-228l-247 187l-248 -187h-228zM705 -25q-252 0 -405 159.5t-153 422.5v873h312v-893q0 -135 64.5 -209t181.5 -74t181 74t64 209v893h312v-873q0 -263 -152.5 -422.5t-404.5 -159.5z" />
    <glyph glyph-name="Udieresis" unicode="&#xdc;" horiz-adv-x="1409" 
d="M479 1571q-66 0 -109.5 40.5t-43.5 102.5t43.5 103t109.5 41t110 -41t44 -103q0 -61 -44 -102t-110 -41zM930 1571q-66 0 -110 41t-44 102q0 62 44 103t110 41t109.5 -41t43.5 -103t-43.5 -102.5t-109.5 -40.5zM705 -25q-252 0 -405 159.5t-153 422.5v873h312v-893
q0 -135 64.5 -209t181.5 -74t181 74t64 209v893h312v-873q0 -263 -152.5 -422.5t-404.5 -159.5z" />
    <glyph glyph-name="Yacute" unicode="&#xdd;" horiz-adv-x="1288" 
d="M508 1513l162 355h323l-260 -355h-225zM487 0v559l-469 871h349l286 -570h4l275 570h338l-471 -869v-561h-312z" />
    <glyph glyph-name="Thorn" unicode="&#xde;" horiz-adv-x="1302" 
d="M158 0v1430h311v-246h246q235 0 373.5 -124t138.5 -333t-138.5 -333t-373.5 -124h-246v-270h-311zM469 541h229q100 0 153.5 48.5t53.5 137.5t-53.5 137.5t-153.5 48.5h-229v-372z" />
    <glyph glyph-name="germandbls" unicode="&#xdf;" horiz-adv-x="1398" 
d="M946 -25q-155 0 -272 62v237q131 -73 248 -73q74 0 119.5 32t45.5 84q0 49 -30 78t-105 54l-63 20q-118 37 -174 106t-56 177q0 83 34.5 140.5t117.5 111.5q66 43 89.5 76.5t23.5 84.5q0 72 -52 111t-149 39q-111 0 -168 -52.5t-57 -154.5v-1108h-303v840h-152v235h152
v49q0 194 139.5 305t382.5 111q226 0 361.5 -96t135.5 -256q0 -83 -41.5 -150t-138.5 -137q-96 -67 -96 -115q0 -37 27.5 -60t99.5 -48l63 -21q121 -38 179.5 -112.5t58.5 -190.5q0 -181 -109.5 -280t-310.5 -99z" />
    <glyph glyph-name="agrave" unicode="&#xe0;" horiz-adv-x="1140" 
d="M530 1204l-301 395h324l203 -395h-226zM379 -25q-138 0 -221.5 81t-83.5 214q0 138 96.5 224t316.5 145q116 31 154.5 57.5t38.5 75.5q0 90 -174 90q-156 0 -342 -100v248q78 41 187.5 65.5t215.5 24.5q211 0 311.5 -88t100.5 -273v-420q0 -55 15.5 -78.5t52.5 -23.5
q20 0 38 6v-223q-55 -14 -131 -14q-97 0 -158.5 48.5t-80.5 137.5h-4q-41 -91 -130.5 -144t-201.5 -53zM500 186q85 0 130.5 56.5t45.5 160.5v97q-124 -37 -158 -49q-77 -26 -109 -60.5t-32 -91.5q0 -54 32 -83.5t91 -29.5z" />
    <glyph glyph-name="aacute" unicode="&#xe1;" horiz-adv-x="1140" 
d="M451 1204l202 395h324l-301 -395h-225zM379 -25q-138 0 -221.5 81t-83.5 214q0 138 96.5 224t316.5 145q116 31 154.5 57.5t38.5 75.5q0 90 -174 90q-156 0 -342 -100v248q78 41 187.5 65.5t215.5 24.5q211 0 311.5 -88t100.5 -273v-420q0 -55 15.5 -78.5t52.5 -23.5
q20 0 38 6v-223q-55 -14 -131 -14q-97 0 -158.5 48.5t-80.5 137.5h-4q-41 -91 -130.5 -144t-201.5 -53zM500 186q85 0 130.5 56.5t45.5 160.5v97q-124 -37 -158 -49q-77 -26 -109 -60.5t-32 -91.5q0 -54 32 -83.5t91 -29.5z" />
    <glyph glyph-name="acircumflex" unicode="&#xe2;" horiz-adv-x="1140" 
d="M76 1204l368 395h254l369 -395h-248l-248 187l-247 -187h-248zM379 -25q-138 0 -221.5 81t-83.5 214q0 138 96.5 224t316.5 145q116 31 154.5 57.5t38.5 75.5q0 90 -174 90q-156 0 -342 -100v248q78 41 187.5 65.5t215.5 24.5q211 0 311.5 -88t100.5 -273v-420
q0 -55 15.5 -78.5t52.5 -23.5q20 0 38 6v-223q-55 -14 -131 -14q-97 0 -158.5 48.5t-80.5 137.5h-4q-41 -91 -130.5 -144t-201.5 -53zM500 186q85 0 130.5 56.5t45.5 160.5v97q-124 -37 -158 -49q-77 -26 -109 -60.5t-32 -91.5q0 -54 32 -83.5t91 -29.5z" />
    <glyph glyph-name="atilde" unicode="&#xe3;" horiz-adv-x="1140" 
d="M172 1225q3 151 62 230t169 79q79 0 211 -51q81 -33 121 -33q80 0 92 84h144q-6 -309 -232 -309q-85 0 -209 55q-84 37 -120 37q-42 0 -65 -21.5t-30 -70.5h-143zM379 -25q-138 0 -221.5 81t-83.5 214q0 138 96.5 224t316.5 145q116 31 154.5 57.5t38.5 75.5
q0 90 -174 90q-156 0 -342 -100v248q78 41 187.5 65.5t215.5 24.5q211 0 311.5 -88t100.5 -273v-420q0 -55 15.5 -78.5t52.5 -23.5q20 0 38 6v-223q-55 -14 -131 -14q-97 0 -158.5 48.5t-80.5 137.5h-4q-41 -91 -130.5 -144t-201.5 -53zM500 186q85 0 130.5 56.5t45.5 160.5
v97q-124 -37 -158 -49q-77 -26 -109 -60.5t-32 -91.5q0 -54 32 -83.5t91 -29.5z" />
    <glyph glyph-name="adieresis" unicode="&#xe4;" horiz-adv-x="1140" 
d="M346 1241q-66 0 -109.5 40.5t-43.5 102.5t43.5 103t109.5 41t110 -41t44 -103q0 -61 -44 -102t-110 -41zM797 1241q-66 0 -110 41t-44 102q0 62 44 103t110 41t109.5 -41t43.5 -103t-43.5 -102.5t-109.5 -40.5zM379 -25q-138 0 -221.5 81t-83.5 214q0 138 96.5 224
t316.5 145q116 31 154.5 57.5t38.5 75.5q0 90 -174 90q-156 0 -342 -100v248q78 41 187.5 65.5t215.5 24.5q211 0 311.5 -88t100.5 -273v-420q0 -55 15.5 -78.5t52.5 -23.5q20 0 38 6v-223q-55 -14 -131 -14q-97 0 -158.5 48.5t-80.5 137.5h-4q-41 -91 -130.5 -144
t-201.5 -53zM500 186q85 0 130.5 56.5t45.5 160.5v97q-124 -37 -158 -49q-77 -26 -109 -60.5t-32 -91.5q0 -54 32 -83.5t91 -29.5z" />
    <glyph glyph-name="aring" unicode="&#xe5;" horiz-adv-x="1140" 
d="M571 1171q-126 0 -210.5 80.5t-84.5 200.5t84.5 200.5t210.5 80.5t210.5 -80.5t84.5 -200.5t-84.5 -200.5t-210.5 -80.5zM571 1321q44 0 74.5 38t30.5 93t-30.5 93t-74.5 38t-74 -37.5t-30 -93.5t30 -93.5t74 -37.5zM379 -25q-138 0 -221.5 81t-83.5 214q0 138 96.5 224
t316.5 145q116 31 154.5 57.5t38.5 75.5q0 90 -174 90q-156 0 -342 -100v248q78 41 187.5 65.5t215.5 24.5q211 0 311.5 -88t100.5 -273v-420q0 -55 15.5 -78.5t52.5 -23.5q20 0 38 6v-223q-55 -14 -131 -14q-97 0 -158.5 48.5t-80.5 137.5h-4q-41 -91 -130.5 -144
t-201.5 -53zM500 186q85 0 130.5 56.5t45.5 160.5v97q-124 -37 -158 -49q-77 -26 -109 -60.5t-32 -91.5q0 -54 32 -83.5t91 -29.5z" />
    <glyph glyph-name="ae" unicode="&#xe6;" horiz-adv-x="1718" 
d="M1628 553q0 -43 -6 -90h-643q9 -120 79 -184t193 -64q161 0 305 98v-256q-158 -82 -342 -82q-240 0 -362 172q-121 -172 -385 -172q-180 0 -286.5 80t-106.5 215q0 138 96.5 224t316.5 145q116 31 154.5 57.5t38.5 75.5q0 90 -174 90q-156 0 -342 -100v248q172 90 389 90
q113 0 192.5 -37t118.5 -105q110 142 295 142q217 0 343 -147t126 -400zM981 641h356q0 236 -172 236q-83 0 -130.5 -60.5t-53.5 -175.5zM676 403v99q-65 -24 -144 -47q-82 -23 -118.5 -60t-36.5 -96q0 -54 32 -83.5t91 -29.5q85 0 130.5 56.5t45.5 160.5z" />
    <glyph glyph-name="ccedilla" unicode="&#xe7;" horiz-adv-x="962" 
d="M899 47q-132 -72 -289 -72l-20 -86h6q42 25 94 25q72 0 116 -43t44 -115q0 -92 -75.5 -151.5t-192.5 -59.5q-131 0 -230 58v155q98 -67 203 -67q46 0 71 16t25 45q0 51 -53 51q-24 0 -55 -14h-101l35 197q-193 35 -298 174.5t-105 361.5q0 264 143.5 421t386.5 157
q75 0 153 -17t132 -45v-243q-113 65 -242 65q-126 0 -198 -88.5t-72 -243.5q0 -152 70.5 -232.5t203.5 -80.5q68 0 123 15t125 53v-236z" />
    <glyph glyph-name="egrave" unicode="&#xe8;" horiz-adv-x="1126" 
d="M748 1204h-226l-301 395h324zM1036 553q0 -43 -6 -90h-643q9 -120 78.5 -184t193.5 -64q162 0 306 98v-256q-158 -82 -342 -82q-261 0 -405 148.5t-144 415.5q0 261 131.5 411t361.5 150q217 0 343 -147t126 -400zM389 641h356q0 236 -172 236q-83 0 -130.5 -60.5
t-53.5 -175.5z" />
    <glyph glyph-name="eacute" unicode="&#xe9;" horiz-adv-x="1126" 
d="M969 1599l-301 -395h-226l203 395h324zM1036 553q0 -43 -6 -90h-643q9 -120 78.5 -184t193.5 -64q162 0 306 98v-256q-158 -82 -342 -82q-261 0 -405 148.5t-144 415.5q0 261 131.5 411t361.5 150q217 0 343 -147t126 -400zM389 641h356q0 236 -172 236
q-83 0 -130.5 -60.5t-53.5 -175.5z" />
    <glyph glyph-name="ecircumflex" unicode="&#xea;" horiz-adv-x="1126" 
d="M563 1391l-248 -187h-247l368 395h254l369 -395h-248zM567 1100q217 0 343 -147t126 -400q0 -43 -6 -90h-643q9 -120 78.5 -184t193.5 -64q162 0 306 98v-256q-158 -82 -342 -82q-261 0 -405 148.5t-144 415.5q0 261 131.5 411t361.5 150zM389 641h356q0 236 -172 236
q-83 0 -130.5 -60.5t-53.5 -175.5z" />
    <glyph glyph-name="edieresis" unicode="&#xeb;" horiz-adv-x="1126" 
d="M338 1241q-66 0 -110 41t-44 102q0 62 44 103t110 41t110 -41t44 -103q0 -61 -44 -102t-110 -41zM788 1241q-66 0 -109.5 40.5t-43.5 102.5t43.5 103t109.5 41t110 -41t44 -103q0 -61 -44 -102t-110 -41zM1036 553q0 -43 -6 -90h-643q9 -120 78.5 -184t193.5 -64
q162 0 306 98v-256q-158 -82 -342 -82q-261 0 -405 148.5t-144 415.5q0 261 131.5 411t361.5 150q217 0 343 -147t126 -400zM389 641h356q0 236 -172 236q-83 0 -130.5 -60.5t-53.5 -175.5z" />
    <glyph glyph-name="igrave" unicode="&#xec;" horiz-adv-x="585" 
d="M227 1204l-301 395h324l203 -395h-226zM141 0v1075h303v-1075h-303z" />
    <glyph glyph-name="iacute" unicode="&#xed;" horiz-adv-x="585" 
d="M172 1204l203 395h323l-301 -395h-225zM141 0v1075h303v-1075h-303z" />
    <glyph glyph-name="icircumflex" unicode="&#xee;" horiz-adv-x="585" 
d="M-203 1204l369 395h254l368 -395h-247l-248 187l-248 -187h-248zM141 0v1075h303v-1075h-303z" />
    <glyph glyph-name="idieresis" unicode="&#xef;" horiz-adv-x="585" 
d="M68 1241q-66 0 -110 41t-44 102q0 62 44 103t110 41t109.5 -41t43.5 -103t-43.5 -102.5t-109.5 -40.5zM518 1241q-66 0 -109.5 40.5t-43.5 102.5t43.5 103t109.5 41t110 -41t44 -103q0 -61 -44 -102t-110 -41zM141 0v1075h303v-1075h-303z" />
    <glyph glyph-name="eth" unicode="&#xf0;" horiz-adv-x="1228" 
d="M850 1341q145 -159 229 -363t84 -403q0 -278 -145 -439t-395 -161q-242 0 -389.5 146t-147.5 385q0 240 107 377t296 137q109 0 198 -46.5t149 -135.5l6 2q-61 203 -217 368l-213 -127l-84 125l182 109q-127 103 -283 201h426q45 -31 86 -66l160 94l82 -125zM623 231
q104 0 160.5 70t56.5 199q0 270 -217 270t-217 -270q0 -129 56.5 -199t160.5 -70z" />
    <glyph glyph-name="ntilde" unicode="&#xf1;" horiz-adv-x="1220" 
d="M211 1225q3 151 62 230t169 79q79 0 211 -51q81 -33 121 -33q80 0 92 84h144q-6 -309 -232 -309q-85 0 -209 55q-84 37 -120 37q-42 0 -65 -21.5t-30 -70.5h-143zM141 0v1075h303v-149h7q97 174 299 174q163 0 252.5 -102.5t89.5 -288.5v-709h-304v629q0 207 -167 207
q-81 0 -129 -52.5t-48 -140.5v-643h-303z" />
    <glyph glyph-name="ograve" unicode="&#xf2;" horiz-adv-x="1155" 
d="M537 1204l-301 395h323l203 -395h-225zM578 -25q-229 0 -366.5 154.5t-137.5 409.5t137.5 408t366.5 153t366 -153t137 -408t-137.5 -409.5t-365.5 -154.5zM578 215q92 0 140 83t48 241q0 157 -48 239t-140 82t-140.5 -82t-48.5 -239q0 -158 48.5 -241t140.5 -83z" />
    <glyph glyph-name="oacute" unicode="&#xf3;" horiz-adv-x="1155" 
d="M457 1204l202 395h324l-301 -395h-225zM578 -25q-229 0 -366.5 154.5t-137.5 409.5t137.5 408t366.5 153t366 -153t137 -408t-137.5 -409.5t-365.5 -154.5zM578 215q92 0 140 83t48 241q0 157 -48 239t-140 82t-140.5 -82t-48.5 -239q0 -158 48.5 -241t140.5 -83z" />
    <glyph glyph-name="ocircumflex" unicode="&#xf4;" horiz-adv-x="1155" 
d="M82 1204l369 395h254l368 -395h-248l-247 187l-248 -187h-248zM578 -25q-229 0 -366.5 154.5t-137.5 409.5t137.5 408t366.5 153t366 -153t137 -408t-137.5 -409.5t-365.5 -154.5zM578 215q92 0 140 83t48 241q0 157 -48 239t-140 82t-140.5 -82t-48.5 -239
q0 -158 48.5 -241t140.5 -83z" />
    <glyph glyph-name="otilde" unicode="&#xf5;" horiz-adv-x="1155" 
d="M178 1225q3 151 62.5 230t169.5 79q79 0 211 -51q81 -33 120 -33q81 0 93 84h143q-6 -309 -232 -309q-84 0 -208 55q-84 37 -121 37q-42 0 -64.5 -21.5t-29.5 -70.5h-144zM578 -25q-229 0 -366.5 154.5t-137.5 409.5t137.5 408t366.5 153t366 -153t137 -408
t-137.5 -409.5t-365.5 -154.5zM578 215q92 0 140 83t48 241q0 157 -48 239t-140 82t-140.5 -82t-48.5 -239q0 -158 48.5 -241t140.5 -83z" />
    <glyph glyph-name="odieresis" unicode="&#xf6;" horiz-adv-x="1155" 
d="M352 1241q-66 0 -109.5 40.5t-43.5 102.5t43.5 103t109.5 41t110 -41t44 -103q0 -61 -44 -102t-110 -41zM803 1241q-66 0 -110 41t-44 102q0 62 44 103t110 41t109.5 -41t43.5 -103t-43.5 -102.5t-109.5 -40.5zM578 -25q-229 0 -366.5 154.5t-137.5 409.5t137.5 408
t366.5 153t366 -153t137 -408t-137.5 -409.5t-365.5 -154.5zM578 215q92 0 140 83t48 241q0 157 -48 239t-140 82t-140.5 -82t-48.5 -239q0 -158 48.5 -241t140.5 -83z" />
    <glyph glyph-name="divide" unicode="&#xf7;" horiz-adv-x="1228" 
d="M614 860q-78 0 -125 45t-47 121t47 121t125 45t125 -45t47 -121t-47 -121t-125 -45zM137 504v241h955v-241h-955zM614 57q-78 0 -125 45t-47 121t47 121t125 45t125 -45t47 -121t-47 -121t-125 -45z" />
    <glyph glyph-name="oslash" unicode="&#xf8;" horiz-adv-x="1171" 
d="M1143 1055l-146 -181q84 -143 84 -335q0 -255 -137.5 -409.5t-365.5 -154.5q-146 0 -263 68l-122 -145l-164 122l137 170q-92 143 -92 349q0 255 137.5 408t366.5 153q156 0 274 -76l127 154zM578 860q-92 0 -140.5 -82t-48.5 -239q0 -35 4 -93l303 363q-48 51 -118 51z
M578 215q92 0 140 83t48 241q0 27 -4 73l-295 -354q43 -43 111 -43z" />
    <glyph glyph-name="ugrave" unicode="&#xf9;" horiz-adv-x="1220" 
d="M569 1204l-301 395h324l203 -395h-226zM471 -25q-163 0 -252.5 103t-89.5 289v708h303v-629q0 -206 168 -206q81 0 128.5 52t47.5 140v643h303v-1075h-303v150h-6q-97 -175 -299 -175z" />
    <glyph glyph-name="uacute" unicode="&#xfa;" horiz-adv-x="1220" 
d="M489 1204l203 395h324l-301 -395h-226zM471 -25q-163 0 -252.5 103t-89.5 289v708h303v-629q0 -206 168 -206q81 0 128.5 52t47.5 140v643h303v-1075h-303v150h-6q-97 -175 -299 -175z" />
    <glyph glyph-name="ucircumflex" unicode="&#xfb;" horiz-adv-x="1220" 
d="M115 1204l368 395h254l369 -395h-248l-248 187l-248 -187h-247zM471 -25q-163 0 -252.5 103t-89.5 289v708h303v-629q0 -206 168 -206q81 0 128.5 52t47.5 140v643h303v-1075h-303v150h-6q-97 -175 -299 -175z" />
    <glyph glyph-name="udieresis" unicode="&#xfc;" horiz-adv-x="1220" 
d="M385 1241q-66 0 -110 41t-44 102q0 62 44 103t110 41t110 -41t44 -103q0 -61 -44 -102t-110 -41zM836 1241q-66 0 -110 41t-44 102q0 62 44 103t110 41t109.5 -41t43.5 -103t-43.5 -102.5t-109.5 -40.5zM471 -25q-163 0 -252.5 103t-89.5 289v708h303v-629
q0 -206 168 -206q81 0 128.5 52t47.5 140v643h303v-1075h-303v150h-6q-97 -175 -299 -175z" />
    <glyph glyph-name="yacute" unicode="&#xfd;" horiz-adv-x="1095" 
d="M428 1204l203 395h323l-301 -395h-225zM324 -426q-97 0 -181 23v231q67 -18 113 -18q57 0 93.5 27t56.5 85l16 49l-416 1104h316l239 -747h8l222 747h290l-405 -1220q-51 -154 -131 -217.5t-221 -63.5z" />
    <glyph glyph-name="thorn" unicode="&#xfe;" horiz-adv-x="1249" 
d="M141 -410v1926h303v-607h7q84 191 313 191q185 0 292 -154.5t107 -419.5q0 -254 -109 -402.5t-296 -148.5q-206 0 -307 189h-7v-574h-303zM651 213q97 0 150 82t53 231q0 166 -51.5 251t-151.5 85q-207 0 -207 -336q0 -149 54.5 -231t152.5 -82z" />
    <glyph glyph-name="ydieresis" unicode="&#xff;" horiz-adv-x="1095" 
d="M324 1241q-66 0 -110 41t-44 102q0 62 44 103t110 41t109.5 -41t43.5 -103t-43.5 -102.5t-109.5 -40.5zM774 1241q-66 0 -109.5 40.5t-43.5 102.5t43.5 103t109.5 41t110 -41t44 -103q0 -61 -44 -102t-110 -41zM324 -426q-97 0 -181 23v231q67 -18 113 -18q57 0 93.5 27
t56.5 85l16 49l-416 1104h316l239 -747h8l222 747h290l-405 -1220q-51 -154 -131 -217.5t-221 -63.5z" />
    <glyph glyph-name="dotlessi" unicode="&#x131;" horiz-adv-x="585" 
d="M141 0v1075h303v-1075h-303z" />
    <glyph glyph-name="Lslash" unicode="&#x141;" horiz-adv-x="1085" 
d="M469 274h545v-274h-856v498l-185 -60v232l185 59v701h311v-601l322 103v-232l-322 -102v-324z" />
    <glyph glyph-name="lslash" unicode="&#x142;" horiz-adv-x="620" 
d="M432 -20q-160 0 -224.5 78t-64.5 270v274l-147 -49v223l147 49v691h281v-601l217 72v-223l-217 -72v-368q0 -46 22.5 -72.5t63.5 -26.5q36 0 70 6v-239q-46 -12 -148 -12z" />
    <glyph glyph-name="OE" unicode="&#x152;" horiz-adv-x="1955" 
d="M725 0q-286 0 -454.5 194t-168.5 521t168.5 521t454.5 194h1106v-275h-602v-295h520v-270h-520v-316h614v-274h-1118zM768 274h150v881h-150q-167 0 -256.5 -113.5t-89.5 -326.5q0 -212 89.5 -326.5t256.5 -114.5z" />
    <glyph glyph-name="oe" unicode="&#x153;" horiz-adv-x="1820" 
d="M1731 553q0 -36 -7 -90h-643q9 -120 79.5 -184t193.5 -64q161 0 305 98v-256q-158 -82 -342 -82q-244 0 -375 170q-131 -170 -364 -170q-229 0 -366.5 154.5t-137.5 409.5t137.5 408t366.5 153q228 0 360 -164q120 164 324 164q217 0 343 -147t126 -400zM1083 641h357
q0 236 -172 236q-84 0 -131.5 -60.5t-53.5 -175.5zM578 215q92 0 140 83t48 241q0 157 -48 239t-140 82t-140.5 -82t-48.5 -239q0 -158 48.5 -241t140.5 -83z" />
    <glyph glyph-name="Scaron" unicode="&#x160;" horiz-adv-x="1226" 
d="M487 1534l-348 375h228l247 -187l248 187h228l-349 -375h-254zM565 -25q-254 0 -454 107v301q103 -63 223.5 -98t234.5 -35q121 0 184.5 41t63.5 119q0 60 -40 92.5t-146 58.5l-154 37q-189 46 -281 149.5t-92 270.5q0 206 140.5 321t390.5 115q246 0 412 -94v-281
q-84 49 -192 77t-210 28q-229 0 -229 -144q0 -61 42 -93t167 -64l141 -37q192 -50 277 -147t85 -267q0 -220 -146.5 -338.5t-416.5 -118.5z" />
    <glyph glyph-name="scaron" unicode="&#x161;" horiz-adv-x="894" 
d="M322 1204l-369 395h248l248 -186l247 186h248l-369 -395h-253zM424 -25q-82 0 -186 26.5t-187 66.5v268q203 -121 365 -121q67 0 105 23t38 63q0 34 -22.5 54.5t-79.5 37.5l-103 31q-164 49 -236.5 129.5t-72.5 212.5q0 157 107 245.5t297 88.5q222 0 354 -74v-256
q-76 42 -165 66t-169 24q-60 0 -92.5 -19.5t-32.5 -56.5q0 -32 29 -54.5t100 -45.5l82 -27q169 -56 238 -131t69 -204q0 -161 -117.5 -254t-320.5 -93z" />
    <glyph glyph-name="Ydieresis" unicode="&#x178;" horiz-adv-x="1288" 
d="M420 1571q-66 0 -110 41t-44 102q0 62 44 103t110 41t109.5 -41t43.5 -103t-43.5 -102.5t-109.5 -40.5zM870 1571q-66 0 -109.5 40.5t-43.5 102.5t43.5 103t109.5 41t110 -41t44 -103q0 -61 -44 -102t-110 -41zM487 0v559l-469 871h349l286 -570h4l275 570h338l-471 -869
v-561h-312z" />
    <glyph glyph-name="Zcaron" unicode="&#x17d;" horiz-adv-x="1202" 
d="M475 1534l-348 375h227l248 -187l248 187h227l-348 -375h-254zM80 0v225l622 930h-587v275h991v-226l-625 -930h641v-274h-1042z" />
    <glyph glyph-name="zcaron" unicode="&#x17e;" horiz-adv-x="1060" 
d="M403 1235l-368 395h248l247 -186l248 186h248l-369 -395h-254zM80 0v240l534 600h-516v235h869v-237l-537 -602h551v-236h-901z" />
    <glyph glyph-name="florin" unicode="&#x192;" horiz-adv-x="983" 
d="M195 -299q-97 0 -185 31l25 231q56 -26 115 -26t93 31t40 91l49 455h-197l25 246h196l37 358q35 336 381 336q96 0 184 -31l-24 -231q-58 27 -115 27q-115 0 -127 -123l-35 -336h273l-27 -246h-270l-51 -477q-19 -166 -116.5 -251t-270.5 -85z" />
    <glyph glyph-name="circumflex" unicode="&#x2c6;" horiz-adv-x="1196" 
d="M102 1204l369 395h254l369 -395h-248l-248 187l-248 -187h-248z" />
    <glyph glyph-name="caron" unicode="&#x2c7;" horiz-adv-x="1196" 
d="M471 1204l-369 395h248l248 -186l248 186h248l-369 -395h-254z" />
    <glyph glyph-name="breve" unicode="&#x2d8;" horiz-adv-x="1036" 
d="M518 1184q-167 0 -281.5 114t-134.5 301h193q20 -89 83 -146.5t140 -57.5q76 0 138.5 57.5t84.5 146.5h193q-22 -188 -136 -301.5t-280 -113.5z" />
    <glyph glyph-name="dotaccent" unicode="&#x2d9;" horiz-adv-x="544" 
d="M272 1225q-72 0 -121 45t-49 112t49 112.5t121 45.5t121 -45.5t49 -112.5t-49 -112t-121 -45z" />
    <glyph glyph-name="ring" unicode="&#x2da;" horiz-adv-x="794" 
d="M397 1171q-126 0 -210.5 80.5t-84.5 200.5t84.5 200.5t210.5 80.5t210.5 -80.5t84.5 -200.5t-84.5 -200.5t-210.5 -80.5zM397 1321q44 0 74.5 38t30.5 93t-30.5 93t-74.5 38t-74 -37.5t-30 -93.5t30 -93.5t74 -37.5z" />
    <glyph glyph-name="ogonek" unicode="&#x2db;" horiz-adv-x="720" 
d="M356 -434q-119 0 -186.5 47.5t-67.5 132.5q0 155 250 277h174q-219 -128 -219 -238q0 -35 22.5 -54.5t63.5 -19.5q40 0 88 13t72 32v-139q-33 -20 -93.5 -35.5t-103.5 -15.5z" />
    <glyph glyph-name="tilde" unicode="&#x2dc;" horiz-adv-x="1003" 
d="M102 1225q3 151 62.5 230t169.5 79q79 0 211 -51q81 -33 121 -33q80 0 92 84h143q-6 -309 -231 -309q-85 0 -209 55q-84 37 -121 37q-42 0 -64.5 -21.5t-29.5 -70.5h-144z" />
    <glyph glyph-name="hungarumlaut" unicode="&#x2dd;" horiz-adv-x="1120" 
d="M102 1204l183 395h303l-281 -395h-205zM532 1204l183 395h303l-281 -395h-205z" />
    <glyph glyph-name="uni0394" unicode="&#x394;" horiz-adv-x="1343" 
d="M113 0v227l395 1203h321l402 -1203v-227h-1118zM434 276h467l-233 777h-6z" />
    <glyph glyph-name="uni03A9" unicode="&#x3a9;" horiz-adv-x="1482" 
d="M102 0v274h326v7q-146 83 -230.5 237t-84.5 338q0 269 172.5 433.5t455.5 164.5t456 -164.5t173 -433.5q0 -184 -84.5 -338t-230.5 -237v-7h325v-274h-551v274q213 261 213 543q0 170 -79.5 265.5t-221.5 95.5t-221.5 -95.5t-79.5 -265.5q0 -282 213 -543v-274h-551z" />
    <glyph glyph-name="uni03BC" unicode="&#x3bc;" horiz-adv-x="1232" 
d="M141 -410v1485h303v-629q0 -206 168 -206q81 0 128.5 52t47.5 140v643h304v-1075h-304v180h-6q-63 -200 -241 -200q-55 0 -90 14h-7v-404h-303z" />
    <glyph glyph-name="pi" unicode="&#x3c0;" horiz-adv-x="1361" 
d="M1096 -20q-322 0 -322 333v527h-260v-840h-303v840h-164v235h1225v-235h-195v-498q0 -125 94 -125q61 0 121 16v-225q-106 -28 -196 -28z" />
    <glyph glyph-name="uni0E01" unicode="&#xe01;" horiz-adv-x="1282" 
d="M180 0v625q0 84 -21.5 137.5t-70.5 91.5q126 141 274 215t306 74q227 0 353 -113.5t126 -318.5v-711h-287v694q0 99 -55 155t-152 56q-134 0 -245 -94q32 -25 45.5 -62t13.5 -100v-649h-287z" />
    <glyph glyph-name="uni0E02" unicode="&#xe02;" horiz-adv-x="1177" 
d="M748 1118h286v-710q0 -214 -109 -323.5t-321 -109.5q-107 0 -191.5 29t-135.5 78t-77 108t-26 123v54q0 21 3 42t10 41.5t12.5 37t18 37t19.5 32.5t23 33.5t22 29t23.5 29t20.5 25.5q-8 -2 -23 -2q-106 0 -168.5 63t-62.5 164q0 104 70 170t184 66q115 0 185.5 -62.5
t70.5 -175.5q0 -67 -19 -135.5t-41.5 -115.5t-41.5 -107t-19 -113v-51q0 -158 139 -158q70 0 109 39.5t39 110.5v751zM240 899q0 -37 22.5 -59.5t59.5 -22.5q34 0 55.5 22.5t21.5 59.5t-21.5 59.5t-55.5 22.5q-37 0 -59.5 -22.5t-22.5 -59.5z" />
    <glyph glyph-name="uni0E03" unicode="&#xe03;" horiz-adv-x="1220" 
d="M791 1118h286v-710q0 -211 -113.5 -322t-330.5 -111q-180 0 -296 93t-116 239v53q0 89 63 205.5t267 403.5l-10 12l-123 -96h-31q-39 104 -117 104q-65 0 -77 -55q15 6 34 6q60 0 97.5 -38.5t37.5 -100.5q0 -61 -44.5 -105.5t-106.5 -44.5q-83 0 -131.5 58.5t-48.5 158.5
q0 120 60.5 193.5t160.5 73.5q106 0 158 -93l110 88q82 -14 143 -69.5t74 -130.5q-129 -217 -179 -328t-50 -182v-51q0 -74 36 -113t103 -39q69 0 106.5 39.5t37.5 112.5v749zM256 797q0 22 -13.5 35.5t-35.5 13.5t-35.5 -13.5t-13.5 -35.5t14 -37t35 -15t35 15t14 37z" />
    <glyph glyph-name="uni0E04" unicode="&#xe04;" horiz-adv-x="1306" 
d="M653 1143q239 0 381 -125t142 -334v-684h-279v680q0 103 -67 166t-179 63q-114 0 -184 -63.5t-70 -165.5v-221h9l45 96q35 75 87 110t128 35q94 0 150 -56t56 -150q0 -89 -58 -146t-150 -57q-46 0 -88.5 19t-67.5 50q-19 -39 -51 -75q-35 -43 -45.5 -64.5t-10.5 -52.5
v-168h-270v684q0 210 141.5 334.5t380.5 124.5zM664 561q-29 0 -48.5 -19t-19.5 -48t19.5 -48.5t48.5 -19.5t48 19.5t19 48.5t-19 48t-48 19z" />
    <glyph glyph-name="uni0E05" unicode="&#xe05;" horiz-adv-x="1331" 
d="M883 1130q160 -31 236.5 -124t76.5 -258v-748h-278v702q0 67 -15 107.5t-51 71.5l-172 -99h-33l-166 99q-41 -29 -58 -69t-17 -110v-243h8l49 96q38 76 89.5 110.5t125.5 34.5q94 0 150.5 -56t56.5 -150q0 -89 -58.5 -146t-150.5 -57q-46 0 -88.5 19t-67.5 50
q-19 -39 -51 -75q-34 -42 -44.5 -63.5t-10.5 -53.5v-168h-279v741q0 175 72.5 266t238.5 123l211 -129h9zM676 561q-29 0 -48.5 -19t-19.5 -48t19.5 -48.5t48.5 -19.5t48 19.5t19 48.5t-19 48t-48 19z" />
    <glyph glyph-name="uni0E06" unicode="&#xe06;" horiz-adv-x="1339" 
d="M893 1118h287v-1118h-271q-127 183 -307 272q8 -19 8 -51q0 -104 -71.5 -170.5t-182.5 -66.5t-182.5 66.5t-71.5 170.5q0 95 64 163t158 71q-2 8 -2 24v17q0 151 264 450l-6 8l-129 -69h-31q-40 104 -121 104q-72 0 -90 -53q24 4 35 4q60 0 97.5 -38.5t37.5 -100.5
q0 -64 -43.5 -107t-108.5 -43q-83 0 -131.5 58.5t-48.5 158.5q0 125 63 196t175 71q105 0 159 -99l123 94q82 -14 143 -69.5t74 -130.5q-99 -148 -137.5 -236t-38.5 -166v-30q177 -73 285 -187v807zM272 797q0 22 -13.5 35.5t-35.5 13.5t-35.5 -13.5t-13.5 -35.5t14 -37
t35 -15t35 15t14 37zM356 139q35 0 57.5 22.5t22.5 59.5t-22.5 60.5t-57.5 23.5q-36 0 -58 -23t-22 -61q0 -37 21.5 -59.5t58.5 -22.5z" />
    <glyph glyph-name="uni0E07" unicode="&#xe07;" horiz-adv-x="1048" 
d="M670 1135q117 0 186.5 -64.5t69.5 -171.5v-489q0 -215 -86 -312.5t-275 -97.5h-256q-107 381 -278 823h299q126 -385 186 -618h25q54 0 76 27t22 90v323v27q-98 6 -160.5 70t-62.5 161q0 102 71 167t183 65zM584 899q0 -37 22.5 -59.5t59.5 -22.5q35 0 56 22.5t21 59.5
t-21.5 59.5t-55.5 22.5q-36 0 -59 -23t-23 -59z" />
    <glyph glyph-name="uni0E08" unicode="&#xe08;" horiz-adv-x="1009" 
d="M438 1143q241 0 376.5 -126t135.5 -349q0 -134 -60 -309.5t-169 -358.5h-350l-39 231q-7 46 -2 74q-12 -2 -37 -2q-103 0 -169.5 63t-66.5 160q0 104 66 168t172 64q104 0 166 -59.5t71 -166.5l25 -299h10q52 133 74.5 232.5t22.5 196.5q0 117 -73.5 180t-207.5 63
q-176 0 -320 -104v254q62 37 171 62.5t204 25.5zM217 526q0 -35 21.5 -56t56.5 -21q34 0 55 21.5t21 55.5t-21 56t-55 22q-35 0 -56.5 -21.5t-21.5 -56.5z" />
    <glyph glyph-name="uni0E09" unicode="&#xe09;" horiz-adv-x="1200" 
d="M983 440q73 -20 116.5 -79t43.5 -140q0 -103 -68 -170t-174 -67q-104 0 -173 67t-69 170q-85 -67 -121.5 -112.5t-54.5 -108.5h-239v207q0 46 10 80q-91 0 -148 58.5t-57 152.5q0 97 65 156t169 59q114 0 174.5 -62t60.5 -176v-178q40 58 133 123q78 57 102.5 94t24.5 96
v105q0 100 -64 145t-206 45q-103 0 -211 -34.5t-199 -96.5v264q95 48 211.5 76.5t222.5 28.5q278 0 405.5 -92t127.5 -293v-133q0 -114 -82 -185zM274 424q32 0 53 20t21 52t-21 52.5t-53 20.5q-31 0 -50 -20.5t-19 -52.5t19 -52t50 -20zM897 145q32 0 53 20t21 52t-21 53
t-53 21q-31 0 -50.5 -21t-19.5 -53t19.5 -52t50.5 -20z" />
    <glyph glyph-name="uni0E0A" unicode="&#xe0a;" horiz-adv-x="1142" 
d="M901 803q141 -54 141 -244v-158q0 -206 -112.5 -316t-323.5 -110q-112 0 -196.5 29t-132 78.5t-70.5 107.5t-23 123v54q0 24 4.5 49t9.5 44t16.5 43.5t18.5 38t23.5 38t22.5 32.5t25 33t22 29q-6 -2 -23 -2q-106 0 -168.5 63t-62.5 164q0 104 70 170t184 66t185 -63
t71 -175q0 -67 -19.5 -135.5t-43 -115.5t-43 -107t-19.5 -113v-51q0 -77 39 -117.5t112 -40.5q80 0 118 43t38 135v178q0 69 -29.5 101.5t-97.5 38.5v116q63 43 106.5 123.5t47.5 165.5h309q-9 -75 -65 -163t-134 -152zM240 899q0 -37 22.5 -59.5t59.5 -22.5q34 0 55.5 22.5
t21.5 59.5t-21.5 59.5t-55.5 22.5q-37 0 -59.5 -22.5t-22.5 -59.5z" />
    <glyph glyph-name="uni0E0B" unicode="&#xe0b;" horiz-adv-x="1198" 
d="M956 803q140 -56 140 -244v-158q0 -211 -111 -318.5t-328 -107.5q-207 0 -326.5 93t-119.5 254v36q0 92 69 216t271 395l-10 12l-123 -96h-31q-39 104 -117 104q-65 0 -77 -55q15 6 34 6q60 0 97.5 -38.5t37.5 -100.5q0 -61 -44.5 -105.5t-106.5 -44.5q-83 0 -131.5 58.5
t-48.5 158.5q0 120 60.5 193.5t160.5 73.5q106 0 158 -93l110 88q82 -14 143 -69.5t74 -130.5q-118 -198 -169.5 -316.5t-51.5 -193.5v-27q0 -86 39 -131t111 -45q78 0 114.5 43t36.5 135v178q0 126 -98 140v116q64 44 106 124t45 165h285q-13 -78 -68.5 -165.5
t-130.5 -149.5zM256 797q0 22 -13.5 35.5t-35.5 13.5t-35.5 -13.5t-13.5 -35.5t14 -37t35 -15t35 15t14 37z" />
    <glyph glyph-name="uni0E0C" unicode="&#xe0c;" horiz-adv-x="1843" 
d="M1397 1118h286v-1118h-270q-100 139 -225 221q0 -104 -67.5 -170.5t-172.5 -66.5q-103 0 -171 64.5t-68 162.5q0 76 37.5 132t103.5 81v270q0 100 -61 155.5t-168 55.5q-135 0 -248 -94q65 -42 65 -162v-131q0 -42 -6 -80q92 0 151.5 -63t59.5 -160q0 -102 -63 -166.5
t-162 -64.5q-129 0 -195.5 79.5t-66.5 231.5v330q0 151 -103 229q126 141 274.5 215t305.5 74q235 0 365 -113.5t130 -318.5v-234q163 -57 269 -166v807zM948 131q35 0 57.5 22.5t22.5 59.5q0 35 -22.5 58.5t-57.5 23.5t-57.5 -23.5t-22.5 -58.5q0 -37 22.5 -59.5
t57.5 -22.5zM483 211q0 37 -21.5 59.5t-55.5 22.5q-37 0 -59.5 -22.5t-22.5 -59.5t22.5 -59.5t59.5 -22.5q34 0 55.5 22.5t21.5 59.5z" />
    <glyph glyph-name="uni0E0D" unicode="&#xe0d;" horiz-adv-x="1789" 
d="M1360 1118h287v-762q0 -183 -114 -282t-321 -99q-209 0 -316.5 90t-107.5 263v374q0 96 -49.5 149.5t-138.5 53.5q-133 0 -227 -94q65 -42 65 -162v-162q0 -13 -4 -49q103 0 166.5 -61.5t63.5 -161.5q0 -103 -68 -167t-178 -64q-126 0 -194 83t-68 238v320
q0 151 -103 229q125 140 270.5 214.5t294.5 74.5q209 0 329 -115.5t120 -316.5v-363q0 -139 145 -139q148 0 148 137v772zM496 215q0 36 -22 59t-56 23q-36 0 -59 -23t-23 -59q0 -37 22.5 -59.5t59.5 -22.5q35 0 56.5 22.5t21.5 59.5zM1192 -328q91 0 196.5 45t180.5 115h8
v-227q-184 -121 -410 -121q-175 0 -272.5 67t-97.5 187q0 85 60.5 140.5t152.5 55.5q88 0 143 -51t55 -133q0 -49 -20 -78h4zM1006 -332q28 0 44.5 18.5t16.5 47.5t-16.5 47t-44.5 18t-45 -18t-17 -47t17 -47.5t45 -18.5z" />
    <glyph glyph-name="uni0E0E" unicode="&#xe0e;" horiz-adv-x="1277" 
d="M664 1143q229 0 358 -107t129 -297v-1282h-295q-96 122 -211 193q-43 -95 -129 -152t-188 -57q-117 0 -187.5 59.5t-70.5 157.5q0 113 79 176.5t218 63.5q85 0 186 -29q4 46 4 84h184q0 -89 -20 -156q86 -49 143 -98v1012q0 94 -54 144t-155 50q-72 0 -132.5 -25.5
t-92.5 -68.5q52 -28 74 -67t22 -103v-354q0 -143 -69 -223t-193 -80q-107 0 -174 64t-67 167q0 100 63 161.5t164 61.5h2q-4 36 -4 49v99q0 90 -35.5 145.5t-136.5 122.5q100 135 256.5 212t331.5 77zM264 133q37 0 59.5 22.5t22.5 59.5t-22.5 59.5t-59.5 22.5
q-34 0 -56 -23t-22 -59q0 -37 21.5 -59.5t56.5 -22.5zM336 -395q101 0 160 112q-68 21 -131 21q-111 0 -111 -74q0 -27 22.5 -43t59.5 -16z" />
    <glyph glyph-name="uni0E0F" unicode="&#xe0f;" horiz-adv-x="1277" 
d="M664 1143q229 0 358 -107t129 -297v-1282h-289l-117 164h-8l-86 -164h-55q-45 98 -82 148q-39 -76 -102 -117t-144 -41q-100 0 -165.5 62.5t-65.5 158.5q0 100 72 164t186 64q93 0 164 -39q7 45 4 94h172q-3 -118 -45 -213q19 -22 45 -64h8l92 170h31l100 -147h8
q-10 149 -10 231v783q0 94 -55 144t-156 50q-72 0 -130.5 -25t-92.5 -69q52 -28 74 -66.5t22 -103.5v-354q0 -143 -69 -223t-193 -80q-107 0 -174 64t-67 167q0 100 63 161.5t164 61.5h4q-6 27 -6 56v92q0 89 -36 144.5t-136 123.5q100 135 256.5 212t331.5 77zM264 133
q37 0 59.5 22.5t22.5 59.5t-22.5 59.5t-59.5 22.5q-34 0 -56 -23t-22 -59q0 -37 21.5 -59.5t56.5 -22.5zM289 -389q71 0 114 98q-49 27 -104 27q-35 0 -56.5 -17t-21.5 -45q0 -29 18 -46t50 -17z" />
    <glyph glyph-name="uni0E10" unicode="&#xe10;" horiz-adv-x="1042" 
d="M674 485q0 101 -101.5 135t-427.5 72l-88 10v158q0 126 82.5 204.5t239.5 78.5q93 0 220.5 -23.5t174.5 -23.5q114 0 176 26v-190q-61 -31 -168 -31q-48 0 -167.5 24.5t-184.5 24.5q-123 0 -123 -61v-25l62 -6q222 -23 344.5 -64t176.5 -111.5t54 -188.5
q0 -119 -47.5 -251.5t-130.5 -242.5h-346l-39 158q-4 17 -8 55q-25 -10 -66 -10q-97 0 -159 59t-62 150q0 95 63.5 152t165.5 57q98 0 158.5 -49.5t75.5 -133.5l51 -268h8q24 77 35.5 116t21 94t9.5 105zM311 334q33 0 54.5 21.5t21.5 56.5t-21.5 56t-54.5 21
q-35 0 -56.5 -21t-21.5 -56t21.5 -56.5t56.5 -21.5zM840 -78q86 0 139 -59t53 -154q0 -152 -83.5 -245t-219.5 -93h-80l-47 62h-6l-39 -62h-111q-6 41 -22 82q-92 -106 -211 -106q-94 0 -154.5 52.5t-60.5 135.5q0 94 65 157.5t162 63.5q93 0 166 -45q4 29 8 86h158
q-3 -105 -49 -213q10 -20 16 -41h6l33 51h68l71 -81q34 0 55.5 15.5t22.5 41.5q-62 12 -99.5 57.5t-37.5 110.5q0 82 54.5 133t142.5 51zM836 -213q-24 0 -39 -15.5t-15 -39.5q0 -25 15.5 -40.5t38.5 -15.5t38 15.5t15 40.5t-15 40t-38 15zM231 -500q55 0 91 80
q-41 23 -76 23q-31 0 -48.5 -15t-17.5 -41q0 -22 14 -34.5t37 -12.5z" />
    <glyph glyph-name="uni0E11" unicode="&#xe11;" horiz-adv-x="1312" 
d="M891 1128q126 0 200 -79.5t74 -214.5v-834h-286v795q0 73 -64 73q-56 0 -113.5 -70t-123.5 -212q-74 -161 -74 -348v-238h-287v256q0 151 75.5 300t272.5 384l-6 8l-133 -63h-31q-28 104 -116 104q-32 0 -54 -15.5t-26 -43.5q17 10 34 10q60 0 98 -39t38 -100t-45 -105.5
t-107 -44.5q-83 0 -131.5 58.5t-48.5 158.5q0 120 60.5 193.5t160.5 73.5q106 0 158 -93l110 88q49 0 87 -23.5t57 -64.5q92 86 221 86zM262 797q0 22 -13.5 35.5t-35.5 13.5t-35.5 -13.5t-13.5 -35.5t14 -37t35 -15t35 15t14 37z" />
    <glyph glyph-name="uni0E12" unicode="&#xe12;" horiz-adv-x="1863" 
d="M1421 1118h283v-1118h-266q-115 167 -269 262q15 -35 15 -76q0 -90 -58 -146t-151 -56q-92 0 -150.5 54t-58.5 140q0 73 41.5 124t110.5 63q-9 30 -9 59v287q0 64 -15 105t-50 73l-170 -101h-33l-176 101q-34 -32 -48 -72t-14 -106v-492q79 42 125 80q40 31 72 43
q-64 12 -105.5 63t-41.5 119q0 80 51.5 129t136.5 49q88 0 140.5 -51.5t52.5 -138.5q0 -146 -137.5 -291.5t-346.5 -220.5h-215v756q0 173 72 262t239 121l211 -129h9l211 129q149 -31 221.5 -125.5t72.5 -257.5v-287q64 -25 141 -76.5t109 -91.5v817zM575 518
q0 -29 18.5 -47t47.5 -18t47.5 18t18.5 47t-18.5 47.5t-47.5 18.5t-47.5 -18.5t-18.5 -47.5zM973 115q29 0 47 18t18 47t-18 47.5t-47 18.5t-47.5 -18.5t-18.5 -47.5t18.5 -47t47.5 -18z" />
    <glyph glyph-name="uni0E13" unicode="&#xe13;" horiz-adv-x="1812" 
d="M1581 436q71 -15 113.5 -73.5t42.5 -141.5q0 -103 -68 -170t-174 -67q-104 0 -173 67t-69 170v15q-168 -109 -221 -236h-244v702q0 96 -49.5 149.5t-138.5 53.5q-133 0 -227 -94q65 -42 65 -162v-133q0 -42 -6 -80q106 0 169 -60t63 -161q0 -103 -68 -167t-178 -64
q-126 0 -194 83t-68 238v320q0 151 -103 229q125 140 270.5 214.5t294.5 74.5q209 0 329 -115.5t120 -316.5v-430q3 27 176 143q72 50 100.5 90t28.5 92v512h287v-491q0 -119 -78 -191zM1495 139q35 0 57.5 22.5t22.5 59.5t-22.5 60.5t-57.5 23.5q-36 0 -58 -23t-22 -61
q0 -37 21.5 -59.5t58.5 -22.5zM496 215q0 36 -22 59t-56 23q-36 0 -59 -23t-23 -59q0 -37 22.5 -59.5t59.5 -22.5q35 0 56.5 22.5t21.5 59.5z" />
    <glyph glyph-name="uni0E14" unicode="&#xe14;" horiz-adv-x="1300" 
d="M651 1139q237 0 377.5 -123t140.5 -332v-684h-276v680q0 101 -68 163t-178 62q-112 0 -180 -62t-68 -163v-477q71 43 123 82q50 38 84 57q-73 9 -119.5 59.5t-46.5 122.5q0 85 55 136t146 51q97 0 153 -53.5t56 -145.5q0 -152 -143 -299t-357 -213h-219v684
q0 209 140.5 332t379.5 123zM575 518q0 -29 18.5 -47t47.5 -18t47.5 18t18.5 47t-18.5 47.5t-47.5 18.5t-47.5 -18.5t-18.5 -47.5z" />
    <glyph glyph-name="uni0E15" unicode="&#xe15;" horiz-adv-x="1323" 
d="M877 1139q160 -31 235.5 -124t75.5 -259v-756h-277v711q0 67 -15 107t-52 71l-170 -101h-33l-176 101q-34 -32 -48 -72t-14 -106v-506q62 36 119 78q46 34 94 59q-72 9 -118.5 60.5t-46.5 121.5q0 85 54.5 136t145.5 51q97 0 153 -53.5t56 -145.5q0 -151 -146.5 -297.5
t-363.5 -214.5h-215v756q0 173 72 262t239 121l211 -129h9zM586 518q0 -29 18 -47t47 -18t47.5 18t18.5 47t-18.5 47.5t-47.5 18.5t-47 -18.5t-18 -47.5z" />
    <glyph glyph-name="uni0E16" unicode="&#xe16;" horiz-adv-x="1251" 
d="M635 1139q229 0 355 -113.5t126 -318.5v-707h-287v690q0 100 -55 155.5t-153 55.5q-137 0 -248 -94q65 -42 65 -162v-129q0 -40 -6 -78q104 0 168 -61.5t64 -161.5q0 -103 -68 -167t-178 -64q-126 0 -194 83t-68 238v316q0 151 -103 229q126 141 274.5 215t307.5 74z
M496 215q0 36 -22 59t-56 23q-36 0 -59 -23t-23 -59q0 -37 22.5 -59.5t59.5 -22.5q35 0 56.5 22.5t21.5 59.5z" />
    <glyph glyph-name="uni0E17" unicode="&#xe17;" horiz-adv-x="1318" 
d="M903 1128q127 0 195.5 -76.5t68.5 -217.5v-834h-286v795q0 73 -74 73q-104 0 -203 -272q-80 -224 -80 -420v-176h-280v555q0 71 12 117q-104 1 -170 65t-66 162q0 103 72 169.5t182 66.5t178 -65t68 -171v-221h8q73 450 375 450zM182 899q0 -37 22.5 -59.5t59.5 -22.5
q35 0 56.5 22.5t21.5 59.5q0 36 -22 59t-56 23q-36 0 -59 -23t-23 -59z" />
    <glyph glyph-name="uni0E18" unicode="&#xe18;" horiz-adv-x="1128" 
d="M434 0q-161 0 -235 59t-74 201v285h287v-273q0 -55 55 -55h207q38 0 53.5 20t15.5 62v139q0 68 -34 107.5t-125.5 63.5t-259.5 32l-218 10v176q0 146 86 231t259 85q87 0 210.5 -23.5t178.5 -23.5q63 0 97 4.5t87 21.5v-211q-78 -22 -172 -22q-72 0 -191 21.5t-163 21.5
q-66 0 -90.5 -20.5t-24.5 -75.5v-21l166 -12q142 -11 231.5 -33.5t147 -65.5t80 -105t22.5 -157v-163q0 -137 -80 -208t-235 -71h-281z" />
    <glyph glyph-name="uni0E19" unicode="&#xe19;" horiz-adv-x="1282" 
d="M1042 434q77 -20 120.5 -77t43.5 -136q0 -103 -68 -170t-173 -67q-104 0 -173 67t-69 170v10q-84 -61 -126 -108t-85 -123h-268v588q0 48 10 84q-104 3 -169 66t-65 161q0 103 72 169.5t182 66.5q115 0 185.5 -65t70.5 -171v-614q36 52 177 147q75 50 105 89.5t30 88.5
v508h286v-479q0 -73 -18.5 -118t-67.5 -87zM270 817q35 0 56.5 22.5t21.5 59.5q0 36 -22 59t-56 23q-36 0 -59 -23t-23 -59q0 -37 22.5 -59.5t59.5 -22.5zM965 139q35 0 57 22.5t22 59.5t-22 60.5t-57 23.5q-36 0 -58 -23t-22 -61q0 -37 21.5 -59.5t58.5 -22.5z" />
    <glyph glyph-name="uni0E1A" unicode="&#xe1a;" horiz-adv-x="1318" 
d="M889 1118h287v-727q0 -202 -120 -309t-347 -107q-229 0 -348 102.5t-119 299.5v217q0 45 8 78q-103 3 -167.5 66.5t-64.5 160.5q0 103 72 169.5t182 66.5q115 0 185.5 -65t70.5 -171v-520q0 -86 43.5 -126t137.5 -40t137 42.5t43 133.5v729zM186 899q0 -37 22.5 -59.5
t59.5 -22.5q34 0 56 23t22 59t-22 59t-56 23q-37 0 -59.5 -22.5t-22.5 -59.5z" />
    <glyph glyph-name="uni0E1B" unicode="&#xe1b;" horiz-adv-x="1323" 
d="M889 1430h287v-1039q0 -202 -120 -309t-347 -107q-229 0 -348 102.5t-119 299.5v217q0 45 8 78q-103 3 -167.5 66.5t-64.5 160.5q0 103 72 169.5t182 66.5q115 0 185.5 -65t70.5 -171v-520q0 -86 43.5 -126t137.5 -40t137 42.5t43 133.5v1041zM186 899q0 -37 22.5 -59.5
t59.5 -22.5q34 0 56 23t22 59t-22 59t-56 23q-37 0 -59.5 -22.5t-22.5 -59.5z" />
    <glyph glyph-name="uni0E1C" unicode="&#xe1c;" horiz-adv-x="1363" 
d="M922 1118h282v-1118h-295l-225 403l-219 -403h-305v899q0 104 72.5 170t187.5 66q110 0 180 -66.5t70 -169.5q0 -101 -65.5 -164t-168.5 -63h-2q4 -58 4 -86v-152q0 -108 -10 -213l205 387h104l195 -381q-10 105 -10 207v684zM420 981q-34 0 -56 -23t-22 -59
q0 -37 21.5 -59.5t56.5 -22.5q37 0 59.5 22.5t22.5 59.5t-22.5 59.5t-59.5 22.5z" />
    <glyph glyph-name="uni0E1D" unicode="&#xe1d;" horiz-adv-x="1368" 
d="M922 1430h282v-1430h-295l-225 403l-219 -403h-305v899q0 104 72.5 170t187.5 66q110 0 180 -66.5t70 -169.5q0 -101 -65.5 -164t-168.5 -63h-2q4 -58 4 -86v-152q0 -108 -10 -213l205 387h104l195 -381q-10 105 -10 207v996zM420 981q-34 0 -56 -23t-22 -59
q0 -37 21.5 -59.5t56.5 -22.5q37 0 59.5 22.5t22.5 59.5t-22.5 59.5t-59.5 22.5z" />
    <glyph glyph-name="uni0E1E" unicode="&#xe1e;" horiz-adv-x="1421" 
d="M987 1118h275v-1118h-361l-147 606l-146 -606h-356v553q0 41 8 119q-107 0 -173.5 63.5t-66.5 163.5q0 103 72 169.5t182 66.5q117 0 185.5 -64t68.5 -172v-147q0 -152 -16 -537h10l170 680h129l168 -680h12q-14 328 -14 537v366zM188 899q0 -37 22.5 -59.5t59.5 -22.5
q35 0 56.5 22.5t21.5 59.5q0 36 -22 59t-56 23q-36 0 -59 -23t-23 -59z" />
    <glyph glyph-name="uni0E1F" unicode="&#xe1f;" horiz-adv-x="1425" 
d="M987 1430h275v-1430h-361l-147 606l-146 -606h-356v553q0 41 8 119q-107 0 -173.5 63.5t-66.5 163.5q0 103 72 169.5t182 66.5q117 0 185.5 -64t68.5 -172v-147q0 -152 -16 -537h10l170 680h129l168 -680h12q-14 328 -14 537v678zM188 899q0 -37 22.5 -59.5t59.5 -22.5
q35 0 56.5 22.5t21.5 59.5q0 36 -22 59t-56 23q-36 0 -59 -23t-23 -59z" />
    <glyph glyph-name="uni0E20" unicode="&#xe20;" horiz-adv-x="1277" 
d="M666 1143q226 0 351.5 -106.5t125.5 -297.5v-739h-287v711q0 95 -52.5 144.5t-152.5 49.5q-69 0 -129 -25.5t-92 -68.5q54 -32 75 -77.5t21 -127.5v-319q0 -143 -69 -223t-193 -80q-107 0 -174 64t-67 167q0 100 63 161.5t164 61.5q-2 10 -2 31v117q0 89 -36 144.5
t-136 123.5q98 134 256.5 211.5t333.5 77.5zM264 133q37 0 59.5 22.5t22.5 59.5t-22.5 59.5t-59.5 22.5q-34 0 -56 -23t-22 -59q0 -37 21.5 -59.5t56.5 -22.5z" />
    <glyph glyph-name="uni0E21" unicode="&#xe21;" horiz-adv-x="1292" 
d="M846 1118h287v-1118h-271q-123 179 -307 270q8 -19 8 -49q0 -104 -71.5 -170.5t-182.5 -66.5t-182.5 66.5t-71.5 170.5q0 99 63 164t161 66q-5 23 -5 55v119q0 12 5 47q-102 6 -165 68.5t-63 158.5q0 103 72 169.5t182 66.5q115 0 185.5 -65t70.5 -171v-410
q189 -80 285 -178v807zM219 899q0 -37 22.5 -59.5t59.5 -22.5q35 0 56.5 22.5t21.5 59.5q0 36 -22 59t-56 23q-36 0 -59 -23t-23 -59zM309 139q35 0 57.5 22.5t22.5 59.5t-22.5 60.5t-57.5 23.5q-36 0 -58 -23t-22 -61q0 -37 21.5 -59.5t58.5 -22.5z" />
    <glyph glyph-name="uni0E22" unicode="&#xe22;" horiz-adv-x="1230" 
d="M801 1118h286v-712q0 -232 -113.5 -331.5t-377.5 -99.5q-267 0 -384.5 83.5t-117.5 273.5q0 91 49.5 156t141.5 94v8q-193 84 -193 284q0 114 75 187.5t191 73.5q113 0 180.5 -64.5t67.5 -171.5q0 -86 -53 -147.5t-133 -69.5q41 -53 145 -53h47v-176h-82
q-149 0 -149 -115q0 -69 48.5 -99t158.5 -30q121 0 167 40t46 146v723zM279 899q0 -37 21.5 -59.5t55.5 -22.5q37 0 59.5 22.5t22.5 59.5t-22.5 59.5t-59.5 22.5q-34 0 -55.5 -22.5t-21.5 -59.5z" />
    <glyph glyph-name="uni0E23" unicode="&#xe23;" horiz-adv-x="942" 
d="M432 922q-58 0 -85.5 -25.5t-27.5 -79.5v-16l62 -6q243 -25 337.5 -109.5t94.5 -279.5v-101q0 -155 -68 -238t-194 -83q-109 0 -177.5 63.5t-68.5 167.5q0 93 60.5 153.5t160.5 63.5v12v25q0 27 -4.5 44.5t-25 39t-59 35.5t-110 28t-173.5 23l-97 8v172q0 146 80.5 235
t245.5 89q80 0 180 -23.5t164 -23.5q65 0 117 14v-217q-52 -19 -113 -19q-49 0 -148 24t-151 24zM547 133q37 0 59.5 22.5t22.5 59.5q0 36 -23 59t-59 23q-35 0 -56.5 -23t-21.5 -59q0 -37 21.5 -59.5t56.5 -22.5z" />
    <glyph glyph-name="uni0E24" unicode="&#xe24;" horiz-adv-x="1243" 
d="M635 1143q229 0 355 -113.5t126 -318.5v-1121h-287v1104q0 100 -55 155.5t-153 55.5q-137 0 -248 -94q65 -42 65 -162v-131q0 -42 -6 -80q104 0 168 -61.5t64 -161.5q0 -103 -68 -167t-178 -64q-126 0 -194 83t-68 238v320q0 151 -103 229q126 141 274.5 215t307.5 74z
M496 215q0 36 -22 59t-56 23q-36 0 -59 -23t-23 -59q0 -37 22.5 -59.5t59.5 -22.5q35 0 56.5 22.5t21.5 59.5z" />
    <glyph glyph-name="uni0E25" unicode="&#xe25;" horiz-adv-x="1138" 
d="M522 1143q225 0 353.5 -110t128.5 -302v-731h-287v215q0 86 -23 154t-60 106.5t-78 58t-83 19.5q-55 0 -87 -25.5t-32 -68.5v-21h2q105 0 168.5 -62t63.5 -161q0 -104 -65.5 -167.5t-174.5 -63.5q-119 0 -193.5 78.5t-74.5 242.5v29q0 185 88.5 288t267.5 103
q87 0 162 -39.5t119 -99.5v116q0 99 -57.5 151t-163.5 52q-207 0 -371 -104v256q79 38 190 62t207 24zM430 215q0 34 -21 56t-55 22t-56 -22t-22 -56t22 -56t56 -22t55 22t21 56z" />
    <glyph glyph-name="uni0E26" unicode="&#xe26;" horiz-adv-x="1269" 
d="M666 1143q226 0 351.5 -106.5t125.5 -297.5v-1149h-287v1121q0 95 -52.5 144.5t-152.5 49.5q-69 0 -129 -25.5t-92 -68.5q54 -32 75 -77.5t21 -127.5v-319q0 -143 -69 -223t-193 -80q-107 0 -174 64t-67 167q0 100 63 161.5t164 61.5q-2 10 -2 31v117q0 90 -35.5 145.5
t-136.5 122.5q98 134 256.5 211.5t333.5 77.5zM264 133q37 0 59.5 22.5t22.5 59.5t-22.5 59.5t-59.5 22.5q-34 0 -56 -23t-22 -59q0 -37 21.5 -59.5t56.5 -22.5z" />
    <glyph glyph-name="uni0E27" unicode="&#xe27;" horiz-adv-x="983" 
d="M397 1143q459 0 459 -441v-397q0 -155 -68 -238t-194 -83q-110 0 -178 64t-68 167q0 98 62 160t163 63q-4 40 -4 60v196q0 211 -221 211q-136 0 -295 -108v254q165 92 344 92zM594 133q37 0 59.5 22.5t22.5 59.5t-22.5 59.5t-59.5 22.5q-34 0 -56 -23t-22 -59
q0 -37 21.5 -59.5t56.5 -22.5z" />
    <glyph glyph-name="uni0E28" unicode="&#xe28;" horiz-adv-x="1327" 
d="M1315 1155q-54 -160 -185 -283q60 -85 60 -225v-647h-279v684q0 23 -2 35q-42 -33 -108 -70q71 -55 71 -162q0 -93 -60 -147.5t-148 -54.5q-102 0 -158 71q-10 -22 -49 -71q-34 -40 -45 -62.5t-11 -54.5v-168h-270v688q0 210 140.5 332.5t383.5 122.5q107 0 198 -31
t151 -88q37 72 47 131h264zM692 692q83 55 162 148q-69 69 -201 69q-116 0 -186 -62t-70 -167v-221h9l45 96q65 139 215 139q18 0 26 -2zM662 420q29 0 48 19t19 48t-19 48.5t-48 19.5t-48.5 -19.5t-19.5 -48.5t19.5 -48t48.5 -19z" />
    <glyph glyph-name="uni0E29" unicode="&#xe29;" horiz-adv-x="1335" 
d="M1323 739v-229q-63 -32 -131 -49v-49q0 -214 -121.5 -325.5t-353.5 -111.5q-233 0 -354 107.5t-121 314.5v187q0 34 8 88q-103 3 -167.5 66t-64.5 161q0 103 72 169.5t182 66.5q115 0 185.5 -65t70.5 -171v-500q0 -97 46 -141.5t147 -44.5q100 0 144 46.5t44 150.5v22
q-123 3 -189.5 56t-66.5 147q0 72 53.5 123t129.5 51q35 0 73 -10v319h283v-442q93 42 131 63zM186 899q0 -37 22.5 -59.5t59.5 -22.5q34 0 56 23t22 59t-22 59t-56 23q-37 0 -59.5 -22.5t-22.5 -59.5zM836 565q27 0 43 17t16 45q0 29 -15.5 46t-43.5 17t-45 -17t-17 -46
q0 -28 17 -45t45 -17z" />
    <glyph glyph-name="uni0E2A" unicode="&#xe2a;" horiz-adv-x="1157" 
d="M1130 1155q-35 -148 -159 -258q37 -70 37 -170v-727h-287v215q0 138 -73.5 238t-174.5 100q-119 0 -119 -109v-6h2q104 0 168 -61.5t64 -161.5q0 -103 -68 -167t-178 -64q-126 0 -194 83t-68 238v29q0 150 64.5 242t187.5 118q81 32 120.5 48t112 53.5t121.5 74.5
q-62 41 -190 41q-209 0 -371 -104v250q180 86 381 86q88 0 173.5 -25.5t147.5 -68.5q25 69 31 106h272zM563 676q58 -25 105 -67.5t73 -94.5v238q-74 -38 -178 -76zM416 215q0 35 -20.5 58.5t-49.5 23.5t-49.5 -23.5t-20.5 -58.5t20.5 -58.5t49.5 -23.5t49.5 23.5t20.5 58.5
z" />
    <glyph glyph-name="uni0E2B" unicode="&#xe2b;" horiz-adv-x="1308" 
d="M1096 719q69 -60 69 -160v-559h-286v541q0 75 -74 75q-41 0 -83.5 -33t-105.5 -114q-47 -62 -66.5 -107t-19.5 -94v-268h-286v571q0 61 14 107h-2q-107 0 -171.5 60.5t-64.5 160.5q0 103 72 169.5t182 66.5q115 0 185.5 -65t70.5 -171v-309h9q29 57 108 127q55 46 121 61
q-43 53 -43 131q0 98 69.5 162t176.5 64q106 0 176 -64t70 -162q0 -66 -32 -115.5t-89 -74.5zM270 817q34 0 56 23t22 59t-22 59t-56 23q-37 0 -59.5 -22.5t-22.5 -59.5t22.5 -59.5t59.5 -22.5zM973 817q34 0 56 23t22 59t-22 59t-56 23q-37 0 -59.5 -22.5t-22.5 -59.5
t22.5 -59.5t59.5 -22.5z" />
    <glyph glyph-name="uni0E2C" unicode="&#xe2c;" horiz-adv-x="1458" 
d="M1303 1604q0 -160 -113 -285q80 -121 80 -313v-1006h-361l-151 608l-150 -608h-356v594q0 42 8 78q-106 0 -173 63.5t-67 163.5q0 103 72 169.5t182 66.5q118 0 187 -64t69 -172v-188q0 -145 -10 -447h10l156 631h143l162 -631h10q-10 284 -10 447v315q0 74 -16 143
q-97 -63 -264 -63q-155 0 -247.5 59.5t-92.5 157.5q0 113 92 177.5t250 64.5q198 0 338 -97q24 54 30 136h222zM606 1329q0 -31 29 -48t80 -17q108 0 178 61q-75 72 -193 72q-44 0 -69 -18t-25 -50zM188 899q0 -37 22.5 -59.5t59.5 -22.5q35 0 56.5 22.5t21.5 59.5
q0 36 -22 59t-56 23q-36 0 -59 -23t-23 -59z" />
    <glyph glyph-name="uni0E2D" unicode="&#xe2d;" horiz-adv-x="1142" 
d="M537 1143q229 0 360 -115.5t131 -316.5v-432q0 -137 -80 -208t-235 -71h-295q-161 0 -232 61t-71 199v236q0 112 67 177.5t183 65.5q100 0 162.5 -60t62.5 -157q0 -91 -55 -147.5t-146 -61.5q4 -16 4 -26v-15q0 -32 12 -43.5t44 -11.5h223q37 0 53 19.5t16 62.5v395
q0 101 -71 156t-203 55q-176 0 -340 -104v256q186 86 410 86zM365 596q-32 0 -53 -21t-21 -53t20.5 -51.5t53.5 -19.5q31 0 50 19.5t19 51.5t-19 53t-50 21z" />
    <glyph glyph-name="uni0E2E" unicode="&#xe2e;" horiz-adv-x="1148" 
d="M1077 1155q-18 -107 -119 -237q72 -89 72 -256v-383q0 -137 -80 -208t-235 -71h-299q-161 0 -232 61t-71 199v170q0 101 60 161t163 60q93 0 151 -52t58 -136q0 -67 -45 -114.5t-113 -55.5q4 -16 4 -27v-12q0 -37 43 -37h240q37 0 53 19.5t16 62.5v399q0 38 -6 68
q-121 -80 -295 -80q-151 0 -241 59.5t-90 157.5q0 104 105.5 172t266.5 68q187 0 320 -86q19 56 22 98h252zM481 844q124 0 191 61q-72 78 -195 78q-54 0 -85.5 -19t-31.5 -53q0 -31 32.5 -49t88.5 -18zM338 520q-28 0 -46 -17.5t-18 -45.5t18 -45t46 -17q26 0 42.5 17
t16.5 45t-16.5 45.5t-42.5 17.5z" />
    <glyph glyph-name="uni0E2F" unicode="&#xe2f;" horiz-adv-x="1136" 
d="M690 1118h287v-1118h-287v541q-43 -59 -120.5 -91t-163.5 -32q-167 0 -271 110.5t-104 288.5q0 145 76 233.5t212 88.5q106 0 171 -60.5t65 -154.5q0 -97 -59 -155t-156 -58q-25 0 -37 2q36 -74 139 -74q48 0 91 18.5t79 57t57 106.5t21 158v139zM324 995
q-31 0 -50.5 -19.5t-19.5 -51.5t19.5 -52t50.5 -20t50 20t19 52t-19 51.5t-50 19.5z" />
    <glyph glyph-name="uni0E30" unicode="&#xe30;" horiz-adv-x="796" 
d="M459 807q51 6 127.5 41t142.5 82v-213q-105 -53 -188.5 -74.5t-184.5 -21.5q-157 0 -244 64.5t-87 180.5q0 93 64.5 151t168.5 58q95 0 155 -52.5t60 -137.5q0 -46 -14 -78zM252 793q33 0 53.5 19.5t20.5 51.5t-21 52t-53 20t-53 -20t-21 -52t20.5 -51.5t53.5 -19.5z
M473 313q0 -45 -14 -77q51 6 127.5 40.5t142.5 81.5v-213q-103 -52 -189 -74t-190 -22q-152 0 -238.5 65.5t-86.5 180.5q0 93 64.5 151t168.5 58q95 0 155 -53t60 -138zM252 221q32 0 53 20t21 52t-21 52t-53 20t-53 -20t-21 -52t21 -52t53 -20z" />
    <glyph glyph-name="uni0E31" unicode="&#xe31;" 
d="M-330 1417q100 5 209 44.5t182 99.5v-220q-68 -42 -201.5 -70t-267.5 -28q-158 0 -250 69.5t-92 188.5q0 90 67 149.5t169 59.5q88 0 147.5 -56t59.5 -138q0 -60 -23 -99zM-522 1427q29 0 47 19.5t18 50.5t-18 50.5t-47 19.5q-31 0 -50.5 -19.5t-19.5 -50.5t19.5 -50.5
t50.5 -19.5z" />
    <glyph glyph-name="uni0E32" unicode="&#xe32;" horiz-adv-x="839" 
d="M406 0v721q0 101 -36.5 143.5t-127.5 42.5q-110 0 -199 -49v232q115 53 264 53q188 0 286.5 -85.5t98.5 -252.5v-805h-286z" />
    <glyph glyph-name="uni0E33" unicode="&#xe33;" horiz-adv-x="839" 
d="M-293 1231q-117 0 -186.5 58.5t-69.5 156.5t69.5 156.5t186.5 58.5t186.5 -58.5t69.5 -156.5t-69.5 -156.5t-186.5 -58.5zM-293 1364q35 0 56.5 22.5t21.5 59.5q0 38 -21.5 61t-56.5 23t-56.5 -23t-21.5 -61q0 -37 21.5 -59.5t56.5 -22.5zM406 0v721q0 101 -36.5 143.5
t-127.5 42.5q-110 0 -199 -49v232q115 53 264 53q188 0 286.5 -85.5t98.5 -252.5v-805h-286z" />
    <glyph glyph-name="uni0E34" unicode="&#xe34;" 
d="M-1077 1243v143q41 121 174.5 197t302.5 76q162 0 284 -70.5t185 -202.5v-143h-946zM-821 1393h434v8q-29 40 -88.5 64t-130.5 24q-81 0 -139.5 -24t-75.5 -64v-8z" />
    <glyph glyph-name="uni0E35" unicode="&#xe35;" 
d="M-362 1708h231v-465h-946v143q38 121 151 197t256 76q89 0 170.5 -35t143.5 -100q-6 38 -6 63v121zM-457 1393v8q-70 92 -209 92q-150 0 -208 -92v-8h417z" />
    <glyph glyph-name="uni0E36" unicode="&#xe36;" 
d="M-18 1530q0 -58 -30 -101t-83 -63v-123h-946v143q38 122 149.5 197.5t253.5 75.5q144 0 252 -80q14 65 65.5 102t129.5 37q95 0 152 -51t57 -137zM-287 1530q0 -26 17 -43t43 -17q27 0 44 17t17 43t-16.5 42.5t-44.5 16.5q-26 0 -43 -16.5t-17 -42.5zM-416 1393v8
q-30 40 -103 66t-147 26q-150 0 -208 -92v-8h458z" />
    <glyph glyph-name="uni0E37" unicode="&#xe37;" 
d="M-311 1708h180v-465h-946v143q38 123 139 198t229 75q77 0 154 -25q-2 12 -2 33v41h164v-172q46 -50 74 -109h8v281zM-457 1393v8q-70 92 -209 92q-150 0 -208 -92v-8h417z" />
    <glyph glyph-name="uni0E38" unicode="&#xe38;" 
d="M-477 -119q108 0 167.5 -68t59.5 -192v-266h-248v127v6q-88 3 -140 55.5t-52 137.5q0 89 59 144.5t154 55.5zM-541 -319q0 -30 17 -50t43 -20t43.5 19.5t17.5 50.5t-17.5 51t-43.5 20q-25 0 -42.5 -20.5t-17.5 -50.5z" />
    <glyph glyph-name="uni0E39" unicode="&#xe39;" 
d="M-350 -135h219v-309q0 -100 -66 -145.5t-213 -45.5q-132 0 -196.5 39.5t-67.5 122.5q-77 2 -128.5 51t-51.5 121q0 79 55 130.5t140 51.5t131.5 -48t46.5 -136v-111q0 -57 67 -57q64 0 64 57v279zM-727 -295q0 -23 15 -38t40 -15t39.5 14t14.5 39t-15 40t-39 15
q-23 0 -39 -16t-16 -39z" />
    <glyph glyph-name="uni0E3A" unicode="&#xe3a;" 
d="M-276 -442q-71 0 -113.5 42.5t-42.5 112.5q0 73 42.5 116.5t113.5 43.5q73 0 116 -43t43 -117q0 -71 -43 -113t-116 -42z" />
    <glyph glyph-name="uni0E3F" unicode="&#xe3f;" horiz-adv-x="1361" 
d="M977 737q138 -26 220.5 -117.5t82.5 -220.5q0 -164 -126.5 -261t-340.5 -97h-14v-225h-234v225h-407v1348h407v208h234v-208q195 0 311.5 -91t116.5 -243q0 -109 -67.5 -194t-182.5 -120v-4zM451 1141v-305h135v305h-135zM926 993q0 137 -146 146v-303q70 6 108 46.5
t38 110.5zM451 598v-309h135v309h-135zM795 289q86 0 134 41t48 116q0 74 -50 113t-145 39h-2v-309h15z" />
    <glyph glyph-name="uni0E40" unicode="&#xe40;" horiz-adv-x="704" 
d="M453 438q102 -1 164.5 -62.5t62.5 -160.5q0 -104 -67.5 -167.5t-176.5 -63.5q-127 0 -195.5 82.5t-68.5 236.5v815h287v-590q0 -50 -6 -90zM434 133q35 0 56.5 22.5t21.5 59.5q0 36 -22 59t-56 23q-36 0 -59 -23t-23 -59q0 -37 22.5 -59.5t59.5 -22.5z" />
    <glyph glyph-name="uni0E41" unicode="&#xe41;" horiz-adv-x="1247" 
d="M453 438q102 -1 164.5 -62.5t62.5 -160.5q0 -104 -67.5 -167.5t-176.5 -63.5q-127 0 -195.5 82.5t-68.5 236.5v815h287v-590q0 -50 -6 -90zM995 438q103 -1 165.5 -63t62.5 -160q0 -104 -67.5 -167.5t-176.5 -63.5q-127 0 -195.5 82.5t-68.5 236.5v815h286v-590
q0 -50 -6 -90zM434 133q35 0 56.5 22.5t21.5 59.5q0 36 -22 59t-56 23q-36 0 -59 -23t-23 -59q0 -37 22.5 -59.5t59.5 -22.5zM977 133q35 0 56.5 22.5t21.5 59.5q0 36 -22 59t-56 23q-36 0 -59 -23t-23 -59q0 -37 22.5 -59.5t59.5 -22.5z" />
    <glyph glyph-name="uni0E42" unicode="&#xe42;" horiz-adv-x="794" 
d="M403 1552q-57 0 -83.5 -22.5t-26.5 -71.5v-18l53 -6q126 -13 172.5 -88t46.5 -261v-567q0 -42 -6 -80q102 -1 164.5 -62.5t62.5 -160.5q0 -104 -67 -167.5t-176 -63.5q-119 0 -191.5 77.5t-72.5 241.5v819q0 78 -33 111.5t-121 42.5l-96 10v168q0 144 76.5 234t226.5 90
q80 0 174.5 -23.5t157.5 -23.5q97 0 155 22v-217q-49 -27 -139 -27q-71 0 -149.5 21.5t-127.5 21.5zM618 215q0 36 -21 59t-56 23q-36 0 -59 -23t-23 -59q0 -37 22.5 -59.5t59.5 -22.5q35 0 56 22.5t21 59.5z" />
    <glyph glyph-name="uni0E43" unicode="&#xe43;" horiz-adv-x="770" 
d="M502 438q102 -1 164.5 -62.5t62.5 -160.5q0 -104 -67.5 -167.5t-176.5 -63.5q-119 0 -191.5 77.5t-72.5 241.5v528q0 73 27 137t65 112t76 95.5t65 109t27 130.5q0 84 -45.5 136.5t-113.5 52.5q-78 0 -123 -45q8 2 26 2q78 0 125 -45t47 -121q0 -83 -51 -132t-139 -49
q-109 0 -165 76.5t-56 190.5q0 136 110 227.5t264 91.5q187 0 283 -96.5t96 -263.5q0 -76 -24 -144.5t-57.5 -123t-67.5 -109.5t-58 -127.5t-24 -153.5v-264q0 -42 -6 -80zM276 1391q0 29 -18 47t-47 18t-47.5 -18t-18.5 -47t18.5 -47.5t47.5 -18.5t47 18.5t18 47.5z
M483 133q35 0 56.5 22.5t21.5 59.5q0 36 -21.5 59t-56.5 23q-36 0 -59 -23t-23 -59q0 -37 22.5 -59.5t59.5 -22.5z" />
    <glyph glyph-name="uni0E44" unicode="&#xe44;" horiz-adv-x="790" 
d="M522 438q103 -1 165.5 -63t62.5 -160q0 -104 -67.5 -167.5t-176.5 -63.5q-127 0 -195.5 82.5t-68.5 236.5v653q0 343 282 586l-18 27l-270 -211h-29q-152 149 -252 190v244q174 -25 332 -197l252 177q185 -30 247 -232q-119 -77 -188.5 -224.5t-69.5 -322.5v-475
q0 -42 -6 -80zM504 133q35 0 56.5 22.5t21.5 59.5q0 36 -22 59t-56 23q-36 0 -59 -23t-23 -59q0 -37 22.5 -59.5t59.5 -22.5z" />
    <glyph glyph-name="uni0E45" unicode="&#xe45;" horiz-adv-x="839" 
d="M406 -410v1131q0 101 -36.5 143.5t-127.5 42.5q-110 0 -199 -49v232q115 53 264 53q188 0 286.5 -85.5t98.5 -252.5v-1215h-286z" />
    <glyph glyph-name="uni0E46" unicode="&#xe46;" horiz-adv-x="1253" 
d="M739 1130q186 -20 259 -127t73 -360v-1053h-287v1119q0 122 -45 151l-145 -102h-41l-145 104q-91 -37 -91 -157q24 6 56 6q107 0 169 -58.5t62 -158.5q0 -104 -65.5 -165t-178.5 -61q-138 0 -217.5 104t-79.5 285q0 195 93 318t264 155l151 -141h9zM440 492
q0 32 -19.5 51.5t-51.5 19.5t-52 -19.5t-20 -51.5t20 -52t52 -20t51.5 20t19.5 52z" />
    <glyph glyph-name="uni0E47" unicode="&#xe47;" 
d="M-352 1563q78 0 122 -45t44 -121q0 -65 -47.5 -111.5t-137.5 -46.5q-46 0 -89 17t-79 34t-65 17q-67 0 -107 -72q-116 15 -193 86.5t-77 198.5q0 52 17 100t51 88.5t92.5 65t132.5 24.5q46 0 112 -6t109 -6q123 0 264 61v-200q-113 -41 -254 -41q-43 0 -102 8t-90 8
q-50 0 -81.5 -28.5t-31.5 -75.5q0 -31 10.5 -54t21.5 -33.5t30 -23.5q38 66 102 66q48 0 90 -39q8 57 49.5 93t106.5 36zM-354 1350q25 0 39 14t14 39t-14 39t-39 14t-39.5 -14t-14.5 -39t14.5 -39t39.5 -14z" />
    <glyph glyph-name="uni0E48" unicode="&#xe48;" 
d="M-408 1243v412h267v-412h-267z" />
    <glyph glyph-name="uni0E49" unicode="&#xe49;" 
d="M-377 1419q192 69 379 250v-276q-98 -63 -279 -106.5t-346 -43.5h-73v133q76 11 143 47q-72 12 -114 57.5t-42 112.5q0 88 54.5 138.5t148.5 50.5t149.5 -51.5t55.5 -139.5q0 -96 -76 -172zM-504 1661q-29 0 -46 -17.5t-17 -46.5t17 -46t46 -17t46.5 17t17.5 46
t-17.5 46.5t-46.5 17.5z" />
    <glyph glyph-name="uni0E4A" unicode="&#xe4a;" 
d="M-260 1397q135 59 248 186v-237q-56 -41 -159.5 -72.5t-184.5 -34.5q-43 12 -70 48.5t-27 82.5q45 45 45 125q0 60 -41 90h-4l-77 -67h-13q-51 73 -131 73q-33 0 -58 -14t-32 -37q8 2 29 2q69 0 114.5 -42.5t45.5 -106.5q0 -66 -47.5 -110t-120.5 -44q-90 0 -140.5 62.5
t-50.5 173.5q0 119 68.5 194.5t175.5 75.5q113 0 182 -90l82 90q97 -6 150 -63t53 -156q0 -71 -37 -129zM-694 1391q0 23 -14 38t-37 15t-37.5 -15t-14.5 -38t14.5 -38.5t37.5 -15.5t37 15t14 39z" />
    <glyph glyph-name="uni0E4B" unicode="&#xe4b;" 
d="M-8 1563v-174h-152v-146h-229v146h-152v174h152v145h229v-145h152z" />
    <glyph glyph-name="uni0E4C" unicode="&#xe4c;" 
d="M-37 1821v-213q-34 -21 -105.5 -44.5t-123.5 -33.5q78 -40 78 -125q0 -77 -55 -125.5t-142 -48.5q-95 0 -153 52t-58 138q0 74 52 129t167 99q238 91 340 172zM-387 1350q23 0 37 15t14 38t-14 38t-37 15t-37 -15t-14 -38t14 -38t37 -15z" />
    <glyph glyph-name="uni0E4D" unicode="&#xe4d;" 
d="M-285 1231q-117 0 -186.5 58.5t-69.5 156.5t69.5 156.5t186.5 58.5t186.5 -58.5t69.5 -156.5t-69.5 -156.5t-186.5 -58.5zM-285 1364q35 0 56.5 22.5t21.5 59.5q0 38 -21.5 61t-56.5 23t-56 -23t-21 -61q0 -37 21 -59.5t56 -22.5z" />
    <glyph glyph-name="uni0E4E" unicode="&#xe4e;" 
d="M-242 1669q-57 0 -57 -45q0 -47 98 -70v-98q-57 14 -114 14q-41 0 -64.5 -17t-23.5 -46q0 -51 75 -51q41 0 90 14v-113q-52 -22 -133 -22q-239 0 -239 143q0 64 35 105t102 53q-29 32 -29 80q0 80 53.5 129t149.5 49q107 0 182 -35v-121q-76 31 -125 31z" />
    <glyph glyph-name="uni0E4F" unicode="&#xe4f;" horiz-adv-x="1228" 
d="M614 -2q-246 0 -401.5 152t-155.5 391t155.5 390.5t401.5 151.5t401.5 -151.5t155.5 -390.5t-155.5 -391t-401.5 -152zM614 168q166 0 270.5 104.5t104.5 268.5t-104.5 268t-270.5 104t-270 -104t-104 -268q0 -165 104 -269t270 -104zM614 264q-123 0 -200.5 77
t-77.5 200t77.5 199.5t200.5 76.5t201 -76.5t78 -199.5t-78 -200t-201 -77zM614 418q52 0 84.5 34.5t32.5 88.5t-32.5 88.5t-84.5 34.5t-84 -34.5t-32 -88.5t32 -88.5t84 -34.5z" />
    <glyph glyph-name="uni0E50" unicode="&#xe50;" horiz-adv-x="1153" 
d="M575 -25q-221 0 -355 142t-134 379q0 240 134 382t355 142q223 0 357.5 -142t134.5 -382q0 -237 -135 -379t-357 -142zM575 201q84 0 134.5 79.5t50.5 215.5q0 137 -50.5 218t-134.5 81q-82 0 -132 -81t-50 -218q0 -136 50 -215.5t132 -79.5z" />
    <glyph glyph-name="uni0E51" unicode="&#xe51;" horiz-adv-x="1146" 
d="M535 1020q239 0 380.5 -134.5t141.5 -361.5q0 -283 -183 -480t-501 -257v260q183 41 291 167.5t108 297.5q0 133 -61 208t-168 75q-95 0 -155 -60t-60 -155q0 -27 2 -37q47 47 133 47q88 0 141 -53.5t53 -141.5q0 -92 -66.5 -147t-178.5 -55q-157 0 -256 107.5t-99 279.5
q0 195 133 317.5t345 122.5zM442 461q-29 0 -48 -19.5t-19 -48.5t19 -48t48 -19t48.5 19t19.5 48t-19.5 48.5t-48.5 19.5z" />
    <glyph glyph-name="uni0E52" unicode="&#xe52;" horiz-adv-x="1382" 
d="M991 1008q149 -29 217 -118t68 -255v-225q0 -220 -145 -327.5t-441 -107.5q-288 0 -436 111t-148 326v788h302v-792q0 -92 74 -141.5t212 -49.5q287 0 287 189v239q0 57 -10.5 82.5t-38.5 34.5l-66 -47h-12l-68 47q-40 -12 -47 -90q68 -6 109 -51.5t41 -114.5
q0 -78 -49.5 -126t-130.5 -48q-106 0 -163 69.5t-57 200.5q0 173 70.5 277t204.5 129l102 -99h8zM762 504q0 26 -15.5 41.5t-41.5 15.5t-42 -15.5t-16 -41.5t16 -42t42 -16t41.5 16t15.5 42z" />
    <glyph glyph-name="uni0E53" unicode="&#xe53;" horiz-adv-x="1273" 
d="M915 1020q125 0 197 -76.5t72 -208.5v-735h-297v676q0 51 -13.5 72.5t-44.5 21.5q-59 0 -59 -84v-223h-248v235q0 72 -55 72q-49 0 -70.5 -55t-21.5 -180q0 -83 18 -164q35 12 78 12q89 0 142 -53t53 -142q0 -91 -62 -147.5t-160 -56.5q-170 0 -264 138.5t-94 387.5
q0 250 89 380t261 130q77 0 136 -40t85 -110h9q35 71 100.5 110.5t148.5 39.5zM516 182q0 31 -19.5 50.5t-50.5 19.5t-50 -19.5t-19 -50.5t19 -50t50 -19t50.5 19t19.5 50z" />
    <glyph glyph-name="uni0E54" unicode="&#xe54;" horiz-adv-x="1091" 
d="M637 754q-130 0 -191 -64.5t-61 -202.5q0 -130 59 -190.5t185 -60.5h37q-47 30 -77 81t-30 107q0 88 59 142.5t154 54.5t151 -51.5t56 -137.5q0 -69 -36 -114.5t-99 -57.5q54 -29 125 -29h41v-231h-461q-226 0 -346.5 126.5t-120.5 362.5q0 249 119 377.5t348 128.5h49
q68 0 90.5 25t22.5 100v80h303v-121q0 -184 -63 -254.5t-228 -70.5h-86zM766 492q-31 0 -50.5 -19.5t-19.5 -50.5t19.5 -50.5t50.5 -19.5t50.5 19.5t19.5 50.5t-19.5 50.5t-50.5 19.5z" />
    <glyph glyph-name="uni0E55" unicode="&#xe55;" horiz-adv-x="1091" 
d="M637 762q-131 0 -191.5 -66.5t-60.5 -208.5q0 -130 59 -190.5t185 -60.5h37q-47 30 -77 81t-30 107q0 88 59 142.5t154 54.5t151 -51.5t56 -137.5q0 -69 -36 -114.5t-99 -57.5q54 -29 125 -29h41v-231h-461q-226 0 -346.5 126.5t-120.5 362.5q0 280 176 414
q-63 57 -63 154q0 95 62.5 153t166.5 58t166.5 -58t62.5 -153q0 -39 -8 -66q54 4 72 31t18 98v80h279v-121q0 -177 -69 -247t-243 -70h-65zM424 1124q-29 0 -48.5 -19t-19.5 -48t19.5 -48.5t48.5 -19.5t48.5 19.5t19.5 48.5t-19.5 48t-48.5 19zM766 492q-31 0 -50.5 -19.5
t-19.5 -50.5t19.5 -50.5t50.5 -19.5t50.5 19.5t19.5 50.5t-19.5 50.5t-50.5 19.5z" />
    <glyph glyph-name="uni0E56" unicode="&#xe56;" horiz-adv-x="1122" 
d="M633 1020q187 0 295 -136t108 -372q0 -253 -128 -395t-357 -142q-195 0 -313.5 106.5t-118.5 283.5q0 103 57.5 163t157.5 60q91 0 147 -53t56 -138q0 -64 -32 -108.5t-85 -59.5q46 -30 106 -30q98 0 150.5 76t52.5 221q0 136 -48.5 210t-137.5 74q-62 0 -105 -31.5
t-53 -86.5h-258l-94 538h295l41 -305q42 59 110.5 92t153.5 33zM258 387q0 -31 19.5 -50.5t50.5 -19.5t50 19.5t19 50.5t-19 50.5t-50 19.5t-50.5 -19.5t-19.5 -50.5z" />
    <glyph glyph-name="uni0E57" unicode="&#xe57;" horiz-adv-x="1699" 
d="M1292 1200h301v-797q0 -207 -129.5 -305t-404.5 -98h-170v678q0 49 -14.5 70.5t-45.5 21.5q-59 0 -59 -94v-213h-256v229q0 78 -49 78q-47 0 -68.5 -57t-21.5 -185q0 -81 16 -159q32 14 80 14q89 0 142 -53t53 -142q0 -91 -62 -147.5t-160 -56.5q-170 0 -264 138t-94 388
q0 510 340 510q170 0 227 -150h9q64 150 243 150q135 0 200.5 -84.5t65.5 -257.5v-428q68 10 94.5 45t26.5 111v794zM516 182q0 31 -19.5 50.5t-50.5 19.5t-50 -19.5t-19 -50.5t19 -50t50 -19t50.5 19t19.5 50z" />
    <glyph glyph-name="uni0E58" unicode="&#xe58;" horiz-adv-x="1263" 
d="M975 674q100 0 155.5 -63.5t55.5 -178.5q0 -209 -80.5 -328.5t-218.5 -119.5q-103 0 -173 58.5t-98 170.5h-6l-61 -221h-19q-217 0 -332.5 130.5t-115.5 373.5q0 238 124.5 368.5t350.5 130.5h174q68 0 90.5 25t22.5 100v80h307v-121q0 -175 -76 -250t-254 -75h-203
q-117 0 -173 -63.5t-56 -194.5q0 -190 78 -236l68 180h143q22 -103 66.5 -158t107.5 -55q69 0 92 66q-78 3 -129 57t-51 133q0 83 59.5 137t151.5 54zM971 406q31 0 50 19t19 50t-19 50.5t-50 19.5t-50.5 -19.5t-19.5 -50.5t19.5 -50t50.5 -19z" />
    <glyph glyph-name="uni0E59" unicode="&#xe59;" horiz-adv-x="1157" 
d="M993 846q-96 -43 -121 -84t2 -111l246 -651h-299l-223 598q-40 106 -64.5 139t-62.5 33q-52 0 -74 -55.5t-22 -186.5q0 -86 18 -157q35 12 78 12q89 0 142 -53t53 -142q0 -91 -62 -147.5t-160 -56.5q-170 0 -264 138t-94 388q0 252 81 381t241 129q169 0 254 -113
q5 36 27.5 58.5t82.5 50.5t77 49.5t17 67.5v67h283v-82q0 -127 -29.5 -178t-126.5 -94zM516 182q0 31 -19.5 50.5t-50.5 19.5t-50 -19.5t-19 -50.5t19 -50t50 -19t50.5 19t19.5 50z" />
    <glyph glyph-name="uni0E5A" unicode="&#xe5a;" horiz-adv-x="1693" 
d="M1247 1118h287v-1118h-287v580q-37 -73 -109 -115.5t-161 -42.5v-422h-287v541q-43 -59 -120.5 -91t-163.5 -32q-167 0 -271 110.5t-104 288.5q0 145 76 233.5t212 88.5q106 0 171 -60.5t65 -154.5q0 -97 -59 -155t-156 -58q-25 0 -37 2q36 -74 139 -74q48 0 91 18.5
t79 57t57 106.5t21 158v139h287v-467h27q107 0 175 99.5t68 255.5v112zM324 995q-31 0 -50.5 -19.5t-19.5 -51.5t19.5 -52t50.5 -20t50 20t19 52t-19 51.5t-50 19.5z" />
    <glyph glyph-name="uni0E5B" unicode="&#xe5b;" horiz-adv-x="1652" 
d="M1563 516q21 0 45 4v-237q-24 -9 -74 -9q-86 0 -149.5 53.5t-88.5 145.5h-6l-55 -270h-240l-80 372h-6q-26 -238 -136.5 -363.5t-293.5 -125.5q-195 0 -312.5 118.5t-117.5 313.5q0 191 105.5 309.5t275.5 118.5q120 0 191 -62.5t71 -166.5q0 -101 -63 -166.5t-160 -65.5
q-89 0 -154 58q-4 -24 -4 -41q0 -88 50 -139.5t135 -51.5q249 0 258 480h311l59 -400h6l50 311h192q17 -90 66.5 -138t124.5 -48zM461 786q-32 0 -52 -20.5t-20 -54.5t20 -55t52 -21t51.5 21t19.5 55t-19.5 54.5t-51.5 20.5z" />
    <glyph glyph-name="uni200B" unicode="&#x200b;" 
 />
    <glyph glyph-name="uni200C" unicode="&#x200c;" 
 />
    <glyph glyph-name="uni200D" unicode="&#x200d;" 
 />
    <glyph glyph-name="endash" unicode="&#x2013;" horiz-adv-x="1187" 
d="M82 506v237h1024v-237h-1024z" />
    <glyph glyph-name="emdash" unicode="&#x2014;" horiz-adv-x="1597" 
d="M82 506v237h1434v-237h-1434z" />
    <glyph glyph-name="quoteleft" unicode="&#x2018;" horiz-adv-x="634" 
d="M317 1247q79 3 124.5 -41.5t45.5 -126.5q0 -78 -46.5 -125t-125.5 -47q-82 0 -125 48t-43 137q0 100 54.5 210.5t154.5 213.5h193q-160 -126 -232 -269z" />
    <glyph glyph-name="quoteright" unicode="&#x2019;" horiz-adv-x="634" 
d="M319 1540q82 0 125 -47.5t43 -136.5q0 -100 -54 -210.5t-154 -213.5h-193q160 125 231 268q-79 -3 -124.5 41.5t-45.5 126.5q0 79 47 125.5t125 46.5z" />
    <glyph glyph-name="quotesinglbase" unicode="&#x201a;" horiz-adv-x="634" 
d="M319 356q82 0 125 -47.5t43 -136.5q0 -100 -54 -210.5t-154 -213.5h-193q160 125 231 268q-79 -3 -124.5 41.5t-45.5 126.5q0 79 47 125.5t125 46.5z" />
    <glyph glyph-name="quotedblleft" unicode="&#x201c;" horiz-adv-x="1079" 
d="M549 1516q-160 -126 -232 -269q79 3 124.5 -41.5t45.5 -126.5q0 -78 -46.5 -125t-125.5 -47q-82 0 -125 48t-43 137q0 100 54.5 210.5t154.5 213.5h193zM762 1247q79 3 124.5 -41.5t45.5 -126.5q0 -78 -46.5 -125t-125.5 -47q-82 0 -125 48t-43 137q0 100 54.5 210.5
t154.5 213.5h192q-159 -125 -231 -269z" />
    <glyph glyph-name="quotedblright" unicode="&#x201d;" horiz-adv-x="1079" 
d="M319 1540q82 0 125 -47.5t43 -136.5q0 -100 -54 -210.5t-154 -213.5h-193q160 125 231 268q-79 -3 -124.5 41.5t-45.5 126.5q0 79 47 125.5t125 46.5zM764 1540q82 0 125 -47.5t43 -136.5q0 -100 -54.5 -210.5t-154.5 -213.5h-193q161 126 232 268q-79 -3 -124.5 41.5
t-45.5 126.5q0 79 47 125.5t125 46.5z" />
    <glyph glyph-name="quotedblbase" unicode="&#x201e;" horiz-adv-x="1079" 
d="M319 356q82 0 125 -47.5t43 -136.5q0 -100 -54 -210.5t-154 -213.5h-193q160 125 231 268q-79 -3 -124.5 41.5t-45.5 126.5q0 79 47 125.5t125 46.5zM764 356q82 0 125 -47.5t43 -136.5q0 -100 -54.5 -210.5t-154.5 -213.5h-193q161 126 232 268q-79 -3 -124.5 41.5
t-45.5 126.5q0 79 47 125.5t125 46.5z" />
    <glyph glyph-name="dagger" unicode="&#x2020;" horiz-adv-x="1093" 
d="M418 -410v1246h-352v221h352v459h258v-459h352v-221h-352v-1246h-258z" />
    <glyph glyph-name="daggerdbl" unicode="&#x2021;" horiz-adv-x="1093" 
d="M418 -410v459h-352v221h352v566h-352v221h352v459h258v-459h352v-221h-352v-566h352v-221h-352v-459h-258z" />
    <glyph glyph-name="bullet" unicode="&#x2022;" horiz-adv-x="868" 
d="M434 291q-132 0 -209.5 80t-77.5 215t77.5 215t209.5 80t209.5 -80t77.5 -215t-77.5 -215t-209.5 -80z" />
    <glyph glyph-name="ellipsis" unicode="&#x2026;" horiz-adv-x="1724" 
d="M317 -25q-78 0 -124 47.5t-46 127.5t46 127t124 47t124 -47t46 -127t-46 -127.5t-124 -47.5zM862 -25q-78 0 -124 47.5t-46 127.5t46 127t124 47t124 -47t46 -127t-46 -127.5t-124 -47.5zM1407 -25q-78 0 -124 47.5t-46 127.5t46 127t124 47t124 -47t46 -127t-46 -127.5
t-124 -47.5z" />
    <glyph glyph-name="perthousand" unicode="&#x2030;" horiz-adv-x="2830" 
d="M471 643q-169 0 -269 110t-100 296t100 295.5t269 109.5t269 -109.5t100 -295.5t-100 -296t-269 -110zM367 0l991 1430h270l-991 -1430h-270zM471 819q55 0 85 60t30 170t-30 169.5t-85 59.5t-85 -59.5t-30 -169.5t30 -170t85 -60zM1524 -25q-169 0 -269 110t-100 296
t100 295.5t269 109.5t268.5 -109.5t99.5 -295.5t-99.5 -296t-268.5 -110zM2359 -25q-169 0 -268.5 110t-99.5 296t99.5 295.5t268.5 109.5t269 -109.5t100 -295.5t-100 -296t-269 -110zM1524 152q55 0 84.5 59t29.5 170t-29.5 170t-84.5 59t-85 -59.5t-30 -169.5t30 -169.5
t85 -59.5zM2359 152q55 0 85 59.5t30 169.5t-30 169.5t-85 59.5t-84.5 -59t-29.5 -170t29.5 -170t84.5 -59z" />
    <glyph glyph-name="guilsinglleft" unicode="&#x2039;" horiz-adv-x="649" 
d="M547 66l-469 403v176l469 404v-224l-225 -268l225 -268v-223z" />
    <glyph glyph-name="guilsinglright" unicode="&#x203a;" horiz-adv-x="649" 
d="M102 66v223l226 268l-226 268v224l469 -404v-176z" />
    <glyph glyph-name="fraction" unicode="&#x2044;" horiz-adv-x="301" 
d="M-502 0l1084 1430h221l-1084 -1430h-221z" />
    <glyph glyph-name="uni2060" unicode="&#x2060;" 
 />
    <glyph glyph-name="Euro" unicode="&#x20ac;" horiz-adv-x="1228" 
d="M825 1196q-128 0 -218 -58t-134 -169h445v-185h-486q-2 -23 -2 -69q0 -47 2 -70h486v-184h-445q45 -111 134.5 -169.5t217.5 -58.5q99 0 196.5 37t170.5 103v-279q-150 -119 -399 -119q-317 0 -504 200t-187 540q0 339 187 539t504 200q249 0 399 -119v-278
q-73 66 -170.5 102.5t-196.5 36.5z" />
    <glyph glyph-name="trademark" unicode="&#x2122;" horiz-adv-x="1257" 
d="M186 838v469h-137v123h449v-123h-140v-469h-172zM559 838v592h172l127 -256h2l127 256h164v-592h-139v368h-2l-119 -221h-66l-116 221h-2v-368h-148z" />
    <glyph glyph-name="partialdiff" unicode="&#x2202;" horiz-adv-x="1202" 
d="M604 -25q-241 0 -383.5 148t-142.5 399q0 233 108 371.5t291 138.5q116 0 204.5 -56.5t135.5 -160.5l6 4q-56 174 -212.5 324t-428.5 287h445q227 -139 361 -375t134 -494q0 -269 -140 -427.5t-378 -158.5zM600 201q101 0 155 77.5t54 223.5t-54 223.5t-155 77.5
t-155 -77.5t-54 -223.5t54 -223.5t155 -77.5z" />
    <glyph glyph-name="product" unicode="&#x220f;" horiz-adv-x="1486" 
d="M254 -410v1563h-205v277h1389v-277h-205v-1563h-311v1563h-357v-1563h-311z" />
    <glyph glyph-name="summation" unicode="&#x2211;" horiz-adv-x="1228" 
d="M100 -410v248l441 668v8l-441 668v248h967v-277h-631l398 -602v-82l-398 -602h631v-277h-967z" />
    <glyph glyph-name="minus" unicode="&#x2212;" horiz-adv-x="1228" 
d="M137 506v242h955v-242h-955z" />
    <glyph glyph-name="radical" unicode="&#x221a;" horiz-adv-x="1228" 
d="M465 0l-281 821h-155v254h348l233 -733h6l330 1088h252l-455 -1430h-278z" />
    <glyph glyph-name="infinity" unicode="&#x221e;" horiz-adv-x="1622" 
d="M414 215q-170 0 -269.5 103t-99.5 278q0 182 105.5 289.5t283.5 107.5q237 0 377 -196q77 95 178.5 145.5t218.5 50.5q170 0 269.5 -103t99.5 -278q0 -183 -107.5 -290t-293.5 -107q-120 0 -216 46.5t-159 135.5q-70 -88 -170.5 -135t-216.5 -47zM475 446q140 0 221 140
q-41 86 -100.5 131t-130.5 45q-72 0 -114 -43t-42 -115q0 -74 44 -116t122 -42zM1161 446q71 0 111.5 42.5t40.5 115.5t-40.5 115.5t-111.5 42.5q-120 0 -235 -139q40 -85 101.5 -131t133.5 -46z" />
    <glyph glyph-name="integral" unicode="&#x222b;" horiz-adv-x="917" 
d="M276 -410q-102 0 -204 29v223q65 -16 133 -16q102 0 102 123v1233q0 334 334 334q103 0 205 -29v-223q-65 16 -133 16q-103 0 -103 -123v-1233q0 -334 -334 -334z" />
    <glyph glyph-name="approxequal" unicode="&#x2248;" horiz-adv-x="1241" 
d="M135 696q3 164 75 250t206 86q106 0 258 -55q100 -37 145 -37q51 0 78 22.5t35 69.5h174q-3 -166 -74.5 -251t-206.5 -85q-92 0 -254 60q-111 41 -147 41q-51 0 -78.5 -23.5t-36.5 -77.5h-174zM135 219q3 164 75 250t206 86q106 0 258 -55q100 -37 145 -37q51 0 78 22.5
t35 69.5h174q-3 -166 -74.5 -251t-206.5 -85q-92 0 -254 60q-108 40 -147 40q-52 0 -79 -23.5t-36 -76.5h-174z" />
    <glyph glyph-name="notequal" unicode="&#x2260;" horiz-adv-x="1228" 
d="M1092 745h-289l-127 -241h416v-238h-543l-103 -190h-256l103 190h-156v238h283l125 241h-408v238h533l104 195h258l-104 -195h164v-238z" />
    <glyph glyph-name="lessequal" unicode="&#x2264;" horiz-adv-x="1228" 
d="M1018 285l-807 391v184l807 387v-280l-447 -193v-14l447 -195v-280zM211 0v238h807v-238h-807z" />
    <glyph glyph-name="greaterequal" unicode="&#x2265;" horiz-adv-x="1228" 
d="M211 285v280l446 195v14l-446 193v280l807 -387v-184zM211 0v238h807v-238h-807z" />
    <glyph glyph-name="lozenge" unicode="&#x25ca;" horiz-adv-x="1228" 
d="M528 0l-419 715l419 715h172l420 -715l-420 -715h-172zM608 293h13l231 422l-231 422h-13l-231 -422z" />
    <glyph glyph-name="uni0E07_uni005F" horiz-adv-x="1048" 
d="M670 1135q117 0 186.5 -64.5t69.5 -171.5v-489q0 -215 -86 -312.5t-275 -97.5h-256q-107 381 -278 823h299q126 -385 186 -618h25q54 0 76 27t22 90v323v27q-98 6 -160.5 70t-62.5 161q0 102 71 167t183 65zM584 899q0 -37 22.5 -59.5t59.5 -22.5q35 0 56 22.5t21 59.5
t-21.5 59.5t-55.5 22.5q-36 0 -59 -23t-23 -59zM78 -369v234h848v-234h-848z" />
    <glyph glyph-name="uni0E0D_uni005F" horiz-adv-x="1789" 
d="M1360 1118h287v-762q0 -183 -114 -282t-321 -99q-209 0 -316.5 90t-107.5 263v374q0 96 -49.5 149.5t-138.5 53.5q-133 0 -227 -94q65 -42 65 -162v-162q0 -13 -4 -49q103 0 166.5 -61.5t63.5 -161.5q0 -103 -68 -167t-178 -64q-126 0 -194 83t-68 238v320
q0 151 -103 229q125 140 270.5 214.5t294.5 74.5q209 0 329 -115.5t120 -316.5v-363q0 -139 145 -139q148 0 148 137v772zM496 215q0 36 -22 59t-56 23q-36 0 -59 -23t-23 -59q0 -37 22.5 -59.5t59.5 -22.5q35 0 56.5 22.5t21.5 59.5zM176 -369v234h1471v-234h-1471z" />
    <glyph glyph-name="uni0E0D.less" horiz-adv-x="1789" 
d="M1360 1118h287v-762q0 -183 -114 -282t-321 -99q-209 0 -316.5 90t-107.5 263v374q0 96 -49.5 149.5t-138.5 53.5q-133 0 -227 -94q65 -42 65 -162v-162q0 -13 -4 -49q103 0 166.5 -61.5t63.5 -161.5q0 -103 -68 -167t-178 -64q-126 0 -194 83t-68 238v320
q0 151 -103 229q125 140 270.5 214.5t294.5 74.5q209 0 329 -115.5t120 -316.5v-363q0 -139 145 -139q148 0 148 137v772zM496 215q0 36 -22 59t-56 23q-36 0 -59 -23t-23 -59q0 -37 22.5 -59.5t59.5 -22.5q35 0 56.5 22.5t21.5 59.5z" />
    <glyph glyph-name="uni0E0E.short" horiz-adv-x="1277" 
d="M664 1143q229 0 358 -107t129 -297v-1149h-277q-75 105 -212 174q-46 -82 -131 -132t-183 -50q-103 0 -165 52.5t-62 138.5q0 88 79 141t210 53q88 0 174 -24q7 37 10 88h162q0 -69 -31 -142q76 -36 139 -84v906q0 95 -53 144.5t-156 49.5q-70 0 -131.5 -25.5
t-93.5 -68.5q52 -28 74 -66.5t22 -103.5v-338q0 -143 -69 -223t-193 -80q-107 0 -174 64t-67 167q0 100 63 162t164 62h2q-4 32 -4 49v82q0 89 -36 144.5t-136 123.5q100 135 256.5 212t331.5 77zM264 150q37 0 59.5 22t22.5 59t-22.5 59.5t-59.5 22.5q-34 0 -56 -23
t-22 -59q0 -37 21.5 -59t56.5 -22zM371 -274q39 0 78.5 25t64.5 65q-58 10 -102 10q-109 0 -109 -55q0 -20 18.5 -32.5t49.5 -12.5z" />
    <glyph glyph-name="uni0E0F.short" horiz-adv-x="1277" 
d="M664 1143q229 0 358 -107t129 -297v-1149h-293l-82 164h-8l-51 -164h-58q-53 95 -90 136q-39 -68 -104 -107t-143 -39q-99 0 -159.5 53t-60.5 140q0 89 63.5 142.5t168.5 53.5q88 0 176 -43q18 46 22 105h140q0 -89 -56 -181q33 -29 62 -69h8l59 162h35l86 -154h8
q-10 98 -10 303v619q0 95 -53 144.5t-156 49.5q-70 0 -131.5 -25.5t-93.5 -68.5q52 -28 74 -66.5t22 -103.5v-338q0 -143 -69 -223t-193 -80q-107 0 -174 64t-67 167q0 100 63 162t164 62h4q-6 27 -6 55v76q0 89 -36 144.5t-136 123.5q100 135 256.5 212t331.5 77zM264 150
q37 0 59.5 22t22.5 59t-22.5 59.5t-59.5 22.5q-34 0 -56 -23t-22 -59q0 -37 21.5 -59t56.5 -22zM362 -287q75 0 119 94q-50 33 -110 33q-40 0 -63 -17t-23 -48q0 -28 21 -45t56 -17z" />
    <glyph glyph-name="uni0E10.less" horiz-adv-x="1024" 
d="M430 950q-123 0 -123 -61v-25l62 -6q222 -23 344.5 -64t176.5 -111.5t54 -188.5q0 -119 -47.5 -251.5t-130.5 -242.5h-346l-39 158q-4 17 -8 55q-25 -10 -66 -10q-97 0 -159 59t-62 150q0 95 63.5 152t165.5 57q98 0 158.5 -49.5t75.5 -133.5l51 -268h8q24 77 35.5 116
t21 94t9.5 105q0 101 -101.5 135t-427.5 72l-88 10v158q0 126 82.5 204.5t239.5 78.5q93 0 220.5 -23.5t174.5 -23.5q114 0 176 26v-190q-61 -31 -168 -31q-48 0 -167.5 24.5t-184.5 24.5zM311 334q33 0 54.5 21.5t21.5 56.5t-21.5 56t-54.5 21q-35 0 -56.5 -21t-21.5 -56
t21.5 -56.5t56.5 -21.5z" />
    <glyph glyph-name="uni0E19_uni005F" horiz-adv-x="1282" 
d="M244 588q0 48 10 84q-104 3 -169 66t-65 161q0 103 72 169.5t182 66.5q115 0 185.5 -65t70.5 -171v-614q36 52 177 147q75 50 105 89.5t30 88.5v508h286v-479q0 -73 -18.5 -118t-67.5 -87q77 -20 120.5 -77t43.5 -136q0 -103 -68 -170t-173 -67q-104 0 -173 67t-69 170
v10q-84 -61 -126 -108t-85 -123h-268v588zM188 899q0 -37 22.5 -59.5t59.5 -22.5q35 0 56.5 22.5t21.5 59.5q0 36 -22 59t-56 23q-36 0 -59 -23t-23 -59zM965 305q-36 0 -58 -23t-22 -61q0 -37 21.5 -59.5t58.5 -22.5q35 0 57 22.5t22 59.5t-22 60.5t-57 23.5zM238 -369v234
h936v-234h-936z" />
    <glyph glyph-name="uni0E21_uni005F" horiz-adv-x="1292" 
d="M846 1118h287v-1118h-271q-123 179 -307 270q8 -19 8 -49q0 -104 -71.5 -170.5t-182.5 -66.5t-182.5 66.5t-71.5 170.5q0 99 63 164t161 66q-5 23 -5 55v119q0 12 5 47q-102 6 -165 68.5t-63 158.5q0 103 72 169.5t182 66.5q115 0 185.5 -65t70.5 -171v-410
q189 -80 285 -178v807zM219 899q0 -37 22.5 -59.5t59.5 -22.5q35 0 56.5 22.5t21.5 59.5q0 36 -22 59t-56 23q-36 0 -59 -23t-23 -59zM309 139q35 0 57.5 22.5t22.5 59.5t-22.5 60.5t-57.5 23.5q-36 0 -58 -23t-22 -61q0 -37 21.5 -59.5t58.5 -22.5zM156 -369v234h977v-234
h-977z" />
    <glyph glyph-name="uni0E2C.short" horiz-adv-x="1449" 
d="M1319 1139q0 -114 -98 -232q65 -88 65 -264v-643h-354l-162 428l-176 -428h-342v594q0 42 8 78q-106 0 -173 63.5t-67 163.5q0 103 72 169.5t182 66.5q118 0 187 -64t69 -172v-352q0 -95 -8 -332h8l168 393h144l166 -393h8q-8 224 -8 373v147q-72 -55 -177 -55
q-110 0 -175.5 59.5t-65.5 159.5q0 106 76.5 173t199.5 67q130 0 224 -84q17 41 20 84h209zM858 834q81 0 127 75q-40 76 -125 76q-43 0 -67.5 -20.5t-24.5 -55.5q0 -34 24.5 -54.5t65.5 -20.5zM188 899q0 -37 22.5 -59.5t59.5 -22.5q35 0 56.5 22.5t21.5 59.5q0 36 -22 59
t-56 23q-36 0 -59 -23t-23 -59z" />
    <glyph glyph-name="dieresis.case" horiz-adv-x="962" 
d="M256 1571q-66 0 -110 41t-44 102q0 62 44 103t110 41t110 -41t44 -103q0 -61 -44 -102t-110 -41zM707 1571q-66 0 -110 41t-44 102q0 62 44 103t110 41t109.5 -41t43.5 -103t-43.5 -102.5t-109.5 -40.5z" />
    <glyph glyph-name="dotaccent.case" horiz-adv-x="544" 
d="M272 1554q-72 0 -121 45.5t-49 112.5t49 112.5t121 45.5t121 -45.5t49 -112.5t-49 -112.5t-121 -45.5z" />
    <glyph glyph-name="grave.case" horiz-adv-x="690" 
d="M299 1513l-260 355h323l162 -355h-225z" />
    <glyph glyph-name="acute.case" horiz-adv-x="690" 
d="M190 1513l162 355h324l-260 -355h-226z" />
    <glyph glyph-name="hungarumlaut.case" horiz-adv-x="1079" 
d="M102 1513l142 355h303l-240 -355h-205zM532 1513l142 355h303l-240 -355h-205z" />
    <glyph glyph-name="circumflex.case" horiz-adv-x="1155" 
d="M102 1513l349 375h254l348 -375h-228l-247 187l-248 -187h-228z" />
    <glyph glyph-name="caron.case" horiz-adv-x="1155" 
d="M451 1534l-349 375h228l248 -187l247 187h228l-348 -375h-254z" />
    <glyph glyph-name="breve.case" horiz-adv-x="1011" 
d="M506 1513q-164 0 -273 107t-131 289h181q26 -95 83.5 -146t139.5 -51t139.5 51t83.5 146h180q-23 -181 -132.5 -288.5t-270.5 -107.5z" />
    <glyph glyph-name="ring.case" horiz-adv-x="778" 
d="M389 1481q-123 0 -205 76.5t-82 191.5t82 191.5t205 76.5t205 -76.5t82 -191.5t-82 -191.5t-205 -76.5zM389 1626q44 0 74.5 35.5t30.5 87.5t-30.5 87.5t-74.5 35.5t-74 -35.5t-30 -87.5t30 -87.5t74 -35.5z" />
    <glyph glyph-name="tilde.case" horiz-adv-x="1003" 
d="M102 1554q3 141 63 217t169 76q90 0 211 -51q81 -33 121 -33q80 0 92 84h143q-3 -143 -62 -218t-169 -75q-83 0 -209 56q-84 37 -121 37q-42 0 -64.5 -22t-29.5 -71h-144z" />
    <glyph glyph-name="macron.case" horiz-adv-x="831" 
d="M102 1595v193h627v-193h-627z" />
    <glyph glyph-name="uni0E31.narrow" 
d="M-778 1419q112 9 272 125v-211q-167 -90 -350 -90q-158 0 -250 69.5t-92 188.5q0 91 67 150t168 59q88 0 147.5 -56t59.5 -138q0 -60 -22 -97zM-971 1427q29 0 47.5 19.5t18.5 50.5t-18.5 50.5t-47.5 19.5q-31 0 -50 -19.5t-19 -50.5t19 -50.5t50 -19.5z" />
    <glyph glyph-name="uni0E48.small" 
d="M-367 1782v332h236v-332h-236z" />
    <glyph glyph-name="uni0E48.narrow" 
d="M-848 1243v412h266v-412h-266z" />
    <glyph glyph-name="uni0E49.small" 
d="M-358 1919q186 64 342 223v-239q-216 -121 -549 -121h-37v116q75 10 108 19q-59 12 -91.5 51.5t-32.5 97.5q0 72 49.5 116t132.5 44q77 0 122.5 -43.5t45.5 -116.5q0 -92 -90 -147zM-440 2120q-24 0 -39 -13t-15 -36q0 -26 15 -40t39 -14q49 0 49 54q0 49 -49 49z" />
    <glyph glyph-name="uni0E49.narrow" 
d="M-856 1413q154 60 350 250v-270q-101 -65 -265.5 -107.5t-326.5 -42.5h-63v133q87 12 143 47q-75 9 -118.5 55t-43.5 115q0 88 54.5 138.5t148.5 50.5t149.5 -51.5t55.5 -139.5q0 -100 -84 -178zM-1038 1597q0 -29 17 -46t46 -17t46.5 17t17.5 46t-17.5 46.5t-46.5 17.5
t-46 -17.5t-17 -46.5z" />
    <glyph glyph-name="uni0E4A.small" 
d="M-158 1931q94 51 195 158v-209q-53 -39 -132 -67t-147 -31q-39 11 -62.5 39.5t-23.5 66.5q41 53 41 107t-37 78h-4l-59 -52h-8q-11 23 -40.5 40.5t-60.5 17.5q-25 0 -42.5 -12.5t-20.5 -32.5q20 4 29 4q62 0 99.5 -34t37.5 -91q0 -54 -44.5 -92.5t-107.5 -38.5
q-81 0 -125.5 54t-44.5 151t62 161t157 64q85 0 127 -60l52 60q84 -4 136 -51.5t52 -118.5q0 -57 -29 -111zM-500 1913q0 45 -47 45q-21 0 -34 -12t-13 -33q0 -20 13 -31.5t34 -11.5q22 0 34.5 11.5t12.5 31.5z" />
    <glyph glyph-name="uni0E4A.narrow" 
d="M-672 1417q61 48 168 178v-249q-89 -59 -146.5 -82.5t-121.5 -24.5q-43 12 -69.5 48.5t-26.5 82.5q45 45 45 125q0 60 -41 90h-4l-52 -67h-12q-36 73 -106 73q-29 0 -49.5 -14t-28.5 -37q10 2 31 2q69 0 114 -42t45 -107q0 -66 -47.5 -110t-120.5 -44q-88 0 -137 62.5
t-49 173.5q0 123 62 196.5t165 73.5q93 0 144 -66l41 66q106 -5 164.5 -60.5t58.5 -152.5q0 -65 -27 -115zM-1044 1391q0 23 -14.5 38t-37.5 15t-37 -15t-14 -38q0 -24 14 -39t37 -15t37.5 15.5t14.5 38.5z" />
    <glyph glyph-name="uni0E4B.small" 
d="M-4 2050v-147h-133v-121h-219v121h-133v147h133v121h219v-121h133z" />
    <glyph glyph-name="uni0E4C.small" 
d="M-27 2232v-168q-51 -26 -159 -41q57 -35 57 -106q0 -68 -46 -109t-122 -41q-83 0 -133.5 44.5t-50.5 119.5q0 122 162 187q55 22 123.5 46.5t107.5 39.5t61 28zM-299 1864q22 0 34.5 12.5t12.5 34.5t-13 36.5t-34 14.5q-24 0 -37.5 -14.5t-13.5 -36.5q0 -47 51 -47z" />
    <glyph glyph-name="uni0E4C.narrow" 
d="M-434 1821v-213q-34 -21 -106 -44.5t-124 -33.5q78 -40 78 -125q0 -77 -54.5 -125.5t-141.5 -48.5q-95 0 -153 52t-58 138q0 74 52 129t167 99q238 91 340 172zM-784 1350q23 0 37 15t14 38t-14 38t-37 15t-37.5 -15t-14.5 -38t14.5 -38t37.5 -15z" />
    <glyph glyph-name="uni0E47.narrow" 
d="M-655 1563q78 0 122 -45t44 -121q0 -65 -47.5 -111.5t-137.5 -46.5q-46 0 -89 17t-79 34t-65 17q-67 0 -107 -72q-116 15 -193 86.5t-77 198.5q0 52 17 100t51 88.5t92.5 65t132.5 24.5q45 0 112 -6t109 -6q123 0 264 61v-200q-113 -41 -254 -41q-43 0 -102 8t-90 8
q-50 0 -81.5 -28.5t-31.5 -75.5q0 -31 10 -54t21 -33.5t30 -23.5q38 66 103 66q48 0 90 -39q8 57 49.5 93t106.5 36zM-657 1350q25 0 39 14t14 39t-14 39t-39 14t-39.5 -14t-14.5 -39t14.5 -39t39.5 -14z" />
    <glyph glyph-name="uni0E34.narrow" 
d="M-1288 1243v143q19 118 127.5 195.5t251.5 77.5q137 0 241 -76.5t129 -196.5v-143h-749zM-1083 1386h340v15q-19 43 -64.5 68.5t-105.5 25.5q-62 0 -108.5 -25.5t-61.5 -68.5v-15z" />
    <glyph glyph-name="uni0E35.narrow" 
d="M-762 1708h223v-465h-749v143q22 122 110 197.5t209 75.5q70 0 129.5 -29t98.5 -80q-21 61 -21 88v70zM-760 1386v15q-20 46 -72.5 72t-117.5 26q-64 0 -108.5 -26t-61.5 -72v-15h360z" />
    <glyph glyph-name="uni0E36.narrow" 
d="M-457 1530q0 -64 -33 -108.5t-92 -61.5v-117h-706v143q22 118 114.5 195.5t212.5 77.5q93 0 160 -45q22 44 64 69t96 25q85 0 134.5 -48t49.5 -130zM-639 1470q27 0 44 17t17 43t-16.5 42.5t-44.5 16.5q-26 0 -42.5 -16.5t-16.5 -42.5t16.5 -43t42.5 -17zM-801 1386v15
q-38 92 -145 92q-52 0 -88.5 -24.5t-50.5 -67.5v-15h284z" />
    <glyph glyph-name="uni0E37.narrow" 
d="M-696 1708h157v-465h-749v143q26 129 105.5 201t197.5 72q45 0 88 -12v18v43h119v-127q50 -42 82 -113v240zM-801 1386v15q-36 92 -151 92q-54 0 -90.5 -25.5t-42.5 -66.5v-15h284z" />
    <glyph glyph-name="uni0E4D0E48" 
d="M-401 1735v331h235v-331h-235zM-285 1231q-117 0 -186.5 58.5t-69.5 156.5t69.5 156.5t186.5 58.5t186.5 -58.5t69.5 -156.5t-69.5 -156.5t-186.5 -58.5zM-285 1364q35 0 56.5 22.5t21.5 59.5q0 38 -21.5 61t-56.5 23t-56 -23t-21 -61q0 -37 21 -59.5t56 -22.5z" />
    <glyph glyph-name="uni0E4D0E49" 
d="M-31 2095v-240q-214 -120 -549 -120h-36v116q75 10 108 19q-59 12 -92 51.5t-33 97.5q0 72 49.5 116t132.5 44q77 0 122.5 -43.5t45.5 -116.5q0 -92 -90 -147q186 64 342 223zM-455 2073q-24 0 -38.5 -13.5t-14.5 -36.5q0 -26 14.5 -39.5t38.5 -13.5q49 0 49 53
q0 23 -13 36.5t-36 13.5zM-285 1661q117 0 186.5 -58.5t69.5 -156.5t-69.5 -156.5t-186.5 -58.5t-186.5 58.5t-69.5 156.5t69.5 156.5t186.5 58.5zM-285 1364q35 0 56.5 22.5t21.5 59.5q0 38 -21.5 61t-56.5 23t-56 -23t-21 -61q0 -37 21 -59.5t56 -22.5z" />
    <glyph glyph-name="uni0E4D0E4A" 
d="M-172 1884q94 51 195 158v-209q-53 -39 -132 -67t-147 -31q-39 11 -62.5 39.5t-23.5 66.5q41 53 41 107q0 53 -37 77h-4l-59 -51h-9q-11 23 -40.5 40.5t-59.5 17.5q-25 0 -42.5 -12.5t-20.5 -32.5q20 4 28 4q62 0 99.5 -34t37.5 -91q0 -54 -44 -92.5t-107 -38.5
q-81 0 -125.5 53.5t-44.5 150.5t62 161.5t157 64.5q85 0 127 -60l51 60q84 -4 136.5 -51.5t52.5 -118.5q0 -57 -29 -111zM-514 1866q0 45 -47 45q-21 0 -34 -12t-13 -33q0 -20 13 -31.5t34 -11.5q22 0 34.5 11.5t12.5 31.5zM-285 1661q117 0 186.5 -58.5t69.5 -156.5
t-69.5 -156.5t-186.5 -58.5t-186.5 58.5t-69.5 156.5t69.5 156.5t186.5 58.5zM-285 1364q35 0 56.5 22.5t21.5 59.5q0 38 -21.5 61t-56.5 23t-56 -23t-21 -61q0 -37 21 -59.5t56 -22.5z" />
    <glyph glyph-name="uni0E4D0E4B" 
d="M-391 1735v120h-133v148h133v121h219v-121h133v-148h-133v-120h-219zM-285 1661q117 0 186.5 -58.5t69.5 -156.5t-69.5 -156.5t-186.5 -58.5t-186.5 58.5t-69.5 156.5t69.5 156.5t186.5 58.5zM-285 1364q35 0 56.5 22.5t21.5 59.5q0 38 -21.5 61t-56.5 23t-56 -23
t-21 -61q0 -37 21 -59.5t56 -22.5z" />
    <glyph glyph-name="uni0E3A.small" 
d="M-270 -776q-71 0 -113.5 42.5t-42.5 112.5q0 73 42.5 116.5t113.5 43.5q73 0 116 -43t43 -117q0 -71 -43 -113t-116 -42z" />
    <glyph glyph-name="uni0E38.small" 
d="M-354 -461q223 0 223 -225v-182h-234v30q0 4 5 39h-19q-86 0 -133 43t-47 123q0 78 55.5 125t149.5 47zM-422 -629q0 -27 17 -44t43 -17q28 0 44.5 16.5t16.5 44.5t-17 46t-44 18q-26 0 -43 -18t-17 -46z" />
    <glyph glyph-name="uni0E39.small" 
d="M-340 -477h209v-228q0 -77 -71.5 -120t-194.5 -43q-223 0 -240 114h-2q-66 0 -109 40t-43 100q0 69 48.5 111t128.5 42q68 0 112.5 -42.5t44.5 -106.5v-62q0 -21 15.5 -33t42.5 -12q59 0 59 45v195zM-678 -606q0 -23 14.5 -37t36.5 -14q23 0 37.5 14t14.5 37
q0 22 -14.5 36.5t-37.5 14.5q-22 0 -36.5 -14.5t-14.5 -36.5z" />
    <glyph glyph-name="uni0E4B.narrow" 
d="M-508 1563v-174h-151v-146h-230v146h-151v174h151v145h230v-145h151z" />
    <glyph glyph-name="uni0E4D.narrow" 
d="M-795 1231q-117 0 -186.5 58.5t-69.5 156.5t69.5 156.5t186.5 58.5t186.5 -58.5t69.5 -156.5t-69.5 -156.5t-186.5 -58.5zM-795 1364q35 0 56.5 22.5t21.5 59.5q0 38 -21.5 61t-56.5 23t-56 -23t-21 -61q0 -37 21 -59.5t56 -22.5z" />
    <glyph glyph-name="uni0E4D0E48.narrow" 
d="M-911 1735v331h235v-331h-235zM-795 1231q-117 0 -186.5 58.5t-69.5 156.5t69.5 156.5t186.5 58.5t186.5 -58.5t69.5 -156.5t-69.5 -156.5t-186.5 -58.5zM-795 1364q35 0 56.5 22.5t21.5 59.5q0 38 -21.5 61t-56.5 23t-56 -23t-21 -61q0 -37 21 -59.5t56 -22.5z" />
    <glyph glyph-name="uni0E4D0E49.narrow" 
d="M-541 2095v-240q-214 -120 -549 -120h-36v116q75 10 108 19q-59 12 -92 51.5t-33 97.5q0 72 49.5 116t132.5 44q77 0 122.5 -43.5t45.5 -116.5q0 -92 -90 -147q186 64 342 223zM-965 2073q-24 0 -38.5 -13.5t-14.5 -36.5q0 -26 14.5 -39.5t38.5 -13.5q50 0 50 53
q0 23 -13.5 36.5t-36.5 13.5zM-795 1661q117 0 186.5 -58.5t69.5 -156.5t-69.5 -156.5t-186.5 -58.5t-186.5 58.5t-69.5 156.5t69.5 156.5t186.5 58.5zM-795 1364q35 0 56.5 22.5t21.5 59.5q0 38 -21.5 61t-56.5 23t-56 -23t-21 -61q0 -37 21 -59.5t56 -22.5z" />
    <glyph glyph-name="uni0E4D0E4A.narrow" 
d="M-580 1884q94 51 195 158v-209q-53 -39 -132 -67t-147 -31q-39 11 -62.5 39.5t-23.5 66.5q41 53 41 107t-36 77h-5l-59 -51h-8q-11 23 -40.5 40.5t-60.5 17.5q-25 0 -42.5 -12.5t-20.5 -32.5q20 4 29 4q62 0 99.5 -34t37.5 -91q0 -54 -44.5 -92.5t-107.5 -38.5
q-81 0 -125.5 53.5t-44.5 150.5t62 161.5t157 64.5q85 0 127 -60l52 60q84 -4 136 -51.5t52 -118.5q0 -57 -29 -111zM-922 1866q0 45 -47 45q-21 0 -34 -12t-13 -33q0 -20 13 -31.5t34 -11.5q22 0 34.5 11.5t12.5 31.5zM-795 1661q117 0 186.5 -58.5t69.5 -156.5
t-69.5 -156.5t-186.5 -58.5t-186.5 58.5t-69.5 156.5t69.5 156.5t186.5 58.5zM-795 1364q35 0 56.5 22.5t21.5 59.5q0 38 -21.5 61t-56.5 23t-56 -23t-21 -61q0 -37 21 -59.5t56 -22.5z" />
    <glyph glyph-name="uni0E4D0E4B.narrow" 
d="M-901 1735v120h-133v148h133v121h219v-121h133v-148h-133v-120h-219zM-795 1661q117 0 186.5 -58.5t69.5 -156.5t-69.5 -156.5t-186.5 -58.5t-186.5 58.5t-69.5 156.5t69.5 156.5t186.5 58.5zM-795 1364q35 0 56.5 22.5t21.5 59.5q0 38 -21.5 61t-56.5 23t-56 -23
t-21 -61q0 -37 21 -59.5t56 -22.5z" />
    <glyph glyph-name="uni0E47.small" 
d="M-246 2032q60 0 93.5 -32.5t33.5 -86.5t-33.5 -89.5t-101.5 -35.5q-43 0 -97 24.5t-77 24.5q-51 0 -80 -53q-88 12 -144.5 63.5t-56.5 149.5q0 91 56 156t164 65q44 0 92 -4t69 -4q91 0 197 45v-154q-77 -30 -178 -30q-32 0 -79.5 5t-70.5 5q-39 0 -62.5 -21.5
t-23.5 -60.5q0 -58 45 -78q19 26 37.5 36.5t44.5 10.5q28 0 49 -12q12 34 45 55t78 21zM-250 1872q17 0 26 10.5t9 26.5t-9 25.5t-26 9.5q-15 0 -25 -10t-10 -25t10 -26t25 -11z" />
    </font>
</defs>
</svg>
