<svg xmlns="http://www.w3.org/2000/svg" width="40" height="40" viewBox="0 0 40 40">
  <defs>
    <style>
      .cls-1 {
        fill: none;
      }

      .cls-2 {
        fill: #3269cd;
      }

      .cls-3, .cls-4 {
        stroke: none;
      }

      .cls-4 {
        fill: #fff;
      }
    </style>
  </defs>
  <g id="icon_payment" transform="translate(-301 -334)">
    <path id="Path_8726" data-name="Path 8726" class="cls-1" d="M0,0H40V40H0Z" transform="translate(301 334)"/>
    <g id="Group_7497" data-name="Group 7497" transform="translate(72 -59)">
      <g id="Group_7496" data-name="Group 7496" transform="translate(229 393)">
        <g id="Path_8744" data-name="Path 8744" class="cls-2" transform="translate(-0.057 -29.426)">
          <path class="cls-3" d="M 15.53809547424316 69.37071990966797 L 15.07046890258789 69.14841461181641 C 5.429113864898682 64.57082366943359 3.938421249389648 63.78350448608398 3.58119535446167 63.53533935546875 L 5.238770008087158 61.84699630737305 C 6.701720237731934 62.6052131652832 12.33423614501953 65.30344390869141 15.56754875183105 66.83873748779297 L 15.58791923522949 66.84840393066406 L 15.60865879058838 66.83953857421875 L 36.63665771484375 57.84753799438477 C 37.49419784545898 57.48172760009766 37.89434051513672 56.48654556274414 37.52858734130859 55.62914657592773 C 37.49591064453125 55.5515251159668 37.45645904541016 55.47541809082031 37.41143798828125 55.40313720703125 C 37.10250854492188 54.89909744262695 36.56465911865234 54.59799575805664 35.9728889465332 54.59799575805664 C 35.75024032592773 54.59799575805664 35.53252792358398 54.64152526855469 35.32582092285156 54.72738647460938 L 19.33522796630859 61.30658340454102 L 11.74823665618896 57.43971633911133 L 12.79085063934326 55.39281845092773 L 19.41829872131348 58.77011489868164 L 19.43879890441895 58.78056716918945 L 19.46006965637207 58.77178573608398 L 22.23206901550293 57.6277961730957 L 22.28150939941406 57.60739517211914 L 22.2578296661377 57.5594482421875 C 21.82011985778809 56.67274475097656 21.25058937072754 55.86106491088867 20.5650691986084 55.14693450927734 C 18.24037933349609 52.7344856262207 14.75458908081055 51.35091781616211 11.00143909454346 51.35091781616211 C 7.694902420043945 51.35091781616211 4.612370014190674 52.41736221313477 2.317724943161011 54.35422134399414 L 0.1310571134090424 53.27437591552734 C 0.2422452867031097 53.11827850341797 0.374225914478302 52.97934341430664 0.5240290760993958 52.86078643798828 C 1.897229075431824 51.63049697875977 3.529179096221924 50.67888641357422 5.376869201660156 50.03043746948242 C 7.150009155273438 49.40814590454102 9.03650951385498 49.09261703491211 10.98395919799805 49.09261703491211 C 15.3935489654541 49.09261703491211 19.48928833007812 50.71664810180664 22.22101974487305 53.54828643798828 C 23.1093692779541 54.47293472290039 23.83976936340332 55.52899551391602 24.39186859130859 56.68708801269531 L 24.41223907470703 56.72982788085938 L 24.45602989196777 56.71180725097656 L 34.44802856445312 52.59980773925781 C 34.93481826782227 52.39914703369141 35.44625854492188 52.29740524291992 35.96814727783203 52.29740524291992 C 37.59217834472656 52.29740524291992 39.04145812988281 53.267578125 39.66035842895508 54.76901626586914 C 40.01826095581055 55.63752746582031 40.05838775634766 56.60825729370117 39.77335739135742 57.50237655639648 C 39.42132949829102 58.61030578613281 38.60634994506836 59.50736618041992 37.53736877441406 59.96358489990234 L 15.53809547424316 69.37071990966797 Z"/>
          <path class="cls-4" d="M 10.98395919799805 49.14261627197266 C 9.042139053344727 49.14263916015625 7.161209106445312 49.45721435546875 5.393428802490234 50.07761383056641 C 3.551959991455078 50.72388458251953 1.925670623779297 51.67213439941406 0.5597305297851562 52.89604949951172 L 0.5550575256347656 52.89997863769531 C 0.4243202209472656 53.00346374511719 0.3074836730957031 53.12286758422852 0.2066421508789062 53.25593948364258 L 2.310546875 54.29491424560547 C 4.611564636230469 52.36376190185547 7.695098876953125 51.30091857910156 11.00143814086914 51.30091857910156 C 14.76810836791992 51.30091857910156 18.26700973510742 52.6900634765625 20.60113906860352 55.1123161315918 C 21.29020881652832 55.83013534545898 21.86268997192383 56.64601516723633 22.30266952514648 57.53731536865234 L 22.35000991821289 57.63321685791016 L 19.43659973144531 58.83556747436523 L 12.81271362304688 55.46007919311523 L 11.81548690795898 57.41786575317383 L 19.33745956420898 61.25159454345703 L 35.3066291809082 54.68121719360352 C 35.51945877075195 54.59281539916992 35.74361801147461 54.54799652099609 35.9728889465332 54.54799652099609 C 36.58219909667969 54.54799652099609 37.13597869873047 54.85802459716797 37.45388031005859 55.37670516967773 C 37.50032043457031 55.45126724243164 37.54098892211914 55.52974700927734 37.57457733154297 55.60952758789062 C 37.95114898681641 56.4922981262207 37.53918075561523 57.51689529418945 36.65631866455078 57.89351654052734 L 15.58684921264648 66.90324401855469 L 15.54610824584961 66.88389587402344 C 12.33614730834961 65.35969543457031 6.761726379394531 62.68936920166016 5.248588562011719 61.90836715698242 L 3.659099578857422 63.52736282348633 C 4.096527099609375 63.80990219116211 5.834499359130859 64.70793914794922 15.09192848205566 69.103271484375 L 15.53916358947754 69.31587219238281 L 37.51774978637695 59.91760635375977 C 38.57331848144531 59.46709823608398 39.37808990478516 58.5812873840332 39.7257194519043 57.48719787597656 C 40.00717926025391 56.60427474975586 39.96754837036133 55.64570617675781 39.61413955688477 54.7880744934082 C 39.00297927856445 53.30543518066406 37.57184982299805 52.34741973876953 35.96815872192383 52.34741973876953 C 35.45283889770508 52.34741973876953 34.94781875610352 52.44788360595703 34.46706008911133 52.64605712890625 L 24.38747787475586 56.79407501220703 L 24.34672927856445 56.70859527587891 C 23.79694938659668 55.55535507202148 23.06959915161133 54.50370788574219 22.18502998352051 53.5830078125 C 19.46263885498047 50.76103973388672 15.38000869750977 49.142578125 10.98395919799805 49.14261627197266 M 10.98395729064941 49.04261779785156 C 15.19117736816406 49.04257965087891 19.39550971984863 50.54741668701172 22.25699996948242 53.51357650756836 C 23.14779853820801 54.44076538085938 23.88379859924316 55.50516510009766 24.4370002746582 56.66556549072266 L 34.42900085449219 52.55357360839844 C 36.49300003051758 51.70278930664062 38.85580062866211 52.68596649169922 39.70658874511719 54.74996566772461 C 40.06938934326172 55.63036727905273 40.11019897460938 56.61036682128906 39.82099914550781 57.5175666809082 C 39.46500015258789 58.63797760009766 38.63859939575195 59.54796600341797 37.55699920654297 60.00957489013672 L 15.5369987487793 69.42556762695312 L 15.04899978637695 69.19357299804688 C 5.132999420166016 64.48558044433594 3.805000305175781 63.77356719970703 3.504997253417969 63.54157638549805 L 5.229000091552734 61.78557586669922 C 6.580997467041016 62.48956680297852 11.93299865722656 65.05757141113281 15.58899879455566 66.79356384277344 L 36.61700057983398 57.80156707763672 C 37.45059967041016 57.44596481323242 37.83819961547852 56.48237609863281 37.48259735107422 55.64876556396484 C 37.45059967041016 55.5727653503418 37.41259002685547 55.49956512451172 37.36899948120117 55.4295768737793 C 36.94779968261719 54.74236297607422 36.08939743041992 54.46435165405273 35.34498977661133 54.77356719970703 L 19.33299827575684 61.36156463623047 L 11.68099975585938 57.46156692504883 L 12.76899909973145 55.32556533813477 L 19.44099998474121 58.72556686401367 L 22.21299934387207 57.58157730102539 C 21.77779960632324 56.69996643066406 21.20979881286621 55.89076614379883 20.52899932861328 55.18156814575195 C 15.97300148010254 50.45356750488281 7.385002136230469 50.11756134033203 2.325000762939453 54.41357803344727 L 0.05699920654296875 53.2935676574707 C 0.1769981384277344 53.11476516723633 0.3241996765136719 52.95517730712891 0.4930000305175781 52.82156372070312 C 3.316879272460938 50.29132843017578 7.151630401611328 49.04264831542969 10.98395729064941 49.04261779785156 Z"/>
        </g>
        <g id="Path_8745" data-name="Path 8745" class="cls-2" transform="translate(-20.854 -14.478)">
          <path class="cls-3" d="M 39.50240325927734 33.1552848815918 L 34.78871917724609 28.44159698486328 L 36.41479873657227 26.81551742553711 L 39.46703720092773 29.86775779724121 L 39.50239944458008 29.90310668945312 L 39.53774642944336 29.86775779724121 L 45.20519256591797 24.20071220397949 L 46.83127975463867 25.82680130004883 L 39.50240325927734 33.1552848815918 Z"/>
          <path class="cls-4" d="M 39.50239944458008 33.08457946777344 L 46.76057434082031 25.82679557800293 L 45.20519638061523 24.27141571044922 L 39.50239944458008 29.97381782531738 L 36.41479873657227 26.88621711730957 L 34.85941696166992 28.44159698486328 L 39.50239944458008 33.08457946777344 M 39.50239944458008 33.22599792480469 L 34.71799850463867 28.44159698486328 L 36.41479873657227 26.74479675292969 L 39.50239944458008 29.8323974609375 L 45.20519638061523 24.12999725341797 L 46.90199661254883 25.82679748535156 L 39.50239944458008 33.22599792480469 Z"/>
        </g>
        <g id="Path_8746" data-name="Path 8746" class="cls-2" transform="translate(-8.692)">
          <path class="cls-3" d="M 40.51291656494141 21.90200042724609 L 37.64922332763672 21.90200042724609 C 39.68092346191406 19.52883911132812 40.68117523193359 16.51018714904785 40.46743011474609 13.38908100128174 C 40.25119781494141 10.23155117034912 38.81834030151367 7.347250938415527 36.43280792236328 5.267510890960693 C 34.27468872070312 3.386040687561035 31.51122856140137 2.349860668182373 28.6514778137207 2.349860668182373 C 25.22332763671875 2.349860668182373 21.96627807617188 3.830580711364746 19.71545791625977 6.412340641021729 C 17.83366775512695 8.570940971374512 16.79754829406738 11.33665084838867 16.79794883728027 14.20001125335693 C 16.79636764526367 15.45975303649902 16.99701309204102 16.70356559753418 17.39439964294434 17.89800071716309 L 14.99006843566895 17.89800071716309 C 14.66075420379639 16.69291877746582 14.4951868057251 15.44895553588867 14.49794864654541 14.20011043548584 C 14.49794864654541 10.42042064666748 15.96980857849121 6.867050647735596 18.64240837097168 4.194460868835449 C 21.31499862670898 1.521860837936401 24.86836814880371 0.05000078678131104 28.64794921875 0.05000078678131104 C 32.42752838134766 0.05000078678131104 35.98089981079102 1.521860837936401 38.65348815917969 4.194460868835449 C 41.32608795166016 6.867050647735596 42.79794692993164 10.42042064666748 42.79794692993164 14.20000076293945 C 42.80233383178711 16.94284057617188 42.0121955871582 19.60558128356934 40.51291656494141 21.90200042724609 Z"/>
          <path class="cls-4" d="M 40.48580932617188 21.85200119018555 C 41.9703369140625 19.56882286071777 42.75230026245117 16.92429161071777 42.74794769287109 14.20000076293945 C 42.74794769287109 10.43377113342285 41.28128814697266 6.892960548400879 38.61813735961914 4.22981071472168 C 35.95498657226562 1.566660761833191 32.41417694091797 0.1000007838010788 28.64794921875 0.1000007838010788 C 24.88171768188477 0.1000007838010788 21.34090805053711 1.566660761833191 18.67775917053223 4.22981071472168 C 16.01460838317871 6.892960548400879 14.54794883728027 10.43377113342285 14.54794883728027 14.20022106170654 C 14.5452241897583 15.43192195892334 14.7067928314209 16.65868949890137 15.02828693389893 17.84800148010254 L 17.32528495788574 17.84800148010254 C 16.94058609008789 16.66860580444336 16.74638748168945 15.44196510314941 16.74794769287109 14.20001125335693 C 16.74754905700684 11.32457065582275 17.78803825378418 8.54719066619873 19.67776870727539 6.379490852355957 C 21.93808746337891 3.786830902099609 25.20887756347656 2.299860715866089 28.6514778137207 2.299860715866089 C 31.52330780029297 2.299860715866089 34.29843902587891 3.340410709381104 36.46566009521484 5.229820728302002 C 38.86126708984375 7.31834077835083 40.30016708374023 10.21481037139893 40.51731872558594 13.38567066192627 C 40.72948837280273 16.48394584655762 39.75051498413086 19.48155212402344 37.7572135925293 21.85200119018555 L 40.48580932617188 21.85200119018555 M 40.53994750976562 21.95200157165527 L 37.53994750976562 21.95200157165527 C 41.82194900512695 17.04040145874023 41.31155014038086 9.587201118469238 36.39994812011719 5.305200576782227 C 31.48835372924805 1.023199677467346 24.03514671325684 1.533602595329285 19.75314903259277 6.44520092010498 C 17.87954902648926 8.594400405883789 16.84754753112793 11.34880065917969 16.84794807434082 14.20000076293945 C 16.84634780883789 15.4748010635376 17.05434799194336 16.74080085754395 17.46394920349121 17.94799995422363 L 14.95194816589355 17.94799995422363 C 14.61474800109863 16.72720146179199 14.44514846801758 15.46640110015869 14.44794845581055 14.20000076293945 C 14.44794845581055 6.357600688934326 20.8055477142334 7.858276376282447e-07 28.64794921875 7.858276376282447e-07 C 36.49034881591797 7.858276376282447e-07 42.84794998168945 6.357600688934326 42.84794998168945 14.20000076293945 C 42.85234832763672 16.95400047302246 42.04995727539062 19.64879989624023 40.53994750976562 21.95200157165527 Z"/>
        </g>
      </g>
    </g>
  </g>
</svg>
