<svg id="noun_Human_2818088" xmlns="http://www.w3.org/2000/svg" width="18.064" height="19.464" viewBox="0 0 18.064 19.464">
  <g id="Group_2" data-name="Group 2">
    <path id="Path_1" data-name="Path 1" d="M9.107,0a5.583,5.583,0,0,1,5.632,5.527,5.422,5.422,0,0,1-.916,3.019,9.4,9.4,0,0,1,2.959,3.139,10.16,10.16,0,0,1,1.137,7.193.74.74,0,0,1-.728.584l-16.167,0a.74.74,0,0,1-.741-.647,10.183,10.183,0,0,1,1.15-7.133A9.367,9.367,0,0,1,4.392,8.549a5.431,5.431,0,0,1-.916-3.022A5.58,5.58,0,0,1,9.107,0Zm3.735,9.659a5.7,5.7,0,0,1-7.47,0,7.9,7.9,0,0,0-2.648,2.75A8.729,8.729,0,0,0,1.648,18H16.566A8.729,8.729,0,0,0,15.49,12.41,7.882,7.882,0,0,0,12.842,9.659Zm-3.735-8.2A4.1,4.1,0,0,0,4.966,5.527a4.142,4.142,0,0,0,8.283,0A4.1,4.1,0,0,0,9.107,1.463Z" transform="translate(-0.075)" fill="#fff"/>
  </g>
</svg>
