<svg xmlns="http://www.w3.org/2000/svg" width="60" height="76" viewBox="0 0 60 76">
  <g id="surface1" transform="translate(-0.5)">
    <path id="Path_8591" data-name="Path 8591" d="M41.311.587A1.829,1.829,0,0,0,39.994,0H10.451A10.011,10.011,0,0,0,.5,9.968V66.031A10.011,10.011,0,0,0,10.451,76h40.1A10.011,10.011,0,0,0,60.5,66.031V21.515a1.979,1.979,0,0,0-.53-1.285Zm.53,5.893L54.336,19.642H46.214a4.364,4.364,0,0,1-4.372-4.369Zm8.707,65.848h-40.1a6.347,6.347,0,0,1-6.293-6.3V9.968a6.347,6.347,0,0,1,6.293-6.3H38.183v11.6a8.017,8.017,0,0,0,8.031,8.041H56.841V66.031A6.335,6.335,0,0,1,50.549,72.328Zm0,0" transform="translate(0 0)" fill="#84a5e1"/>
    <path id="Path_8592" data-name="Path 8592" d="M123.446,401.934H91.135a1.681,1.681,0,1,0,0,3.314h32.331a1.682,1.682,0,1,0-.02-3.314Zm0,0" transform="translate(-76.792 -341.976)" fill="#84a5e1"/>
    <path id="Path_8593" data-name="Path 8593" d="M121.278,183.5l6.826-7.34v18.093a1.657,1.657,0,1,0,3.314,0V176.162l6.826,7.34a1.653,1.653,0,0,0,2.419-2.253l-9.709-10.422a1.645,1.645,0,0,0-2.419,0l-9.709,10.422a1.651,1.651,0,0,0,.083,2.336A1.691,1.691,0,0,0,121.278,183.5Zm0,0" transform="translate(-99.264 -143.55)" fill="#84a5e1"/>
  </g>
</svg>
