<svg xmlns="http://www.w3.org/2000/svg" width="40" height="40.25" viewBox="0 0 40 40.25">
  <defs>
    <style>
      .cls-1 {
        fill: none;
      }

      .cls-2, .cls-3 {
        fill: #3269cd;
      }

      .cls-3 {
        stroke: #3269cd;
        stroke-width: 0.5px;
      }
    </style>
  </defs>
  <g id="icon_3way" transform="translate(0 0.25)">
    <rect id="Rectangle_1981" data-name="Rectangle 1981" class="cls-1" width="40" height="40"/>
    <g id="Group_7482" data-name="Group 7482" transform="translate(0 0)">
      <g id="Group_7481" data-name="Group 7481" transform="translate(0 18.461)">
        <g id="Group_7478" data-name="Group 7478">
          <path id="Path_8727" data-name="Path 8727" class="cls-2" d="M14.83,11.089a5.621,5.621,0,1,0-6.795,0A8.441,8.441,0,0,0,3,18.8a2.811,2.811,0,0,0,2.811,2.811H17.054A2.811,2.811,0,0,0,19.865,18.8,8.441,8.441,0,0,0,14.83,11.089ZM7.685,6.621a3.748,3.748,0,1,1,3.748,3.748A3.748,3.748,0,0,1,7.685,6.621Zm9.369,13.117H5.811a.937.937,0,0,1-.937-.937,6.559,6.559,0,1,1,13.117,0A.937.937,0,0,1,17.054,19.738Z" transform="translate(-3 -0.988)"/>
        </g>
        <g id="Group_7479" data-name="Group 7479" transform="translate(23.135)">
          <path id="Path_8727-2" data-name="Path 8727" class="cls-2" d="M14.83,11.089a5.621,5.621,0,1,0-6.795,0A8.441,8.441,0,0,0,3,18.8a2.811,2.811,0,0,0,2.811,2.811H17.054A2.811,2.811,0,0,0,19.865,18.8,8.441,8.441,0,0,0,14.83,11.089ZM7.685,6.621a3.748,3.748,0,1,1,3.748,3.748A3.748,3.748,0,0,1,7.685,6.621Zm9.369,13.117H5.811a.937.937,0,0,1-.937-.937,6.559,6.559,0,1,1,13.117,0A.937.937,0,0,1,17.054,19.738Z" transform="translate(-3 -0.988)"/>
        </g>
      </g>
      <g id="Group_7484" data-name="Group 7484" transform="translate(11.39)">
        <g id="Group_7483" data-name="Group 7483">
          <path id="Path_8730" data-name="Path 8730" class="cls-3" d="M38.722,37.05l-4.044,3.831L33,39.108a.719.719,0,0,0-1.041.993h0l2.176,2.271a.685.685,0,0,0,.5.213.663.663,0,0,0,.5-.189l4.565-4.328a.709.709,0,0,0,.024-.993.686.686,0,0,0-.969-.047Z" transform="translate(-27.133 -31.019)"/>
          <path id="Path_8731" data-name="Path 8731" class="cls-3" d="M20.9,12.2a8.7,8.7,0,1,0,8.7,8.7,8.7,8.7,0,0,0-8.7-8.7Zm0,15.988A7.285,7.285,0,1,1,28.188,20.9h0A7.285,7.285,0,0,1,20.9,28.188Z" transform="translate(-12.2 -12.2)"/>
        </g>
      </g>
    </g>
  </g>
</svg>
