<svg id="icon_po" xmlns="http://www.w3.org/2000/svg" width="40" height="40" viewBox="0 0 40 40">
  <defs>
    <style>
      .cls-1 {
        fill: none;
      }

      .cls-2 {
        fill: #3269cd;
      }

      .cls-3, .cls-4 {
        stroke: none;
      }

      .cls-4 {
        fill: #fff;
      }
    </style>
  </defs>
  <path id="Path_8726" data-name="Path 8726" class="cls-1" d="M0,0H40V40H0Z"/>
  <g id="Group_7488" data-name="Group 7488" transform="translate(6)">
    <g id="Path_8733" data-name="Path 8733" class="cls-2" transform="translate(-8 -2)">
      <path class="cls-3" d="M 34.82927322387695 41.75 L 9.463411331176758 41.75 C 8.794331550598145 41.75 8.250000953674316 41.20566177368164 8.250000953674316 40.53657913208008 L 8.250000953674316 3.463419914245605 C 8.250000953674316 2.794339895248413 8.794331550598145 2.25 9.463411331176758 2.25 L 34.82927322387695 2.25 C 35.49835205078125 2.25 36.04268264770508 2.794339895248413 36.04268264770508 3.463419914245605 L 36.04268264770508 40.53657913208008 C 36.04268264770508 41.20566177368164 35.49835205078125 41.75 34.82927322387695 41.75 Z M 10.67683124542236 4.676829814910889 L 10.67683124542236 4.926829814910889 L 10.67683124542236 39.07316970825195 L 10.67683124542236 39.32316970825195 L 10.92683124542236 39.32316970825195 L 33.36585235595703 39.32316970825195 L 33.61585235595703 39.32316970825195 L 33.61585235595703 39.07316970825195 L 33.61585235595703 4.926829814910889 L 33.61585235595703 4.676829814910889 L 33.36585235595703 4.676829814910889 L 10.92683124542236 4.676829814910889 L 10.67683124542236 4.676829814910889 Z"/>
      <path class="cls-4" d="M 9.463409423828125 2.5 C 8.932182312011719 2.5 8.5 2.932178497314453 8.5 3.463409423828125 L 8.5 40.53657913208008 C 8.5 41.06781005859375 8.932182312011719 41.5 9.463409423828125 41.5 L 34.82926940917969 41.5 C 35.36050033569336 41.5 35.79268264770508 41.06781005859375 35.79268264770508 40.53657913208008 L 35.79268264770508 3.463409423828125 C 35.79268264770508 2.932178497314453 35.36050033569336 2.5 34.82926940917969 2.5 L 9.463409423828125 2.5 M 33.86585235595703 39.57316970825195 L 10.42683029174805 39.57316970825195 L 10.42683029174805 4.426830291748047 L 33.86585235595703 4.426830291748047 L 33.86585235595703 39.57316970825195 M 9.463409423828125 2 L 34.82926940917969 2 C 35.63706970214844 2 36.29268264770508 2.655609130859375 36.29268264770508 3.463409423828125 L 36.29268264770508 40.53657913208008 C 36.29268264770508 41.34439086914062 35.63706970214844 42 34.82926940917969 42 L 9.463409423828125 42 C 8.655612945556641 42 8 41.34439086914062 8 40.53657913208008 L 8 3.463409423828125 C 8 2.655609130859375 8.655612945556641 2 9.463409423828125 2 Z M 33.36585235595703 39.07316970825195 L 33.36585235595703 4.926830291748047 L 10.92683029174805 4.926830291748047 L 10.92683029174805 39.07316970825195 L 33.36585235595703 39.07316970825195 Z"/>
    </g>
    <g id="Path_8734" data-name="Path 8734" class="cls-2" transform="translate(-8.195 -2.171)">
      <path class="cls-3" d="M 27.21951293945312 11.67682456970215 L 17.46341323852539 11.67682456970215 C 16.79433250427246 11.67682456970215 16.25000381469727 11.13249397277832 16.25000381469727 10.46341419219971 C 16.25000381469727 9.794334411621094 16.79433250427246 9.250003814697266 17.46341323852539 9.250003814697266 L 27.21951293945312 9.250003814697266 C 27.88859367370605 9.250003814697266 28.43292236328125 9.794334411621094 28.43292236328125 10.46341419219971 C 28.43292236328125 11.13249397277832 27.88859367370605 11.67682456970215 27.21951293945312 11.67682456970215 Z"/>
      <path class="cls-4" d="M 27.21951293945312 11.42682456970215 C 27.7507438659668 11.42682456970215 28.18292236328125 10.99464416503906 28.18292236328125 10.46341419219971 C 28.18292236328125 9.932184219360352 27.7507438659668 9.500003814697266 27.21951293945312 9.500003814697266 L 17.46341323852539 9.500003814697266 C 16.93218231201172 9.500003814697266 16.50000381469727 9.932184219360352 16.50000381469727 10.46341419219971 C 16.50000381469727 10.99464416503906 16.93218231201172 11.42682456970215 17.46341323852539 11.42682456970215 L 27.21951293945312 11.42682456970215 M 27.21951293945312 11.92682456970215 L 17.46341323852539 11.92682456970215 C 16.65561294555664 11.92682456970215 16.00000381469727 11.27122402191162 16.00000381469727 10.46341419219971 C 16.00000381469727 9.655613899230957 16.65561294555664 9.000003814697266 17.46341323852539 9.000003814697266 L 27.21951293945312 9.000003814697266 C 28.02731323242188 9.000003814697266 28.68292236328125 9.655613899230957 28.68292236328125 10.46341419219971 C 28.68292236328125 11.27122402191162 28.02731323242188 11.92682456970215 27.21951293945312 11.92682456970215 Z"/>
    </g>
    <g id="Path_8735" data-name="Path 8735" class="cls-2" transform="translate(-8.146 -2.366)">
      <path class="cls-3" d="M 29.12195205688477 19.67683601379395 L 15.46341228485107 19.67683601379395 C 14.79433250427246 19.67683601379395 14.25000286102295 19.13249588012695 14.25000286102295 18.46341514587402 C 14.25000286102295 17.79433441162109 14.79433250427246 17.2499942779541 15.46341228485107 17.2499942779541 L 29.12195205688477 17.2499942779541 C 29.7910327911377 17.2499942779541 30.33536338806152 17.79433441162109 30.33536338806152 18.46341514587402 C 30.33536338806152 19.13249588012695 29.7910327911377 19.67683601379395 29.12195205688477 19.67683601379395 Z"/>
      <path class="cls-4" d="M 29.12195205688477 19.42683601379395 C 29.65318298339844 19.42683601379395 30.08536338806152 18.9946460723877 30.08536338806152 18.46341514587402 C 30.08536338806152 17.93218421936035 29.65318298339844 17.4999942779541 29.12195205688477 17.4999942779541 L 15.46341228485107 17.4999942779541 C 14.93218231201172 17.4999942779541 14.50000286102295 17.93218421936035 14.50000286102295 18.46341514587402 C 14.50000286102295 18.9946460723877 14.93218231201172 19.42683601379395 15.46341228485107 19.42683601379395 L 29.12195205688477 19.42683601379395 M 29.12195205688477 19.92683601379395 L 15.46341228485107 19.92683601379395 C 14.65561294555664 19.92683601379395 14.00000286102295 19.27121543884277 14.00000286102295 18.46341514587402 C 14.00000286102295 17.65561485290527 14.65561294555664 16.9999942779541 15.46341228485107 16.9999942779541 L 29.12195205688477 16.9999942779541 C 29.92975234985352 16.9999942779541 30.58536338806152 17.65561485290527 30.58536338806152 18.46341514587402 C 30.58536338806152 19.27121543884277 29.92975234985352 19.92683601379395 29.12195205688477 19.92683601379395 Z"/>
    </g>
    <g id="Path_8736" data-name="Path 8736" class="cls-2" transform="translate(-8.146 -2.488)">
      <path class="cls-3" d="M 29.12195205688477 24.67683410644531 L 15.46341228485107 24.67683410644531 C 14.79433250427246 24.67683410644531 14.25000286102295 24.13249397277832 14.25000286102295 23.46341323852539 C 14.25000286102295 22.79433250427246 14.79433250427246 22.25000381469727 15.46341228485107 22.25000381469727 L 29.12195205688477 22.25000381469727 C 29.7910327911377 22.25000381469727 30.33536338806152 22.79433250427246 30.33536338806152 23.46341323852539 C 30.33536338806152 24.13249397277832 29.7910327911377 24.67683410644531 29.12195205688477 24.67683410644531 Z"/>
      <path class="cls-4" d="M 29.12195205688477 24.42683410644531 C 29.65318298339844 24.42683410644531 30.08536338806152 23.99464416503906 30.08536338806152 23.46341323852539 C 30.08536338806152 22.93218231201172 29.65318298339844 22.50000381469727 29.12195205688477 22.50000381469727 L 15.46341228485107 22.50000381469727 C 14.93218231201172 22.50000381469727 14.50000286102295 22.93218231201172 14.50000286102295 23.46341323852539 C 14.50000286102295 23.99464416503906 14.93218231201172 24.42683410644531 15.46341228485107 24.42683410644531 L 29.12195205688477 24.42683410644531 M 29.12195205688477 24.92683410644531 L 15.46341228485107 24.92683410644531 C 14.65561294555664 24.92683410644531 14.00000286102295 24.2712230682373 14.00000286102295 23.46341323852539 C 14.00000286102295 22.65561294555664 14.65561294555664 22.00000381469727 15.46341228485107 22.00000381469727 L 29.12195205688477 22.00000381469727 C 29.92975234985352 22.00000381469727 30.58536338806152 22.65561294555664 30.58536338806152 23.46341323852539 C 30.58536338806152 24.2712230682373 29.92975234985352 24.92683410644531 29.12195205688477 24.92683410644531 Z"/>
    </g>
    <g id="Path_8737" data-name="Path 8737" class="cls-2" transform="translate(-8.146 -2.61)">
      <path class="cls-3" d="M 29.12195205688477 29.67682647705078 L 15.46341228485107 29.67682647705078 C 14.79433250427246 29.67682647705078 14.25000286102295 29.13249778747559 14.25000286102295 28.46341705322266 C 14.25000286102295 27.79433631896973 14.79433250427246 27.24999618530273 15.46341228485107 27.24999618530273 L 29.12195205688477 27.24999618530273 C 29.7910327911377 27.24999618530273 30.33536338806152 27.79433631896973 30.33536338806152 28.46341705322266 C 30.33536338806152 29.13249778747559 29.7910327911377 29.67682647705078 29.12195205688477 29.67682647705078 Z"/>
      <path class="cls-4" d="M 29.12195205688477 29.42682647705078 C 29.65318298339844 29.42682647705078 30.08536338806152 28.99464797973633 30.08536338806152 28.46341705322266 C 30.08536338806152 27.93218612670898 29.65318298339844 27.49999618530273 29.12195205688477 27.49999618530273 L 15.46341228485107 27.49999618530273 C 14.93218231201172 27.49999618530273 14.50000286102295 27.93218612670898 14.50000286102295 28.46341705322266 C 14.50000286102295 28.99464797973633 14.93218231201172 29.42682647705078 15.46341228485107 29.42682647705078 L 29.12195205688477 29.42682647705078 M 29.12195205688477 29.92682647705078 L 15.46341228485107 29.92682647705078 C 14.65561294555664 29.92682647705078 14.00000286102295 29.27121734619141 14.00000286102295 28.46341705322266 C 14.00000286102295 27.65560722351074 14.65561294555664 26.99999618530273 15.46341228485107 26.99999618530273 L 29.12195205688477 26.99999618530273 C 29.92975234985352 26.99999618530273 30.58536338806152 27.65560722351074 30.58536338806152 28.46341705322266 C 30.58536338806152 29.27121734619141 29.92975234985352 29.92682647705078 29.12195205688477 29.92682647705078 Z"/>
    </g>
    <g id="Path_8738" data-name="Path 8738" class="cls-2" transform="translate(-8.366 -2.78)">
      <path class="cls-3" d="M 29.34145927429199 36.67682266235352 L 24.46340942382812 36.67682266235352 C 23.7943286895752 36.67682266235352 23.25 36.13249206542969 23.25 35.46341323852539 C 23.25 34.79433441162109 23.7943286895752 34.25000381469727 24.46340942382812 34.25000381469727 L 29.34145927429199 34.25000381469727 C 30.01054000854492 34.25000381469727 30.55487823486328 34.79433441162109 30.55487823486328 35.46341323852539 C 30.55487823486328 36.13249206542969 30.01054000854492 36.67682266235352 29.34145927429199 36.67682266235352 Z"/>
      <path class="cls-4" d="M 24.46340942382812 34.50000381469727 C 23.93217849731445 34.50000381469727 23.5 34.93218231201172 23.5 35.46341323852539 C 23.5 35.99464416503906 23.93217849731445 36.42682266235352 24.46340942382812 36.42682266235352 L 29.34145927429199 36.42682266235352 C 29.87268829345703 36.42682266235352 30.30487823486328 35.99464416503906 30.30487823486328 35.46341323852539 C 30.30487823486328 34.93218231201172 29.87268829345703 34.50000381469727 29.34145927429199 34.50000381469727 L 24.46340942382812 34.50000381469727 M 24.46340942382812 34.00000381469727 L 29.34145927429199 34.00000381469727 C 30.14926910400391 34.00000381469727 30.80487823486328 34.65561294555664 30.80487823486328 35.46341323852539 C 30.80487823486328 36.27121353149414 30.14926910400391 36.92682266235352 29.34145927429199 36.92682266235352 L 24.46340942382812 36.92682266235352 C 23.65560913085938 36.92682266235352 23 36.27121353149414 23 35.46341323852539 C 23 34.65561294555664 23.65560913085938 34.00000381469727 24.46340942382812 34.00000381469727 Z"/>
    </g>
  </g>
</svg>
