<svg id="icon_invoice" xmlns="http://www.w3.org/2000/svg" width="40" height="40" viewBox="0 0 40 40">
  <defs>
    <style>
      .cls-1 {
        fill: none;
      }

      .cls-2, .cls-3 {
        fill: #3269cd;
      }

      .cls-4, .cls-5 {
        stroke: none;
      }

      .cls-5 {
        fill: #fff;
      }
    </style>
  </defs>
  <path id="Path_8726" data-name="Path 8726" class="cls-1" d="M0,0H40V40H0Z"/>
  <g id="Group_7503" data-name="Group 7503" transform="translate(4)">
    <path id="Path_8739" data-name="Path 8739" class="cls-2" d="M42.246,28.39a3.219,3.219,0,0,0-2.3-5.474h-.7v-1.03a.786.786,0,0,0-1.572,0v1.03h-2.9a.786.786,0,0,0-.786.786L33.9,34.134a.875.875,0,0,0,.217.569.845.845,0,0,0,.569.244h2.981v1.03a.786.786,0,0,0,1.572,0V34.92h1.084a3.548,3.548,0,0,0,1.924-6.531Zm-4.58,4.959H35.472l.027-3.983h2.168Zm0-5.555H35.526l.027-3.306h2.141v3.306Zm1.572-3.306h.7a1.653,1.653,0,1,1,0,3.306h-.7Zm1.084,8.861H39.238V29.365s1,.027,1.084.027a1.978,1.978,0,1,1,0,3.956Z" transform="translate(-27.494 -2.767)"/>
    <g id="Group_7489" data-name="Group 7489">
      <g id="Path_8740" data-name="Path 8740" class="cls-3" transform="translate(-24 -18.25)">
        <path class="cls-4" d="M 44.45920944213867 58 L 27.23137855529785 58 C 26.42733001708984 57.99074172973633 25.67290878295898 57.66790008544922 25.10933876037598 57.09098052978516 C 24.54580879211426 56.51409149169922 24.24057006835938 55.75225067138672 24.24984931945801 54.94580078125 L 24.24986839294434 21.55709075927734 C 24.23069000244141 19.88899040222168 25.56948852539062 18.51914978027344 27.2342586517334 18.49998092651367 L 53.53072738647461 18.5 C 55.18893814086914 18.52202987670898 56.52510833740234 19.89216041564941 56.50595855712891 21.5542106628418 L 56.50593948364258 44.97755813598633 C 56.51567840576172 46.59503936767578 55.91733932495117 48.13824844360352 54.82114791870117 49.32442092895508 L 48.32728958129883 56.29692840576172 C 48.18903732299805 56.44708251953125 48.04131317138672 56.58899307250977 47.88718414306641 56.71983337402344 L 47.78512954711914 56.79787826538086 L 47.78263854980469 56.79978179931641 L 47.78020095825195 56.80173873901367 C 47.46136093139648 57.05849075317383 47.11355972290039 57.27687835693359 46.7464599609375 57.45085906982422 L 46.7347297668457 57.4564094543457 L 46.72364044189453 57.46316146850586 C 46.7051887512207 57.47436904907227 46.68315887451172 57.48529052734375 46.65628814697266 57.49652862548828 L 46.65057754516602 57.49890899658203 L 46.64500045776367 57.50157928466797 C 45.96595764160156 57.82585906982422 45.21012878417969 57.99821090698242 44.45920944213867 58 Z M 26.26956939697266 54.9392204284668 C 26.25837516784668 55.20337677001953 26.34989547729492 55.45655059814453 26.52766990661621 55.65280151367188 C 26.70703887939453 55.85081100463867 26.95262908935547 55.96701812744141 27.21919822692871 55.98001861572266 L 27.22528839111328 55.98031997680664 L 27.23137855529785 55.98031997680664 L 44.45980834960938 55.98031997680664 C 44.6656608581543 55.97690963745117 44.86833953857422 55.9564208984375 45.06641006469727 55.91936874389648 L 45.27043914794922 55.88119888305664 L 45.27043914794922 55.67362976074219 L 45.27043914794922 46.0736198425293 C 45.27043914794922 45.51678848266602 45.72345733642578 45.06378173828125 46.28028869628906 45.06378173828125 L 54.23624038696289 45.06378173828125 L 54.48624038696289 45.06378173828125 L 54.48624038696289 44.81378173828125 L 54.48624038696289 21.56305313110352 C 54.5107421875 21.01887512207031 54.09003067016602 20.55175399780273 53.54523086547852 20.52010917663574 L 53.53797912597656 20.51968955993652 L 53.53072738647461 20.51968955993652 L 27.23137855529785 20.51968955993652 L 27.22490882873535 20.51968955993652 L 27.21654891967773 20.52001953125 C 26.95000839233398 20.5338306427002 26.70471954345703 20.65068054199219 26.52586936950684 20.84905052185059 C 26.34856224060059 21.04568672180176 26.25769424438477 21.29896545410156 26.26956939697266 21.56298637390137 L 26.26956939697266 54.9392204284668 Z M 47.29013824462891 47.08346176147461 L 47.29013824462891 47.33346176147461 L 47.29013824462891 53.71456909179688 L 47.29013824462891 54.36537170410156 L 47.72583770751953 53.88193893432617 L 53.47705078125 47.50083160400391 L 53.85322952270508 47.08346176147461 L 53.29134750366211 47.08346176147461 L 47.54013824462891 47.08346176147461 L 47.29013824462891 47.08346176147461 Z"/>
        <path class="cls-5" d="M 27.23469543457031 18.75 C 26.4959716796875 18.75913238525391 25.80485153198242 19.05509185791016 25.28838729858398 19.58349990844727 C 24.77136993408203 20.11249923706055 24.49131774902344 20.81113052368164 24.49983978271484 21.55070114135742 L 24.49987030029297 21.55709075927734 L 24.49983978271484 54.94868087768555 C 24.49131774902344 55.68836975097656 24.77128982543945 56.38714981079102 25.28816986083984 56.91628265380859 C 25.80449295043945 57.44483947753906 26.49546432495117 57.74086761474609 27.23405456542969 57.75 L 44.4586181640625 57.75 C 45.17267990112305 57.74829864501953 45.8914680480957 57.58438873291016 46.53726959228516 57.27597808837891 L 46.55978775024414 57.26589965820312 C 46.57949066162109 57.25765991210938 46.58953094482422 57.25212097167969 46.59375 57.24954223632812 L 46.61592864990234 57.23606109619141 L 46.63938903808594 57.22493743896484 C 46.98876953125 57.05936050415039 47.31983947753906 56.85147094726562 47.62340927124023 56.60701751708984 L 47.63325881958008 56.59928894042969 L 47.73017501831055 56.52517318725586 C 47.87480163574219 56.40207672119141 48.01348114013672 56.26866912841797 48.14434051513672 56.12654876708984 L 54.63753890991211 49.15473937988281 C 55.69052886962891 48.01531982421875 56.26528930664062 46.53290939331055 56.25593948364258 44.97756195068359 L 56.2559700012207 21.55133056640625 C 56.27352905273438 20.02780914306641 55.04956817626953 18.77172470092773 53.52692031860352 18.75 L 27.23469543457031 18.75 M 54.73623657226562 21.56854629516602 L 54.73623657226562 45.31378173828125 L 46.28028869628906 45.31378173828125 C 45.86130905151367 45.31378173828125 45.52043914794922 45.65464019775391 45.52043914794922 46.0736198425293 L 45.52043914794922 56.08877944946289 L 45.11236953735352 56.16510772705078 C 44.90055847167969 56.20472717285156 44.68381881713867 56.22663879394531 44.46817016601562 56.23024749755859 L 44.45980834960938 56.23031997680664 L 27.2070198059082 56.22972869873047 C 26.87368774414062 56.21346282958984 26.56661987304688 56.06818008422852 26.34238815307617 55.82064056396484 C 26.12138748168945 55.57667541503906 26.00704574584961 55.26227569580078 26.01956939697266 54.93401336669922 L 26.01956939697266 21.56843948364258 C 26.00629425048828 21.24042892456055 26.11983871459961 20.92602920532227 26.34019088745117 20.681640625 C 26.56375885009766 20.43368911743164 26.87038803100586 20.28762054443359 27.20360946655273 20.27035140991211 L 27.23138046264648 20.26968002319336 L 53.55973052978516 20.2705192565918 C 54.23880767822266 20.30998992919922 54.76364898681641 20.89076232910156 54.73623657226562 21.56854629516602 M 47.04013824462891 55.01617050170898 L 47.04013824462891 46.83345794677734 L 54.41510772705078 46.83345794677734 L 47.04013824462891 55.01617050170898 M 27.23138046264648 18.25 L 53.53071975708008 18.25 C 55.33419036865234 18.27394104003906 56.77671813964844 19.75362014770508 56.75593948364258 21.55709075927734 L 56.75593948364258 44.97756195068359 C 56.76600646972656 46.65063095092773 56.14049911499023 48.26512145996094 55.0047492980957 49.49408721923828 L 48.51023101806641 56.46731948852539 C 48.36407852172852 56.62606048583984 48.20848846435547 56.77536010742188 48.0440788269043 56.91456985473633 L 47.9370002746582 56.9964599609375 C 47.603759765625 57.26480102539062 47.24029922485352 57.49346923828125 46.85351943969727 57.6767692565918 C 46.8213996887207 57.6963005065918 46.78738021850586 57.71268081665039 46.75273895263672 57.7271728515625 C 46.0365104675293 58.06921005249023 45.25352096557617 58.24810791015625 44.45980834960938 58.25 L 27.23075103759766 58.25 C 25.42538833618164 58.22921752929688 23.97908020019531 56.74826049804688 23.99987030029297 54.94292068481445 L 23.99987030029297 21.55646133422852 C 23.97908020019531 19.7510986328125 25.42601776123047 18.27079010009766 27.23138046264648 18.25 Z M 54.23623657226562 44.81378173828125 L 54.23623657226562 21.55709075927734 C 54.25765991210938 21.14511871337891 53.94268798828125 20.79362106323242 53.53071975708008 20.76968002319336 L 27.22948837280273 20.76968002319336 C 26.81625747680664 20.79109954833984 26.49814987182617 21.14385986328125 26.51956939697266 21.55709075927734 L 26.51956939697266 54.94480133056641 C 26.49940872192383 55.3580322265625 26.81814956665039 55.71015930175781 27.23138046264648 55.73031997680664 L 44.45980834960938 55.73031997680664 C 44.64815902709961 55.7271728515625 44.83525085449219 55.70826721191406 45.02043914794922 55.67362976074219 L 45.02043914794922 46.0736198425293 C 45.02043914794922 45.37755966186523 45.584228515625 44.81378173828125 46.28028869628906 44.81378173828125 L 54.23623657226562 44.81378173828125 Z M 47.54013824462891 53.71456909179688 L 53.29135131835938 47.33345794677734 L 47.54013824462891 47.33345794677734 L 47.54013824462891 53.71456909179688 Z"/>
      </g>
      <g id="Path_8741" data-name="Path 8741" class="cls-3" transform="translate(-27.723 -22.872)">
        <path class="cls-4" d="M 52.01914978027344 33.00968551635742 L 35.31985855102539 33.00968551635742 C 34.76301956176758 33.00968551635742 34.30999755859375 32.55667495727539 34.30999755859375 31.99984550476074 C 34.30999755859375 31.44301605224609 34.76301956176758 30.99000549316406 35.31985855102539 30.99000549316406 L 52.01914978027344 30.99000549316406 C 52.57597732543945 30.99000549316406 53.02899932861328 31.44301605224609 53.02899932861328 31.99984550476074 C 53.02899932861328 32.55667495727539 52.57597732543945 33.00968551635742 52.01914978027344 33.00968551635742 Z"/>
        <path class="cls-5" d="M 52.01914978027344 32.75968551635742 C 52.43812942504883 32.75968551635742 52.77899932861328 32.41882705688477 52.77899932861328 31.99984550476074 C 52.77899932861328 31.58086585998535 52.43812942504883 31.24000549316406 52.01914978027344 31.24000549316406 L 35.31985855102539 31.24000549316406 C 34.9008674621582 31.24000549316406 34.55999755859375 31.58086585998535 34.55999755859375 31.99984550476074 C 34.55999755859375 32.41882705688477 34.9008674621582 32.75968551635742 35.31985855102539 32.75968551635742 L 52.01914978027344 32.75968551635742 M 52.01914978027344 33.25968551635742 L 35.31985855102539 33.25968551635742 C 34.62378692626953 33.25968551635742 34.05999755859375 32.69590377807617 34.05999755859375 31.99984550476074 C 34.05999755859375 31.30377578735352 34.62378692626953 30.74000549316406 35.31985855102539 30.74000549316406 L 52.01914978027344 30.74000549316406 C 52.71521759033203 30.74000549316406 53.27899932861328 31.30377578735352 53.27899932861328 31.99984550476074 C 53.27899932861328 32.69590377807617 52.71521759033203 33.25968551635742 52.01914978027344 33.25968551635742 Z"/>
      </g>
      <g id="Path_8742" data-name="Path 8742" class="cls-3" transform="translate(-27.723 -26.27)">
        <path class="cls-4" d="M 52.01914978027344 42.18967819213867 L 35.31985855102539 42.18967819213867 C 34.76301956176758 42.18967819213867 34.30999755859375 41.73667144775391 34.30999755859375 41.17984008789062 C 34.30999755859375 40.62300872802734 34.76301956176758 40.17000198364258 35.31985855102539 40.17000198364258 L 52.01914978027344 40.17000198364258 C 52.57597732543945 40.17000198364258 53.02899932861328 40.62300872802734 53.02899932861328 41.17984008789062 C 53.02899932861328 41.73667144775391 52.57597732543945 42.18967819213867 52.01914978027344 42.18967819213867 Z"/>
        <path class="cls-5" d="M 35.31985855102539 40.42000198364258 C 34.9008674621582 40.42000198364258 34.55999755859375 40.76086044311523 34.55999755859375 41.17984008789062 C 34.55999755859375 41.59881973266602 34.9008674621582 41.93967819213867 35.31985855102539 41.93967819213867 L 52.01914978027344 41.93967819213867 C 52.43812942504883 41.93967819213867 52.77899932861328 41.59881973266602 52.77899932861328 41.17984008789062 C 52.77899932861328 40.76086044311523 52.43812942504883 40.42000198364258 52.01914978027344 40.42000198364258 L 35.31985855102539 40.42000198364258 M 35.31985855102539 39.92000198364258 L 52.01914978027344 39.92000198364258 C 52.71521759033203 39.92000198364258 53.27899932861328 40.48377990722656 53.27899932861328 41.17984008789062 C 53.27899932861328 41.87591171264648 52.71521759033203 42.43967819213867 52.01914978027344 42.43967819213867 L 35.31985855102539 42.43967819213867 C 34.62378692626953 42.43967819213867 34.05999755859375 41.87591171264648 34.05999755859375 41.17984008789062 C 34.05999755859375 40.48377990722656 34.62378692626953 39.92000198364258 35.31985855102539 39.92000198364258 Z"/>
      </g>
    </g>
  </g>
</svg>
