<svg id="icon_gr" xmlns="http://www.w3.org/2000/svg" width="40" height="40" viewBox="0 0 40 40">
  <defs>
    <style>
      .cls-1 {
        fill: none;
      }

      .cls-2 {
        fill: #3269cd;
      }

      .cls-3, .cls-4 {
        stroke: none;
      }

      .cls-4 {
        fill: #fff;
      }
    </style>
  </defs>
  <path id="Path_8726" data-name="Path 8726" class="cls-1" d="M0,0H40V40H0Z"/>
  <g id="Group_7493" data-name="Group 7493" transform="translate(1 0)">
    <g id="Path_8743" data-name="Path 8743" class="cls-2" transform="translate(-0.01 0.02)">
      <path class="cls-3" d="M 31.72629737854004 39.72998046875 L 6.074418067932129 39.72998046875 C 2.868338346481323 39.72998046875 0.259998232126236 37.12165069580078 0.259998232126236 33.91556930541992 L 0.259998232126236 1.543760061264038 C 0.259998232126236 0.8196399807929993 0.8491082191467285 0.2305300086736679 1.573228240013123 0.2305300086736679 L 1.823228240013123 0.2305300086736679 L 1.823228240013123 0.2300000041723251 L 27.41833877563477 0.2300000041723251 C 28.14245796203613 0.2300000041723251 28.7315673828125 0.8191099762916565 28.7315673828125 1.543230056762695 L 28.7315673828125 18.41703033447266 L 28.7315673828125 18.66703033447266 L 28.9815673828125 18.66703033447266 L 36.03373718261719 18.66703033447266 C 36.75784683227539 18.66703033447266 37.34695816040039 19.25613975524902 37.34695816040039 19.98024940490723 L 37.34695816040039 34.10932922363281 C 37.34695816040039 37.20856857299805 34.82553863525391 39.72998046875 31.72629737854004 39.72998046875 Z M 28.7315673828125 21.29347991943359 L 28.7315673828125 21.54347991943359 L 28.7315673828125 34.10932922363281 C 28.7315673828125 35.76034164428711 30.07499885559082 37.10353088378906 31.72629737854004 37.10353088378906 C 33.3773078918457 37.10353088378906 34.72050857543945 35.76034164428711 34.72050857543945 34.10932922363281 L 34.72050857543945 21.54347991943359 L 34.72050857543945 21.29347991943359 L 34.47050857543945 21.29347991943359 L 28.9815673828125 21.29347991943359 L 28.7315673828125 21.29347991943359 Z M 2.886458158493042 2.856460094451904 L 2.886458158493042 3.106460094451904 L 2.886458158493042 33.9150390625 C 2.886458158493042 35.67288970947266 4.316568374633789 37.10300064086914 6.074418067932129 37.10300064086914 L 26.54326820373535 37.10300064086914 L 26.95835876464844 37.10300064086914 L 26.76424789428711 36.73609161376953 L 26.7547779083252 36.71818923950195 C 26.32119750976562 35.87580871582031 26.1145076751709 35.05981063842773 26.10562896728516 34.15267944335938 L 26.10511779785156 19.9797191619873 L 26.10511779785156 3.106460094451904 L 26.10511779785156 2.856460094451904 L 25.85511779785156 2.856460094451904 L 3.136458158493042 2.856460094451904 L 2.886458158493042 2.856460094451904 Z M 20.62110900878906 28.96113967895508 L 7.680728435516357 28.96113967895508 L 7.680728435516357 26.33469009399414 L 20.62110900878906 26.33469009399414 L 20.62110900878906 28.96113967895508 Z M 20.62110900878906 23.10259056091309 L 7.680728435516357 23.10259056091309 L 7.680728435516357 20.47613906860352 L 20.62110900878906 20.47613906860352 L 20.62110900878906 23.10259056091309 Z"/>
      <path class="cls-4" d="M 31.72629737854004 39.47998046875 C 34.68768692016602 39.47998046875 37.09695816040039 37.07072067260742 37.09695816040039 34.10932922363281 L 37.09695816040039 19.98024940490723 C 37.09695816040039 19.39398956298828 36.61999893188477 18.91703033447266 36.03373718261719 18.91703033447266 L 28.4815673828125 18.91703033447266 L 28.4815673828125 1.543230056762695 C 28.4815673828125 0.9569600224494934 28.00460815429688 0.4800000190734863 27.41833877563477 0.4800000190734863 L 1.573228240013123 0.4805299937725067 C 0.9869582653045654 0.4805299937725067 0.5099982619285583 0.9574900269508362 0.5099982619285583 1.543760061264038 L 0.5099982619285583 33.91556930541992 C 0.5099982619285583 36.98379898071289 3.006188154220581 39.47998046875 6.074418067932129 39.47998046875 L 31.72629737854004 39.47998046875 M 28.4815673828125 21.04347991943359 L 34.97050857543945 21.04347991943359 L 34.97050857543945 34.10932922363281 C 34.97050857543945 35.89818954467773 33.51515960693359 37.35353088378906 31.72629737854004 37.35353088378906 C 29.93714904785156 37.35353088378906 28.4815673828125 35.89818954467773 28.4815673828125 34.10932922363281 L 28.4815673828125 21.04347991943359 M 2.636458158493042 2.606460094451904 L 25.85511779785156 2.606460094451904 L 25.85511779785156 3.106194972991943 L 26.35511779785156 3.106460094451904 L 26.35561752319336 34.15023040771484 C 26.36409950256348 35.01596832275391 26.56153869628906 35.79560470581055 26.97697257995605 36.60357284545898 L 27.37345886230469 37.35300064086914 L 6.074418067932129 37.35300064086914 C 4.178718090057373 37.35300064086914 2.636458158493042 35.81074142456055 2.636458158493042 33.9150390625 L 2.636458158493042 2.606460094451904 M 20.37110900878906 28.71113967895508 L 20.37110900878906 26.58469009399414 L 7.930728435516357 26.58469009399414 L 7.930728435516357 28.71113967895508 L 20.37110900878906 28.71113967895508 M 20.37110900878906 22.85259056091309 L 20.37110900878906 20.72613906860352 L 7.930728435516357 20.72613906860352 L 7.930728435516357 22.85259056091309 L 20.37110900878906 22.85259056091309 M 31.72629737854004 39.97998046875 L 6.074418067932129 39.97998046875 C 2.735778331756592 39.97998046875 0.009998240508139133 37.25419998168945 0.009998240508139133 33.91556930541992 L 0.009998240508139133 1.543760061264038 C 0.009998240508139133 0.6807900071144104 0.7097382545471191 -0.01946999505162239 1.573228240013123 -0.01946999505162239 L 1.573228240013123 -0.01999999396502972 L 27.41833877563477 -0.01999999396502972 C 28.28129768371582 -0.01999999396502972 28.9815673828125 0.6802700161933899 28.9815673828125 1.543230056762695 L 28.9815673828125 18.41703033447266 L 36.03373718261719 18.41703033447266 C 36.89669799804688 18.41703033447266 37.59695816040039 19.11729049682617 37.59695816040039 19.98024940490723 L 37.59695816040039 34.10932922363281 C 37.59695816040039 37.34056091308594 34.95752716064453 39.97998046875 31.72629737854004 39.97998046875 Z M 28.9815673828125 21.54347991943359 L 28.9815673828125 34.10932922363281 C 28.9815673828125 35.61989974975586 30.21466827392578 36.85353088378906 31.72629737854004 36.85353088378906 C 33.23265838623047 36.85353088378906 34.47050857543945 35.61568832397461 34.47050857543945 34.10932922363281 L 34.47050857543945 21.54347991943359 L 28.9815673828125 21.54347991943359 Z M 26.54326820373535 36.85300064086914 L 26.53379821777344 36.83509826660156 C 26.09204864501953 35.97687911987305 25.8651180267334 35.12287139892578 25.85563850402832 34.15512847900391 L 25.85511779785156 3.105930089950562 L 25.85511779785156 3.106460094451904 L 3.136458158493042 3.106460094451904 L 3.136458158493042 33.9150390625 C 3.136458158493042 35.52880859375 4.460648059844971 36.85300064086914 6.074418067932129 36.85300064086914 L 26.54326820373535 36.85300064086914 Z M 20.87110900878906 29.21113967895508 L 7.430728435516357 29.21113967895508 L 7.430728435516357 26.08469009399414 L 20.87110900878906 26.08469009399414 L 20.87110900878906 29.21113967895508 Z M 20.87110900878906 23.35259056091309 L 7.430728435516357 23.35259056091309 L 7.430728435516357 20.22613906860352 L 20.87110900878906 20.22613906860352 L 20.87110900878906 23.35259056091309 Z"/>
    </g>
  </g>
</svg>
