<svg xmlns="http://www.w3.org/2000/svg" width="17" height="14" viewBox="0 0 17 14">
  <g id="noun_transfer_691476" transform="translate(17) rotate(90)">
    <g id="Group_6482" data-name="Group 6482" transform="translate(0)">
      <path id="Path_685" data-name="Path 685" d="M14,12.953a1,1,0,0,0-1.594-.75L10,14V1A1,1,0,1,0,8,1V16a1,1,0,0,0,1,1,1.227,1.227,0,0,0,.7-.3l3.89-2.891A1.022,1.022,0,0,0,14,12.953ZM6,1A1,1,0,0,0,5,0a1.226,1.226,0,0,0-.7.3L.407,3.188A1.022,1.022,0,0,0,0,4.047a1,1,0,0,0,1.593.75L4,3V16a1,1,0,1,0,2,0Z" />
    </g>
  </g>
</svg>
