<svg xmlns="http://www.w3.org/2000/svg" width="15.653" height="14.946" viewBox="0 0 15.653 14.946">
  <defs>
    <style>
      .cls-1 {
        fill: #fff;
        stroke: #fff;
        stroke-width: 0.3px;
      }
    </style>
  </defs>
  <path id="icon_filter" class="cls-1" d="M65.406,6.652l4.483-5.474H58.328l4.53,5.474A.761.761,0,0,1,63,7.077v4.907l2.218,1.085V7.03a.583.583,0,0,1,.189-.378ZM71.634.99l-5.19,6.276v6.747a.6.6,0,0,1-.849.566L62.15,12.928a.637.637,0,0,1-.378-.566v-5.1L56.582.99A.606.606,0,0,1,57.054,0H71.163a.6.6,0,0,1,.472.991Z" transform="translate(-56.281 0.151)"/>
</svg>
